<?xml version="1.0" encoding="UTF-8" standalone="no"?>
<svg
   xmlns:dc="http://purl.org/dc/elements/1.1/"
   xmlns:cc="http://creativecommons.org/ns#"
   xmlns:rdf="http://www.w3.org/1999/02/22-rdf-syntax-ns#"
   xmlns:svg="http://www.w3.org/2000/svg"
   xmlns="http://www.w3.org/2000/svg"
   xmlns:xlink="http://www.w3.org/1999/xlink"
   xmlns:sodipodi="http://sodipodi.sourceforge.net/DTD/sodipodi-0.dtd"
   xmlns:inkscape="http://www.inkscape.org/namespaces/inkscape"
   id="svg8"
   version="1.1"
   viewBox="0 0 79.798828 128.33445"
   height="128.33446mm"
   width="79.798828mm"
   inkscape:version="1.0 (4035a4fb49, 2020-05-01)"
   sodipodi:docname="Photoelectric effect - bulb.svg">
  <title
     id="title1342">Photoelectric effect measurement apparatus - microscopic picture</title>
  <defs
     id="defs2">
    <marker
       inkscape:stockid="Arrow1Mend"
       orient="auto"
       refY="0"
       refX="0"
       id="marker1441"
       style="overflow:visible"
       inkscape:isstock="true">
      <path
         id="path1439"
         d="M 0,0 5,-5 -12.5,0 5,5 Z"
         style="fill:#000000;fill-opacity:1;fill-rule:evenodd;stroke:#000000;stroke-width:1pt;stroke-opacity:1"
         transform="matrix(-0.4,0,0,-0.4,-4,0)" />
    </marker>
    <marker
       inkscape:isstock="true"
       style="overflow:visible"
       id="marker5346"
       refX="0"
       refY="0"
       orient="auto"
       inkscape:stockid="Arrow1Mend"
       inkscape:collect="always">
      <path
         transform="matrix(-0.4,0,0,-0.4,-4,0)"
         style="fill:#333333;fill-opacity:1;fill-rule:evenodd;stroke:#333333;stroke-width:1pt;stroke-opacity:1"
         d="M 0,0 5,-5 -12.5,0 5,5 Z"
         id="path5344" />
    </marker>
    <marker
       inkscape:isstock="true"
       style="overflow:visible"
       id="marker4180"
       refX="0"
       refY="0"
       orient="auto"
       inkscape:stockid="Arrow1Mend">
      <path
         transform="matrix(-0.4,0,0,-0.4,-4,0)"
         style="fill:#000000;fill-opacity:1;fill-rule:evenodd;stroke:#000000;stroke-width:1pt;stroke-opacity:1"
         d="M 0,0 5,-5 -12.5,0 5,5 Z"
         id="path4178" />
    </marker>
    <marker
       inkscape:isstock="true"
       style="overflow:visible"
       id="marker3811"
       refX="0"
       refY="0"
       orient="auto"
       inkscape:stockid="Arrow1Mend">
      <path
         transform="matrix(-0.4,0,0,-0.4,-4,0)"
         style="fill:#000000;fill-opacity:1;fill-rule:evenodd;stroke:#000000;stroke-width:1pt;stroke-opacity:1"
         d="M 0,0 5,-5 -12.5,0 5,5 Z"
         id="path3809" />
    </marker>
    <marker
       inkscape:stockid="Arrow1Mend"
       orient="auto"
       refY="0"
       refX="0"
       id="marker3677"
       style="overflow:visible"
       inkscape:isstock="true"
       inkscape:collect="always">
      <path
         id="path3675"
         d="M 0,0 5,-5 -12.5,0 5,5 Z"
         style="fill:#000000;fill-opacity:1;fill-rule:evenodd;stroke:#000000;stroke-width:1pt;stroke-opacity:1"
         transform="matrix(-0.4,0,0,-0.4,-4,0)" />
    </marker>
    <linearGradient
       inkscape:collect="always"
       id="linearGradient854">
      <stop
         style="stop-color:#afc6e9;stop-opacity:1"
         offset="0"
         id="stop850" />
      <stop
         style="stop-color:#d7e3f4;stop-opacity:0.33"
         offset="1"
         id="stop852" />
    </linearGradient>
    <marker
       inkscape:isstock="true"
       style="overflow:visible"
       id="marker2181"
       refX="0"
       refY="0"
       orient="auto"
       inkscape:stockid="Arrow1Mend"
       inkscape:collect="always">
      <path
         transform="matrix(-0.4,0,0,-0.4,-4,0)"
         style="fill:#000080;fill-opacity:1;fill-rule:evenodd;stroke:#000080;stroke-width:1pt;stroke-opacity:1"
         d="M 0,0 5,-5 -12.5,0 5,5 Z"
         id="path2179" />
    </marker>
    <radialGradient
       r="0.41770849"
       fy="41.625847"
       fx="88.442268"
       cy="41.625847"
       cx="88.442268"
       gradientTransform="matrix(1.6997161,0,0,1.6997196,-46.086618,-14.468858)"
       gradientUnits="userSpaceOnUse"
       id="radialGradient859"
       xlink:href="#linearGradient871"
       inkscape:collect="always" />
    <linearGradient
       inkscape:collect="always"
       id="linearGradient871">
      <stop
         style="stop-color:#ffcc00;stop-opacity:1"
         offset="0"
         id="stop867" />
      <stop
         style="stop-color:#de0000;stop-opacity:1"
         offset="1"
         id="stop869" />
    </linearGradient>
    <linearGradient
       inkscape:collect="always"
       xlink:href="#linearGradient854"
       id="linearGradient3304"
       gradientUnits="userSpaceOnUse"
       gradientTransform="matrix(-1,0,0,0.65015332,231.78798,44.056332)"
       x1="97.006844"
       y1="108.89793"
       x2="118.05475"
       y2="82.754265" />
    <marker
       inkscape:stockid="Arrow1Mend"
       orient="auto"
       refY="0"
       refX="0"
       id="marker3959-2"
       style="overflow:visible"
       inkscape:isstock="true"
       inkscape:collect="always">
      <path
         id="path3957-7"
         d="M 0,0 5,-5 -12.5,0 5,5 Z"
         style="fill:#000000;fill-opacity:1;fill-rule:evenodd;stroke:#000000;stroke-width:1pt;stroke-opacity:1"
         transform="matrix(-0.4,0,0,-0.4,-4,0)" />
    </marker>
    <marker
       inkscape:isstock="true"
       style="overflow:visible"
       id="marker3959-2-0"
       refX="0"
       refY="0"
       orient="auto"
       inkscape:stockid="Arrow1Mend"
       inkscape:collect="always">
      <path
         transform="matrix(-0.4,0,0,-0.4,-4,0)"
         style="fill:#000000;fill-opacity:1;fill-rule:evenodd;stroke:#000000;stroke-width:1pt;stroke-opacity:1"
         d="M 0,0 5,-5 -12.5,0 5,5 Z"
         id="path3957-7-9" />
    </marker>
  </defs>
  <sodipodi:namedview
     fit-margin-bottom="1"
     fit-margin-top="1"
     fit-margin-right="1"
     fit-margin-left="1"
     id="base"
     pagecolor="#ffffff"
     bordercolor="#e7e7e7"
     borderopacity="1"
     inkscape:pageopacity="0.0"
     inkscape:pageshadow="2"
     inkscape:zoom="1.0530138"
     inkscape:cx="194.06607"
     inkscape:cy="281.51561"
     inkscape:document-units="mm"
     inkscape:current-layer="layer3"
     inkscape:document-rotation="0"
     showgrid="false"
     showguides="true"
     inkscape:guide-bbox="true"
     inkscape:snap-object-midpoints="true"
     inkscape:snap-bbox="false"
     inkscape:object-paths="true"
     inkscape:window-width="1600"
     inkscape:window-height="836"
     inkscape:window-x="0"
     inkscape:window-y="0"
     inkscape:window-maximized="1"
     inkscape:snap-global="false"
     inkscape:showpageshadow="false"
     inkscape:snap-page="true" />
  <metadata
     id="metadata5">
    <rdf:RDF>
      <cc:Work
         rdf:about="">
        <dc:format>image/svg+xml</dc:format>
        <dc:type
           rdf:resource="http://purl.org/dc/dcmitype/StillImage" />
        <dc:title>Photoelectric effect measurement apparatus - microscopic picture</dc:title>
        <cc:license
           rdf:resource="http://creativecommons.org/licenses/by-sa/4.0/" />
        <dc:date>2020-06-21</dc:date>
        <dc:creator>
          <cc:Agent>
            <dc:title>Ivo Pletikosic</dc:title>
          </cc:Agent>
        </dc:creator>
        <dc:subject>
          <rdf:Bag>
            <rdf:li>Photoelectric effect</rdf:li>
            <rdf:li>photoemission</rdf:li>
            <rdf:li>physics</rdf:li>
            <rdf:li>quantum physics</rdf:li>
            <rdf:li>condensed matter physics</rdf:li>
          </rdf:Bag>
        </dc:subject>
        <dc:description>The photoelectron emitter (E) and collector (C) electrodes are placed in an evacuated quartz tube. When ultraviolet light hits the surface of the emitter, the ejected electrons are prevented from reaching the collector by a sufficiently low negative voltage, or helped to reach it by a positive voltage. The photoelectron current saturates when all emitted electrons (whose number depends on light intensity) are captured by the collector.</dc:description>
      </cc:Work>
      <cc:License
         rdf:about="http://creativecommons.org/licenses/by-sa/4.0/">
        <cc:permits
           rdf:resource="http://creativecommons.org/ns#Reproduction" />
        <cc:permits
           rdf:resource="http://creativecommons.org/ns#Distribution" />
        <cc:requires
           rdf:resource="http://creativecommons.org/ns#Notice" />
        <cc:requires
           rdf:resource="http://creativecommons.org/ns#Attribution" />
        <cc:permits
           rdf:resource="http://creativecommons.org/ns#DerivativeWorks" />
        <cc:requires
           rdf:resource="http://creativecommons.org/ns#ShareAlike" />
      </cc:License>
    </rdf:RDF>
  </metadata>
  <g
     inkscape:groupmode="layer"
     id="layer3"
     inkscape:label="graph"
     transform="translate(0.41199037,1)"
     style="display:inline">
    <path
       style="fill:none;stroke:#000000;stroke-width:0.264583px;stroke-linecap:butt;stroke-linejoin:miter;stroke-opacity:1;marker-end:url(#marker3811)"
       d="M 43.275887,117.82015 V 81.754178"
       id="path5538"
       sodipodi:nodetypes="cc" />
    <path
       style="fill:none;stroke:#000000;stroke-width:0.264583px;stroke-linecap:butt;stroke-linejoin:miter;stroke-opacity:1;marker-end:url(#marker1441)"
       d="m 7.4021242,117.85736 69.6208608,0.0124"
       id="path5546"
       sodipodi:nodetypes="cc" />
    <path
       style="fill:none;stroke:#d40000;stroke-width:0.8;stroke-linecap:butt;stroke-linejoin:miter;stroke-miterlimit:4;stroke-dasharray:none;stroke-opacity:1"
       d="m 74.186687,95.654998 c -26.080062,0.545697 -22.182909,-0.807048 -30.9108,12.842222 -2.879549,5.15731 -7.523794,7.72257 -12.407666,8.89538 -6.810057,0.19045 -13.514638,0.20176 -21.3494301,0.20054"
       id="path5548"
       sodipodi:nodetypes="cccc" />
    <g
       transform="translate(0,1.0583333)"
       aria-label="photoelectric current I"
       id="text5568"
       style="font-size:3.88056px;line-height:0.9;font-family:'EB Garamond';-inkscape-font-specification:'EB Garamond, Normal';text-align:end;text-decoration:none;text-decoration-line:none;text-decoration-color:#000000;letter-spacing:0px;word-spacing:0px;text-anchor:end;fill:#333333;stroke-width:0.264583;stop-color:#000000">
      <path
         d="m 22.456811,83.760855 c 0,-0.1397 0.116417,-0.27552 0.291042,-0.27552 0.337609,0 0.426862,0.325967 0.426862,0.648053 0,0.318206 -0.13582,0.644173 -0.438503,0.644173 -0.143581,0 -0.279401,-0.06209 -0.279401,-0.205669 z m -0.322086,1.816102 c 0,0.09701 -0.0194,0.190147 -0.06985,0.205669 -0.104775,0.03105 -0.170745,0.06209 -0.170745,0.100895 0,0.03881 0.03493,0.07761 0.13582,0.07761 0.360892,0 0.593726,0.05045 0.725665,0.05045 0.100894,0 0.131939,-0.0388 0.131939,-0.07761 0,-0.0388 -0.06209,-0.06985 -0.166864,-0.100894 -0.209551,-0.05821 -0.263879,-0.08925 -0.263879,-0.225073 v -0.62477 c 0,-0.03493 0.0039,-0.05433 0.03881,-0.05433 0.01552,0 0.07373,0.04657 0.151342,0.04657 0.516114,0 0.884768,-0.492831 0.884768,-1.020587 0,-0.325967 -0.259998,-0.671337 -0.582084,-0.671337 -0.174626,0 -0.376415,0.09313 -0.438504,0.155222 -0.03104,0.03105 -0.05045,0.01164 -0.05433,-0.0078 v -0.06985 c 0,-0.07373 0,-0.108656 -0.04657,-0.108656 -0.03881,0 -0.360892,0.128059 -0.403578,0.151342 -0.05045,0.02328 -0.112537,0.05433 -0.112537,0.09701 0,0.04269 0.03881,0.06597 0.08149,0.08149 0.09313,0.03493 0.159103,0.131939 0.159103,0.197908 z"
         style="font-size:3.88056px;stroke-width:0.264583"
         id="path1779" />
      <path
         d="m 25.363351,84.525325 v -0.702381 c 0,-0.283281 -0.213431,-0.539398 -0.48507,-0.539398 -0.201789,0 -0.353131,0.04657 -0.48119,0.151342 -0.03104,0.02716 -0.07761,0.08537 -0.07761,-0.01552 V 82.4143 c 0,-0.07373 0,-0.104775 -0.04657,-0.104775 -0.0388,0 -0.248355,0.06597 -0.403578,0.09313 -0.05433,0.0078 -0.112536,0.0388 -0.112536,0.08149 0,0.04269 0.04657,0.07373 0.08925,0.08925 0.09313,0.03493 0.151342,0.112537 0.151342,0.178506 v 1.781177 c 0,0.09701 -0.04269,0.217311 -0.147462,0.248356 -0.104775,0.03104 -0.151341,0.06209 -0.151341,0.100895 0,0.0388 0.01552,0.07761 0.116416,0.07761 0.08537,0 0.267759,-0.02328 0.34537,-0.02328 0.06209,0 0.197909,0.02328 0.283281,0.02328 0.100895,0 0.112536,-0.03881 0.112536,-0.07761 0,-0.03881 -0.04269,-0.06985 -0.147461,-0.100895 -0.07373,-0.02328 -0.08925,-0.151342 -0.08925,-0.248356 l 0.0039,-0.620889 c 0,-0.294923 0.155222,-0.426862 0.380295,-0.426862 0.201789,0 0.337608,0.225072 0.337608,0.454025 v 0.593726 c 0,0.09701 -0.0194,0.228953 -0.08925,0.248356 -0.104775,0.03104 -0.151341,0.06209 -0.151341,0.100895 0,0.0388 0.01552,0.07761 0.116416,0.07761 0.08537,0 0.209551,-0.02328 0.287162,-0.02328 0.06209,0 0.256117,0.02328 0.341489,0.02328 0.100895,0 0.104775,-0.03881 0.104775,-0.07761 0,-0.03881 -0.03492,-0.06985 -0.1397,-0.100895 -0.104775,-0.03104 -0.143581,-0.155222 -0.147461,-0.256117 z"
         style="font-size:3.88056px;stroke-width:0.264583"
         id="path1781" />
      <path
         d="m 26.201549,84.032494 c 0,-0.2794 0.147461,-0.585965 0.426862,-0.585965 0.337608,0 0.516114,0.372534 0.516114,0.717904 0,0.287161 -0.120297,0.636412 -0.407459,0.636412 -0.360892,0 -0.535517,-0.403578 -0.535517,-0.768351 z m 0.454025,-0.748948 c -0.4191,0 -0.842081,0.368653 -0.842081,0.83432 0,0.461787 0.34925,0.865365 0.822679,0.865365 0.496711,0 0.892528,-0.422981 0.892528,-0.923573 0,-0.450145 -0.422981,-0.776112 -0.873126,-0.776112 z"
         style="font-size:3.88056px;stroke-width:0.264583"
         id="path1783" />
      <path
         d="m 28.339735,84.983231 c 0.232834,0 0.442384,-0.190147 0.442384,-0.2794 0,-0.03881 -0.0194,-0.05433 -0.05821,-0.05433 -0.03881,0 -0.13582,0.06985 -0.2794,0.06985 -0.13582,0 -0.20179,-0.08537 -0.20179,-0.357012 v -0.725664 c 0,-0.05433 0.01552,-0.07373 0.06209,-0.07373 h 0.384176 c 0.05433,0 0.09313,-0.100894 0.09313,-0.1397 0,-0.03881 -0.01552,-0.08925 -0.07761,-0.08925 h -0.376414 c -0.05045,0 -0.08537,-0.0194 -0.08537,-0.05821 v -0.108656 c 0,-0.06597 -0.0078,-0.09701 -0.05433,-0.09701 -0.05045,0 -0.197909,0.147461 -0.252237,0.194028 -0.09701,0.08149 -0.259997,0.190147 -0.259997,0.244475 0,0.03881 0.08925,0.05433 0.124178,0.05433 0.14358,0 0.120297,0.0194 0.120297,0.05433 v 0.923573 c 0,0.329848 0.190147,0.442384 0.4191,0.442384 z"
         style="font-size:3.88056px;stroke-width:0.264583"
         id="path1785" />
      <path
         d="m 29.352557,84.032494 c 0,-0.2794 0.147461,-0.585965 0.426862,-0.585965 0.337608,0 0.516114,0.372534 0.516114,0.717904 0,0.287161 -0.120297,0.636412 -0.407459,0.636412 -0.360892,0 -0.535517,-0.403578 -0.535517,-0.768351 z m 0.454026,-0.748948 c -0.419101,0 -0.842082,0.368653 -0.842082,0.83432 0,0.461787 0.349251,0.865365 0.822679,0.865365 0.496711,0 0.892529,-0.422981 0.892529,-0.923573 0,-0.450145 -0.422981,-0.776112 -0.873126,-0.776112 z"
         style="font-size:3.88056px;stroke-width:0.264583"
         id="path1787" />
      <path
         d="m 31.250149,83.72981 c 0,-0.07761 0.159103,-0.267758 0.391936,-0.267758 0.112537,0 0.228953,0.07761 0.228953,0.190147 0,0.05433 -0.0194,0.120297 -0.05821,0.120297 h -0.512234 c -0.04657,0 -0.05045,-0.01552 -0.05045,-0.04269 z m 0.958498,-0.04269 c 0,-0.197909 -0.248356,-0.403578 -0.512234,-0.403578 -0.473428,0 -0.838201,0.364772 -0.838201,0.842081 0,0.438504 0.240595,0.857604 0.671337,0.857604 0.380295,0 0.605367,-0.186267 0.605367,-0.298803 0,-0.03881 -0.0194,-0.05433 -0.05821,-0.05433 -0.03881,0 -0.20955,0.08925 -0.403578,0.08925 -0.306564,0 -0.488951,-0.318206 -0.488951,-0.613128 0,-0.06597 0,-0.07373 0.01552,-0.116417 0.01164,-0.03104 0.0194,-0.03881 0.07373,-0.03881 h 0.818798 c 0.100895,0 0.116417,-0.159103 0.116417,-0.263878 z"
         style="font-size:3.88056px;stroke-width:0.264583"
         id="path1789" />
      <path
         d="m 32.662669,82.751909 v 1.781177 c 0,0.09701 -0.04269,0.217311 -0.147462,0.248356 -0.104775,0.03104 -0.170744,0.06209 -0.170744,0.100895 0,0.0388 0.03493,0.07761 0.135819,0.07761 0.08537,0 0.267759,-0.02328 0.34537,-0.02328 0.06209,0 0.256117,0.02328 0.341489,0.02328 0.100895,0 0.131939,-0.03881 0.131939,-0.07761 0,-0.03881 -0.06209,-0.06985 -0.166864,-0.100895 -0.104775,-0.03104 -0.147461,-0.151342 -0.147461,-0.248356 V 82.4143 c 0,-0.07373 0,-0.104775 -0.04657,-0.104775 -0.0388,0 -0.248355,0.06597 -0.403578,0.09313 -0.05433,0.0078 -0.112536,0.0388 -0.112536,0.08149 0,0.04269 0.04657,0.07373 0.08925,0.08925 0.09313,0.03493 0.151342,0.112537 0.151342,0.178506 z"
         style="font-size:3.88056px;stroke-width:0.264583"
         id="path1791" />
      <path
         d="m 33.838474,83.72981 c 0,-0.07761 0.159103,-0.267758 0.391937,-0.267758 0.112536,0 0.228953,0.07761 0.228953,0.190147 0,0.05433 -0.0194,0.120297 -0.05821,0.120297 H 33.88892 c -0.04657,0 -0.05045,-0.01552 -0.05045,-0.04269 z m 0.958499,-0.04269 c 0,-0.197909 -0.248356,-0.403578 -0.512234,-0.403578 -0.473429,0 -0.838201,0.364772 -0.838201,0.842081 0,0.438504 0.240594,0.857604 0.671337,0.857604 0.380295,0 0.605367,-0.186267 0.605367,-0.298803 0,-0.03881 -0.0194,-0.05433 -0.05821,-0.05433 -0.03881,0 -0.209551,0.08925 -0.403579,0.08925 -0.306564,0 -0.48895,-0.318206 -0.48895,-0.613128 0,-0.06597 0,-0.07373 0.01552,-0.116417 0.01164,-0.03104 0.0194,-0.03881 0.07373,-0.03881 h 0.818798 c 0.100894,0 0.116417,-0.159103 0.116417,-0.263878 z"
         style="font-size:3.88056px;stroke-width:0.264583"
         id="path1793" />
      <path
         d="m 35.662333,84.983231 c 0.380295,0 0.605368,-0.186267 0.605368,-0.298803 0,-0.03881 -0.0194,-0.05433 -0.05821,-0.05433 -0.0388,0 -0.228953,0.08925 -0.407458,0.08925 -0.329848,0 -0.48119,-0.364773 -0.48119,-0.706262 0,-0.256117 0.162984,-0.547159 0.395817,-0.547159 0.08149,0 0.131939,0.06985 0.197909,0.13582 0.08537,0.08537 0.182386,0.1397 0.252236,0.1397 0.08925,0 0.162984,-0.05821 0.162984,-0.151342 0,-0.05045 -0.05433,-0.116417 -0.128059,-0.178506 -0.06209,-0.05045 -0.182386,-0.128058 -0.454025,-0.128058 -0.446265,0 -0.783873,0.442384 -0.783873,0.911931 0,0.41134 0.283281,0.787754 0.6985,0.787754 z"
         style="font-size:3.88056px;stroke-width:0.264583"
         id="path1795" />
      <path
         d="m 37.117536,84.983231 c 0.232834,0 0.442384,-0.190147 0.442384,-0.2794 0,-0.03881 -0.0194,-0.05433 -0.05821,-0.05433 -0.03881,0 -0.13582,0.06985 -0.2794,0.06985 -0.13582,0 -0.20179,-0.08537 -0.20179,-0.357012 v -0.725664 c 0,-0.05433 0.01552,-0.07373 0.06209,-0.07373 h 0.384176 c 0.05433,0 0.09313,-0.100894 0.09313,-0.1397 0,-0.03881 -0.01552,-0.08925 -0.07761,-0.08925 h -0.376414 c -0.05045,0 -0.08537,-0.0194 -0.08537,-0.05821 v -0.108656 c 0,-0.06597 -0.0078,-0.09701 -0.05433,-0.09701 -0.05045,0 -0.197909,0.147461 -0.252237,0.194028 -0.09701,0.08149 -0.259997,0.190147 -0.259997,0.244475 0,0.03881 0.08925,0.05433 0.124178,0.05433 0.14358,0 0.120297,0.0194 0.120297,0.05433 v 0.923573 c 0,0.329848 0.190147,0.442384 0.4191,0.442384 z"
         style="font-size:3.88056px;stroke-width:0.264583"
         id="path1797" />
      <path
         d="m 38.196328,84.936664 c 0.06209,0 0.291042,0.02328 0.376414,0.02328 0.100895,0 0.131939,-0.03881 0.131939,-0.07761 0,-0.03881 -0.05433,-0.06985 -0.159102,-0.100895 -0.104776,-0.03104 -0.190148,-0.151342 -0.190148,-0.248356 l 0.0078,-0.756709 c 0,-0.100895 0.112536,-0.182386 0.201789,-0.182386 0.07761,0 0.194028,0.108655 0.252237,0.108655 0.0194,0 0.05045,-0.02328 0.06209,-0.03493 0.06209,-0.06209 0.116416,-0.162983 0.116416,-0.221192 0,-0.08925 -0.06209,-0.162983 -0.221191,-0.162983 -0.116417,0 -0.279401,0.08537 -0.34149,0.151342 -0.0194,0.02328 -0.07761,0.08149 -0.07761,0.02328 v -0.09701 c 0,-0.07373 0,-0.108656 -0.04657,-0.108656 -0.0388,0 -0.360892,0.128059 -0.403578,0.151342 -0.05045,0.02328 -0.112536,0.05433 -0.112536,0.09701 0,0.04269 0.03881,0.06597 0.08149,0.08149 0.09313,0.03493 0.159103,0.131939 0.159103,0.197908 v 0.752829 c 0,0.09701 -0.04269,0.217311 -0.147462,0.248356 -0.104775,0.03104 -0.151341,0.06209 -0.151341,0.100895 0,0.0388 0.01552,0.07761 0.116416,0.07761 0.08537,0 0.27164,-0.02328 0.34537,-0.02328 z"
         style="font-size:3.88056px;stroke-width:0.264583"
         id="path1799" />
      <path
         d="m 39.546756,82.449225 c -0.116416,0 -0.21343,0.09313 -0.21343,0.209551 0,0.120297 0.09313,0.217311 0.21343,0.217311 0.120298,0 0.213431,-0.09701 0.213431,-0.217311 0,-0.116417 -0.09701,-0.209551 -0.213431,-0.209551 z m -0.1397,1.331032 v 0.752829 c 0,0.09701 -0.04269,0.217311 -0.147461,0.248356 -0.104775,0.03104 -0.170745,0.06209 -0.170745,0.100895 0,0.0388 0.03493,0.07761 0.13582,0.07761 0.08537,0 0.267759,-0.02328 0.34537,-0.02328 0.06209,0 0.256117,0.02328 0.341489,0.02328 0.100895,0 0.131939,-0.03881 0.131939,-0.07761 0,-0.03881 -0.06209,-0.06985 -0.166864,-0.100895 -0.104775,-0.03104 -0.147461,-0.151342 -0.147461,-0.248356 v -1.168048 c 0,-0.07761 0,-0.112537 -0.04657,-0.112537 -0.03881,0 -0.360892,0.128059 -0.403578,0.151342 -0.05045,0.02328 -0.112536,0.05433 -0.112536,0.09701 0,0.04269 0.0388,0.06597 0.08149,0.08149 0.09313,0.03493 0.159103,0.131939 0.159103,0.197908 z"
         style="font-size:3.88056px;stroke-width:0.264583"
         id="path1801" />
      <path
         d="m 40.889425,84.983231 c 0.380295,0 0.605368,-0.186267 0.605368,-0.298803 0,-0.03881 -0.0194,-0.05433 -0.05821,-0.05433 -0.03881,0 -0.228953,0.08925 -0.407459,0.08925 -0.329847,0 -0.481189,-0.364773 -0.481189,-0.706262 0,-0.256117 0.162983,-0.547159 0.395817,-0.547159 0.08149,0 0.131939,0.06985 0.197909,0.13582 0.08537,0.08537 0.182386,0.1397 0.252236,0.1397 0.08925,0 0.162984,-0.05821 0.162984,-0.151342 0,-0.05045 -0.05433,-0.116417 -0.128059,-0.178506 -0.06209,-0.05045 -0.182386,-0.128058 -0.454025,-0.128058 -0.446265,0 -0.783874,0.442384 -0.783874,0.911931 0,0.41134 0.283281,0.787754 0.698501,0.787754 z"
         style="font-size:3.88056px;stroke-width:0.264583"
         id="path1803" />
      <path
         d="m 29.271068,88.475735 c 0.380295,0 0.605367,-0.186267 0.605367,-0.298803 0,-0.03881 -0.0194,-0.05433 -0.05821,-0.05433 -0.03881,0 -0.228953,0.08925 -0.407459,0.08925 -0.329847,0 -0.481189,-0.364773 -0.481189,-0.706262 0,-0.256117 0.162983,-0.547159 0.395817,-0.547159 0.08149,0 0.131939,0.06985 0.197909,0.13582 0.08537,0.08537 0.182386,0.1397 0.252236,0.1397 0.08925,0 0.162983,-0.05821 0.162983,-0.151342 0,-0.05045 -0.05433,-0.116417 -0.128058,-0.178506 -0.06209,-0.05045 -0.182386,-0.128058 -0.454026,-0.128058 -0.446264,0 -0.783873,0.442383 -0.783873,0.911931 0,0.41134 0.283281,0.787754 0.698501,0.787754 z"
         style="font-size:3.88056px;stroke-width:0.264583"
         id="path1805" />
      <path
         d="m 31.211341,87.187389 v 0.733426 c 0,0.170744 -0.174625,0.298803 -0.388056,0.298803 -0.178505,0 -0.271639,-0.174625 -0.271639,-0.360892 v -0.977901 c 0,-0.07373 0,-0.104775 -0.04657,-0.104775 -0.03881,0 -0.20179,0.05045 -0.357012,0.07761 -0.05433,0.0078 -0.104775,0.0388 -0.104775,0.08149 0,0.04269 0.03881,0.07373 0.08149,0.08925 0.09313,0.03493 0.104775,0.128059 0.104775,0.194028 v 0.768351 c 0,0.225073 0.159103,0.473429 0.384175,0.473429 0.225073,0 0.349251,-0.03493 0.523876,-0.174626 0.05045,-0.04269 0.06209,-0.06597 0.07761,0.0039 0.01164,0.05433 0.01164,0.108656 0.02328,0.147461 0.0039,0.0194 0.02328,0.05433 0.05433,0.05433 0.05821,0 0.376415,-0.09313 0.446265,-0.128058 0.03104,-0.01552 0.06985,-0.04657 0.06985,-0.09701 0,-0.02716 -0.03105,-0.06209 -0.05045,-0.06209 -0.03104,0 -0.112536,0.02328 -0.162983,0.02328 -0.03881,0 -0.06209,-0.01164 -0.06209,-0.05045 v -1.296107 c 0,-0.07373 0,-0.104775 -0.04657,-0.104775 -0.0388,0 -0.294922,0.04269 -0.434622,0.06209 -0.05433,0.0078 -0.112537,0.05433 -0.112537,0.09701 0,0.04269 0.04269,0.06597 0.08925,0.07373 0.108656,0.01552 0.182386,0.06985 0.182386,0.178506 z"
         style="font-size:3.88056px;stroke-width:0.264583"
         id="path1807" />
      <path
         d="m 32.383267,88.429168 c 0.06209,0 0.291042,0.02328 0.376414,0.02328 0.100895,0 0.131939,-0.03881 0.131939,-0.07761 0,-0.03881 -0.05433,-0.06985 -0.159103,-0.100894 -0.104775,-0.03104 -0.190147,-0.151342 -0.190147,-0.248356 l 0.0078,-0.756709 c 0,-0.100895 0.112536,-0.182387 0.201789,-0.182387 0.07761,0 0.194028,0.108656 0.252236,0.108656 0.0194,0 0.05045,-0.02328 0.06209,-0.03493 0.06209,-0.06209 0.116417,-0.162983 0.116417,-0.221192 0,-0.08925 -0.06209,-0.162983 -0.221192,-0.162983 -0.116417,0 -0.2794,0.08537 -0.341489,0.151341 -0.0194,0.02328 -0.07761,0.08149 -0.07761,0.02328 v -0.09701 c 0,-0.07373 0,-0.108656 -0.04657,-0.108656 -0.03881,0 -0.360892,0.128059 -0.403578,0.151342 -0.05045,0.02328 -0.112536,0.05433 -0.112536,0.09701 0,0.04269 0.0388,0.06597 0.08149,0.08149 0.09313,0.03493 0.159103,0.131939 0.159103,0.197908 v 0.752829 c 0,0.09701 -0.04269,0.217311 -0.147461,0.248356 -0.104775,0.03104 -0.151342,0.06209 -0.151342,0.100894 0,0.03881 0.01552,0.07761 0.116417,0.07761 0.08537,0 0.271639,-0.02328 0.34537,-0.02328 z"
         style="font-size:3.88056px;stroke-width:0.264583"
         id="path1809" />
      <path
         d="m 33.756978,88.429168 c 0.06209,0 0.291042,0.02328 0.376414,0.02328 0.100894,0 0.131939,-0.03881 0.131939,-0.07761 0,-0.03881 -0.05433,-0.06985 -0.159103,-0.100894 -0.104775,-0.03104 -0.190147,-0.151342 -0.190147,-0.248356 l 0.0078,-0.756709 c 0,-0.100895 0.112536,-0.182387 0.201789,-0.182387 0.07761,0 0.194028,0.108656 0.252236,0.108656 0.0194,0 0.05045,-0.02328 0.06209,-0.03493 0.06209,-0.06209 0.116417,-0.162983 0.116417,-0.221192 0,-0.08925 -0.06209,-0.162983 -0.221192,-0.162983 -0.116417,0 -0.2794,0.08537 -0.341489,0.151341 -0.0194,0.02328 -0.07761,0.08149 -0.07761,0.02328 v -0.09701 c 0,-0.07373 0,-0.108656 -0.04657,-0.108656 -0.03881,0 -0.360892,0.128059 -0.403578,0.151342 -0.05045,0.02328 -0.112537,0.05433 -0.112537,0.09701 0,0.04269 0.03881,0.06597 0.08149,0.08149 0.09313,0.03493 0.159103,0.131939 0.159103,0.197908 v 0.752829 c 0,0.09701 -0.04269,0.217311 -0.147461,0.248356 -0.104775,0.03104 -0.151342,0.06209 -0.151342,0.100894 0,0.03881 0.01552,0.07761 0.116417,0.07761 0.08537,0 0.271639,-0.02328 0.34537,-0.02328 z"
         style="font-size:3.88056px;stroke-width:0.264583"
         id="path1811" />
      <path
         d="m 35.072481,87.222314 c 0,-0.07761 0.159103,-0.267759 0.391936,-0.267759 0.112537,0 0.228953,0.07761 0.228953,0.190148 0,0.05433 -0.0194,0.120297 -0.05821,0.120297 h -0.512234 c -0.04657,0 -0.05045,-0.01552 -0.05045,-0.04269 z m 0.958498,-0.04269 c 0,-0.197909 -0.248356,-0.403578 -0.512234,-0.403578 -0.473428,0 -0.838201,0.364772 -0.838201,0.842081 0,0.438503 0.240595,0.857604 0.671337,0.857604 0.380295,0 0.605367,-0.186267 0.605367,-0.298803 0,-0.03881 -0.0194,-0.05433 -0.05821,-0.05433 -0.03881,0 -0.20955,0.08925 -0.403578,0.08925 -0.306564,0 -0.488951,-0.318206 -0.488951,-0.613129 0,-0.06597 0,-0.07373 0.01552,-0.116416 0.01164,-0.03104 0.0194,-0.03881 0.07373,-0.03881 h 0.818798 c 0.100895,0 0.116417,-0.159103 0.116417,-0.263878 z"
         style="font-size:3.88056px;stroke-width:0.264583"
         id="path1813" />
      <path
         d="m 37.850957,88.017829 v -0.702382 c 0,-0.28328 -0.213431,-0.539397 -0.48507,-0.539397 -0.201789,0 -0.353131,0.04657 -0.48119,0.151341 -0.03104,0.02716 -0.07761,0.08149 -0.07761,0.02328 v -0.09701 c 0,-0.07373 0,-0.108656 -0.04657,-0.108656 -0.03881,0 -0.357011,0.128059 -0.403578,0.151342 -0.05045,0.02328 -0.112536,0.05433 -0.112536,0.09701 0,0.04269 0.0388,0.06597 0.08149,0.08149 0.09313,0.03493 0.159103,0.131939 0.159103,0.197908 v 0.752829 c 0,0.09701 -0.04269,0.217311 -0.147462,0.248356 -0.104775,0.03104 -0.151342,0.06209 -0.151342,0.100894 0,0.03881 0.01552,0.07761 0.116417,0.07761 0.08537,0 0.267759,-0.02328 0.34537,-0.02328 0.06209,0 0.197909,0.02328 0.283281,0.02328 0.100895,0 0.112536,-0.03881 0.112536,-0.07761 0,-0.03881 -0.04269,-0.06985 -0.147461,-0.100894 -0.07373,-0.02328 -0.08925,-0.151342 -0.08925,-0.248356 l 0.0039,-0.62089 c 0,-0.294922 0.155222,-0.426861 0.380295,-0.426861 0.201789,0 0.337608,0.225072 0.337608,0.454025 v 0.593726 c 0,0.09701 -0.0194,0.228953 -0.08925,0.248356 -0.104775,0.03104 -0.151341,0.06209 -0.151341,0.100894 0,0.03881 0.01552,0.07761 0.116416,0.07761 0.08537,0 0.209551,-0.02328 0.287162,-0.02328 0.06209,0 0.256117,0.02328 0.341489,0.02328 0.100895,0 0.104775,-0.03881 0.104775,-0.07761 0,-0.03881 -0.03493,-0.06985 -0.1397,-0.100894 -0.104775,-0.03104 -0.147461,-0.155223 -0.147461,-0.256117 z"
         style="font-size:3.88056px;stroke-width:0.264583"
         id="path1815" />
      <path
         d="m 38.937511,88.475735 c 0.232834,0 0.442384,-0.190148 0.442384,-0.2794 0,-0.03881 -0.0194,-0.05433 -0.05821,-0.05433 -0.0388,0 -0.135819,0.06985 -0.2794,0.06985 -0.13582,0 -0.201789,-0.08537 -0.201789,-0.357012 v -0.725664 c 0,-0.05433 0.01552,-0.07373 0.06209,-0.07373 h 0.384175 c 0.05433,0 0.09313,-0.100895 0.09313,-0.1397 0,-0.03881 -0.01552,-0.08925 -0.07761,-0.08925 h -0.376415 c -0.05045,0 -0.08537,-0.0194 -0.08537,-0.05821 v -0.108656 c 0,-0.06597 -0.0078,-0.09701 -0.05433,-0.09701 -0.05045,0 -0.197908,0.147461 -0.252236,0.194028 -0.09701,0.08149 -0.259998,0.190147 -0.259998,0.244475 0,0.03881 0.08925,0.05433 0.124178,0.05433 0.143581,0 0.120297,0.0194 0.120297,0.05433 v 0.923573 c 0,0.329848 0.190148,0.442384 0.419101,0.442384 z"
         style="font-size:3.88056px;stroke-width:0.264583"
         id="path1817" />
      <path
         d="m 41.700461,86.100832 c -0.131939,0 -0.182386,0.0194 -0.318206,0.0194 -0.1397,0 -0.2794,-0.0194 -0.430742,-0.0194 -0.05821,0 -0.13582,0.02328 -0.13582,0.06985 0,0.03493 0.02716,0.05821 0.06209,0.06597 0.197909,0.05821 0.236714,0.120297 0.197909,0.287161 l -0.353131,1.420285 c -0.04269,0.159103 -0.08925,0.27552 -0.213431,0.329848 -0.08925,0.04269 -0.213431,0.05433 -0.213431,0.112536 0,0.03881 0.06597,0.06597 0.128059,0.06597 0.05821,0 0.162983,-0.02328 0.34537,-0.02328 0.186267,0 0.430742,0.02328 0.477309,0.02328 0.06209,0 0.120297,-0.02716 0.120297,-0.06597 0,-0.05821 -0.08149,-0.07761 -0.186267,-0.116417 -0.08925,-0.03104 -0.131939,-0.155222 -0.08925,-0.325967 l 0.353131,-1.420285 c 0.04657,-0.186267 0.112536,-0.225072 0.333728,-0.287161 0.03104,-0.0078 0.05821,-0.03105 0.05821,-0.06597 0,-0.04657 -0.07761,-0.06985 -0.13582,-0.06985 z"
         style="font-style:italic"
         id="path1819" />
    </g>
    <g
       aria-label="Vo"
       id="text5596"
       style="font-size:3.88056px;line-height:1.25;font-family:'EB Garamond';-inkscape-font-specification:'EB Garamond, Normal';text-align:end;text-decoration:none;text-decoration-line:none;text-decoration-color:#000000;letter-spacing:0px;word-spacing:0px;text-anchor:end;fill:#333333;stroke-width:0.264583;stop-color:#000000">
      <path
         d="m 30.377939,120.60527 c -0.08925,0.10477 -0.1397,0.13194 -0.120298,0 l 0.162984,-1.13312 c 0.02716,-0.19015 0.06597,-0.30657 0.194028,-0.36478 0.08925,-0.0388 0.213431,-0.0466 0.213431,-0.10477 0,-0.0388 -0.06597,-0.066 -0.128059,-0.066 -0.05821,0 -0.170744,0.0194 -0.353131,0.0194 -0.186267,0 -0.422981,-0.0194 -0.469548,-0.0194 -0.06209,0 -0.120297,0.0272 -0.120297,0.066 0,0.0582 0.08149,0.0699 0.186267,0.10865 0.08925,0.0311 0.131939,0.18627 0.108656,0.3609 l -0.236714,1.7152 c -0.01164,0.0854 0.0194,0.15523 0.07373,0.15523 0.190148,0 0.403578,-0.3609 0.465667,-0.43463 l 1.24178,-1.42416 c 0.205669,-0.23284 0.395817,-0.34537 0.535517,-0.36477 0.112536,-0.0155 0.213431,-0.0582 0.213431,-0.11642 0,-0.0388 -0.06597,-0.066 -0.128059,-0.066 -0.05821,0 -0.162983,0.0194 -0.34537,0.0194 -0.186267,0 -0.430742,-0.0194 -0.477309,-0.0194 -0.06209,0 -0.120297,0.0272 -0.120297,0.066 0,0.0582 0.06209,0.0854 0.186267,0.12806 0.08537,0.0349 0.06985,0.14358 -0.01552,0.24059 z"
         style="font-style:italic"
         id="path1897" />
      <path
         d="m 31.418984,121.58635 c 0,-0.2286 0.12065,-0.47943 0.34925,-0.47943 0.276225,0 0.422275,0.3048 0.422275,0.58738 0,0.23495 -0.09842,0.5207 -0.333375,0.5207 -0.295275,0 -0.43815,-0.3302 -0.43815,-0.62865 z m 0.371475,-0.61278 c -0.3429,0 -0.688975,0.30163 -0.688975,0.68263 0,0.37782 0.28575,0.70802 0.6731,0.70802 0.4064,0 0.73025,-0.34607 0.73025,-0.75565 0,-0.3683 -0.346075,-0.635 -0.714375,-0.635 z"
         style="font-size:3.175px"
         id="path1899" />
    </g>
    <path
       style="fill:none;stroke:#000000;stroke-width:0.18;stroke-linecap:butt;stroke-linejoin:miter;stroke-miterlimit:4;stroke-dasharray:0.18, 0.18;stroke-dashoffset:0;stroke-opacity:1"
       d="m 74.186687,95.400367 h -30.9108"
       id="path5602" />
    <g
       aria-label="saturation current"
       id="text1437"
       style="font-size:3.175px;line-height:1.25;font-family:'EB Garamond';-inkscape-font-specification:'EB Garamond, Normal';text-align:end;text-decoration:none;text-decoration-line:none;text-decoration-color:#000000;letter-spacing:0px;word-spacing:0px;text-anchor:end;fill:#333333;stroke-width:0.264583;stop-color:#000000">
      <path
         d="m 44.621504,93.079582 c -0.22225,0 -0.4064,0.180975 -0.4064,0.396875 0,0.15875 0.123825,0.257175 0.2667,0.3556 l 0.1524,0.10795 c 0.0762,0.05715 0.142875,0.0889 0.142875,0.2286 0,0.09525 -0.09208,0.15875 -0.187325,0.15875 -0.104775,0 -0.2032,-0.03493 -0.244475,-0.12065 -0.04445,-0.09842 -0.10795,-0.127 -0.1397,-0.127 -0.03175,0 -0.03493,0.04762 -0.03493,0.1016 0,0.04762 0.0381,0.15875 0.05398,0.200025 0.01588,0.04127 0.03175,0.04445 0.07937,0.0635 0.03175,0.0127 0.12065,0.0254 0.20955,0.0254 0.26035,0 0.479425,-0.193675 0.479425,-0.46355 0,-0.111125 -0.06667,-0.18415 -0.1524,-0.254 l -0.26035,-0.19685 c -0.07303,-0.0508 -0.136525,-0.104775 -0.136525,-0.193675 0,-0.07937 0.06668,-0.136525 0.14605,-0.136525 0.09842,0 0.1905,0.05397 0.2159,0.127 0.01588,0.0635 0.0635,0.07937 0.09525,0.07937 0.0381,0 0.0381,-0.03175 0.0381,-0.06985 0,-0.02857 -0.0063,-0.12065 -0.01587,-0.155575 -0.0095,-0.03175 -0.01588,-0.04127 -0.03493,-0.0508 -0.1016,-0.04127 -0.168275,-0.0762 -0.2667,-0.0762 z"
         style="font-size:3.175px;stroke-width:0.264583"
         id="path1822" />
      <path
         d="m 45.412075,94.028907 c 0,-0.05398 0.04762,-0.117475 0.15875,-0.1524 l 0.1524,-0.06033 c 0.03493,-0.0127 0.07303,-0.0127 0.07303,0.02223 v 0.29845 c 0,0.0762 -0.10795,0.12065 -0.19685,0.12065 -0.1143,0 -0.187325,-0.07303 -0.187325,-0.2286 z m 0.23495,-0.949325 c -0.117475,0 -0.238125,0.07303 -0.34925,0.149225 -0.06668,0.04762 -0.12065,0.142875 -0.12065,0.2159 0,0.0254 0.0064,0.10795 0.0254,0.10795 0.03175,0 0.15875,-0.05397 0.1778,-0.06667 0.02858,-0.01905 0.03175,-0.04445 0.03175,-0.123825 0,-0.06667 0.07937,-0.09207 0.14605,-0.09207 0.111125,0 0.231775,0.08255 0.231775,0.193675 v 0.155575 c 0,0.03175 -0.01588,0.04762 -0.07303,0.07303 l -0.415925,0.174625 c -0.09525,0.04128 -0.17145,0.1397 -0.17145,0.29845 0,0.15875 0.15875,0.3048 0.314325,0.3048 0.123825,0 0.250825,-0.0635 0.32385,-0.136525 0.02223,-0.02223 0.0254,-0.0254 0.04763,0.0063 0.04127,0.05715 0.1143,0.130175 0.219075,0.130175 0.127,0 0.28575,-0.08255 0.28575,-0.19685 0,-0.03493 -0.0095,-0.06985 -0.02857,-0.06985 -0.02222,0 -0.06985,0.04127 -0.1143,0.04127 -0.05398,0 -0.1143,-0.0381 -0.1143,-0.0889 v -0.752475 c 0,-0.168275 -0.14605,-0.32385 -0.415925,-0.32385 z"
         style="font-size:3.175px;stroke-width:0.264583"
         id="path1824" />
      <path
         d="m 46.94877,94.470232 c 0.1905,0 0.36195,-0.155575 0.36195,-0.2286 0,-0.03175 -0.01588,-0.04445 -0.04763,-0.04445 -0.03175,0 -0.111125,0.05715 -0.2286,0.05715 -0.111125,0 -0.1651,-0.06985 -0.1651,-0.2921 v -0.593725 c 0,-0.04445 0.0127,-0.06032 0.0508,-0.06032 h 0.314325 c 0.04445,0 0.0762,-0.08255 0.0762,-0.1143 0,-0.03175 -0.0127,-0.07303 -0.0635,-0.07303 H 46.93924 c -0.04127,0 -0.06985,-0.01587 -0.06985,-0.04762 v -0.0889 c 0,-0.05397 -0.0063,-0.07937 -0.04445,-0.07937 -0.04127,0 -0.161925,0.12065 -0.206375,0.15875 -0.07937,0.06668 -0.212725,0.155575 -0.212725,0.200025 0,0.03175 0.07303,0.04445 0.1016,0.04445 0.117475,0 0.09843,0.01587 0.09843,0.04445 v 0.75565 c 0,0.269875 0.155575,0.36195 0.3429,0.36195 z"
         style="font-size:3.175px;stroke-width:0.264583"
         id="path1826" />
      <path
         d="m 48.377517,93.416132 v 0.600075 c 0,0.1397 -0.142875,0.244475 -0.3175,0.244475 -0.14605,0 -0.22225,-0.142875 -0.22225,-0.295275 v -0.8001 c 0,-0.06032 0,-0.08572 -0.0381,-0.08572 -0.03175,0 -0.1651,0.04127 -0.2921,0.0635 -0.04445,0.0063 -0.08573,0.03175 -0.08573,0.06667 0,0.03493 0.03175,0.06033 0.06668,0.07303 0.0762,0.02858 0.08572,0.104775 0.08572,0.15875 v 0.62865 c 0,0.18415 0.130175,0.38735 0.314325,0.38735 0.18415,0 0.28575,-0.02858 0.428625,-0.142875 0.04127,-0.03493 0.0508,-0.05397 0.0635,0.0032 0.0095,0.04445 0.0095,0.0889 0.01905,0.12065 0.0032,0.01588 0.01905,0.04445 0.04445,0.04445 0.04762,0 0.307975,-0.0762 0.365125,-0.104775 0.0254,-0.0127 0.05715,-0.0381 0.05715,-0.07937 0,-0.02223 -0.0254,-0.0508 -0.04127,-0.0508 -0.0254,0 -0.09208,0.01905 -0.13335,0.01905 -0.03175,0 -0.0508,-0.0095 -0.0508,-0.04127 v -1.06045 c 0,-0.06032 0,-0.08572 -0.0381,-0.08572 -0.03175,0 -0.2413,0.03493 -0.3556,0.0508 -0.04445,0.0063 -0.09208,0.04445 -0.09208,0.07937 0,0.03493 0.03493,0.05398 0.07303,0.06033 0.0889,0.0127 0.149225,0.05715 0.149225,0.14605 z"
         style="font-size:3.175px;stroke-width:0.264583"
         id="path1828" />
      <path
         d="m 49.336363,94.432132 c 0.0508,0 0.238125,0.01905 0.307975,0.01905 0.08255,0 0.10795,-0.03175 0.10795,-0.0635 0,-0.03175 -0.04445,-0.05715 -0.130175,-0.08255 -0.08572,-0.0254 -0.155575,-0.123825 -0.155575,-0.2032 l 0.0063,-0.619125 c 0,-0.08255 0.09208,-0.149225 0.1651,-0.149225 0.0635,0 0.15875,0.0889 0.206375,0.0889 0.01588,0 0.04127,-0.01905 0.0508,-0.02858 0.0508,-0.0508 0.09525,-0.13335 0.09525,-0.180975 0,-0.07303 -0.0508,-0.13335 -0.180975,-0.13335 -0.09525,0 -0.2286,0.06985 -0.2794,0.123825 -0.01587,0.01905 -0.0635,0.06668 -0.0635,0.01905 v -0.07937 c 0,-0.06033 0,-0.0889 -0.0381,-0.0889 -0.03175,0 -0.295275,0.104775 -0.3302,0.123825 -0.04127,0.01905 -0.09208,0.04445 -0.09208,0.07938 0,0.03492 0.03175,0.05397 0.06667,0.06667 0.0762,0.02858 0.130175,0.10795 0.130175,0.161925 v 0.61595 c 0,0.07937 -0.03493,0.1778 -0.12065,0.2032 -0.08573,0.0254 -0.123825,0.0508 -0.123825,0.08255 0,0.03175 0.0127,0.0635 0.09525,0.0635 0.06985,0 0.22225,-0.01905 0.282575,-0.01905 z"
         style="font-size:3.175px;stroke-width:0.264583"
         id="path1830" />
      <path
         d="m 50.371408,94.028907 c 0,-0.05398 0.04762,-0.117475 0.15875,-0.1524 l 0.1524,-0.06033 c 0.03493,-0.0127 0.07303,-0.0127 0.07303,0.02223 v 0.29845 c 0,0.0762 -0.10795,0.12065 -0.19685,0.12065 -0.1143,0 -0.187325,-0.07303 -0.187325,-0.2286 z m 0.23495,-0.949325 c -0.117475,0 -0.238125,0.07303 -0.34925,0.149225 -0.06668,0.04762 -0.12065,0.142875 -0.12065,0.2159 0,0.0254 0.0064,0.10795 0.0254,0.10795 0.03175,0 0.15875,-0.05397 0.1778,-0.06667 0.02857,-0.01905 0.03175,-0.04445 0.03175,-0.123825 0,-0.06667 0.07937,-0.09207 0.14605,-0.09207 0.111125,0 0.231775,0.08255 0.231775,0.193675 v 0.155575 c 0,0.03175 -0.01587,0.04762 -0.07302,0.07303 l -0.415925,0.174625 c -0.09525,0.04128 -0.17145,0.1397 -0.17145,0.29845 0,0.15875 0.15875,0.3048 0.314325,0.3048 0.123825,0 0.250825,-0.0635 0.32385,-0.136525 0.02222,-0.02223 0.0254,-0.0254 0.04763,0.0063 0.04127,0.05715 0.1143,0.130175 0.219075,0.130175 0.127,0 0.28575,-0.08255 0.28575,-0.19685 0,-0.03493 -0.0095,-0.06985 -0.02857,-0.06985 -0.02222,0 -0.06985,0.04127 -0.1143,0.04127 -0.05398,0 -0.1143,-0.0381 -0.1143,-0.0889 v -0.752475 c 0,-0.168275 -0.14605,-0.32385 -0.415925,-0.32385 z"
         style="font-size:3.175px;stroke-width:0.264583"
         id="path1832" />
      <path
         d="m 51.908103,94.470232 c 0.1905,0 0.36195,-0.155575 0.36195,-0.2286 0,-0.03175 -0.01587,-0.04445 -0.04762,-0.04445 -0.03175,0 -0.111125,0.05715 -0.2286,0.05715 -0.111125,0 -0.1651,-0.06985 -0.1651,-0.2921 v -0.593725 c 0,-0.04445 0.0127,-0.06032 0.0508,-0.06032 h 0.314325 c 0.04445,0 0.0762,-0.08255 0.0762,-0.1143 0,-0.03175 -0.0127,-0.07303 -0.0635,-0.07303 h -0.307975 c -0.04127,0 -0.06985,-0.01587 -0.06985,-0.04762 v -0.0889 c 0,-0.05397 -0.0063,-0.07937 -0.04445,-0.07937 -0.04127,0 -0.161925,0.12065 -0.206375,0.15875 -0.07937,0.06668 -0.212725,0.155575 -0.212725,0.200025 0,0.03175 0.07303,0.04445 0.1016,0.04445 0.117475,0 0.09842,0.01587 0.09842,0.04445 v 0.75565 c 0,0.269875 0.155575,0.36195 0.3429,0.36195 z"
         style="font-size:3.175px;stroke-width:0.264583"
         id="path1834" />
      <path
         d="m 52.7717,92.396957 c -0.09525,0 -0.174625,0.0762 -0.174625,0.17145 0,0.09843 0.0762,0.1778 0.174625,0.1778 0.09842,0 0.174625,-0.07937 0.174625,-0.1778 0,-0.09525 -0.07937,-0.17145 -0.174625,-0.17145 z m -0.1143,1.089025 v 0.61595 c 0,0.07937 -0.03493,0.1778 -0.12065,0.2032 -0.08572,0.0254 -0.1397,0.0508 -0.1397,0.08255 0,0.03175 0.02857,0.0635 0.111125,0.0635 0.06985,0 0.219075,-0.01905 0.282575,-0.01905 0.0508,0 0.20955,0.01905 0.2794,0.01905 0.08255,0 0.10795,-0.03175 0.10795,-0.0635 0,-0.03175 -0.0508,-0.05715 -0.136525,-0.08255 -0.08573,-0.0254 -0.12065,-0.123825 -0.12065,-0.2032 v -0.955675 c 0,-0.0635 0,-0.09208 -0.0381,-0.09208 -0.03175,0 -0.295275,0.104775 -0.3302,0.123825 -0.04127,0.01905 -0.09208,0.04445 -0.09208,0.07938 0,0.03492 0.03175,0.05397 0.06668,0.06667 0.0762,0.02858 0.130175,0.10795 0.130175,0.161925 z"
         style="font-size:3.175px;stroke-width:0.264583"
         id="path1836" />
      <path
         d="m 53.613072,93.692357 c 0,-0.2286 0.12065,-0.479425 0.34925,-0.479425 0.276225,0 0.422275,0.3048 0.422275,0.587375 0,0.23495 -0.09842,0.5207 -0.333375,0.5207 -0.295275,0 -0.43815,-0.3302 -0.43815,-0.62865 z m 0.371475,-0.612775 c -0.3429,0 -0.688975,0.301625 -0.688975,0.682625 0,0.377825 0.28575,0.708025 0.6731,0.708025 0.4064,0 0.73025,-0.346075 0.73025,-0.75565 0,-0.3683 -0.346075,-0.635 -0.714375,-0.635 z"
         style="font-size:3.175px;stroke-width:0.264583"
         id="path1838" />
      <path
         d="m 56.197519,94.095582 v -0.574675 c 0,-0.231775 -0.174625,-0.441325 -0.396875,-0.441325 -0.1651,0 -0.288925,0.0381 -0.3937,0.123825 -0.0254,0.02223 -0.0635,0.06668 -0.0635,0.01905 v -0.07937 c 0,-0.06033 0,-0.0889 -0.0381,-0.0889 -0.03175,0 -0.2921,0.104775 -0.3302,0.123825 -0.04127,0.01905 -0.09208,0.04445 -0.09208,0.07938 0,0.03492 0.03175,0.05397 0.06668,0.06667 0.0762,0.02858 0.130175,0.10795 0.130175,0.161925 v 0.61595 c 0,0.07937 -0.03492,0.1778 -0.12065,0.2032 -0.08572,0.0254 -0.123825,0.0508 -0.123825,0.08255 0,0.03175 0.0127,0.0635 0.09525,0.0635 0.06985,0 0.219075,-0.01905 0.282575,-0.01905 0.0508,0 0.161925,0.01905 0.231775,0.01905 0.08255,0 0.09207,-0.03175 0.09207,-0.0635 0,-0.03175 -0.03492,-0.05715 -0.12065,-0.08255 -0.06032,-0.01905 -0.07303,-0.123825 -0.07303,-0.2032 l 0.0032,-0.508 c 0,-0.2413 0.127,-0.34925 0.31115,-0.34925 0.1651,0 0.276225,0.18415 0.276225,0.371475 v 0.485775 c 0,0.07937 -0.01588,0.187325 -0.07303,0.2032 -0.08572,0.0254 -0.123825,0.0508 -0.123825,0.08255 0,0.03175 0.0127,0.0635 0.09525,0.0635 0.06985,0 0.17145,-0.01905 0.23495,-0.01905 0.0508,0 0.20955,0.01905 0.2794,0.01905 0.08255,0 0.08572,-0.03175 0.08572,-0.0635 0,-0.03175 -0.02857,-0.05715 -0.1143,-0.08255 -0.08572,-0.0254 -0.12065,-0.127 -0.12065,-0.20955 z"
         style="font-size:3.175px;stroke-width:0.264583"
         id="path1840" />
      <path
         d="m 57.797714,94.470232 c 0.31115,0 0.4953,-0.1524 0.4953,-0.244475 0,-0.03175 -0.01588,-0.04445 -0.04762,-0.04445 -0.03175,0 -0.187325,0.07303 -0.333375,0.07303 -0.269875,0 -0.3937,-0.29845 -0.3937,-0.57785 0,-0.20955 0.13335,-0.447675 0.32385,-0.447675 0.06668,0 0.10795,0.05715 0.161925,0.111125 0.06985,0.06985 0.149225,0.1143 0.206375,0.1143 0.07303,0 0.13335,-0.04763 0.13335,-0.123825 0,-0.04127 -0.04445,-0.09525 -0.104775,-0.14605 -0.0508,-0.04127 -0.149225,-0.104775 -0.371475,-0.104775 -0.365125,0 -0.64135,0.36195 -0.64135,0.746125 0,0.33655 0.231775,0.644525 0.5715,0.644525 z"
         style="font-size:3.175px;stroke-width:0.264583"
         id="path1842" />
      <path
         d="m 59.385209,93.416132 v 0.600075 c 0,0.1397 -0.142875,0.244475 -0.3175,0.244475 -0.14605,0 -0.22225,-0.142875 -0.22225,-0.295275 v -0.8001 c 0,-0.06032 0,-0.08572 -0.0381,-0.08572 -0.03175,0 -0.1651,0.04127 -0.2921,0.0635 -0.04445,0.0063 -0.08573,0.03175 -0.08573,0.06667 0,0.03493 0.03175,0.06033 0.06668,0.07303 0.0762,0.02858 0.08572,0.104775 0.08572,0.15875 v 0.62865 c 0,0.18415 0.130175,0.38735 0.314325,0.38735 0.18415,0 0.28575,-0.02858 0.428625,-0.142875 0.04128,-0.03493 0.0508,-0.05397 0.0635,0.0032 0.0095,0.04445 0.0095,0.0889 0.01905,0.12065 0.0032,0.01588 0.01905,0.04445 0.04445,0.04445 0.04763,0 0.307975,-0.0762 0.365125,-0.104775 0.0254,-0.0127 0.05715,-0.0381 0.05715,-0.07937 0,-0.02223 -0.0254,-0.0508 -0.04127,-0.0508 -0.0254,0 -0.09208,0.01905 -0.13335,0.01905 -0.03175,0 -0.0508,-0.0095 -0.0508,-0.04127 v -1.06045 c 0,-0.06032 0,-0.08572 -0.0381,-0.08572 -0.03175,0 -0.2413,0.03493 -0.3556,0.0508 -0.04445,0.0063 -0.09208,0.04445 -0.09208,0.07937 0,0.03493 0.03493,0.05398 0.07303,0.06033 0.0889,0.0127 0.149225,0.05715 0.149225,0.14605 z"
         style="font-size:3.175px;stroke-width:0.264583"
         id="path1844" />
      <path
         d="m 60.344055,94.432132 c 0.0508,0 0.238125,0.01905 0.307975,0.01905 0.08255,0 0.10795,-0.03175 0.10795,-0.0635 0,-0.03175 -0.04445,-0.05715 -0.130175,-0.08255 -0.08572,-0.0254 -0.155575,-0.123825 -0.155575,-0.2032 l 0.0064,-0.619125 c 0,-0.08255 0.09207,-0.149225 0.1651,-0.149225 0.0635,0 0.15875,0.0889 0.206375,0.0889 0.01588,0 0.04127,-0.01905 0.0508,-0.02858 0.0508,-0.0508 0.09525,-0.13335 0.09525,-0.180975 0,-0.07303 -0.0508,-0.13335 -0.180975,-0.13335 -0.09525,0 -0.2286,0.06985 -0.2794,0.123825 -0.01588,0.01905 -0.0635,0.06668 -0.0635,0.01905 v -0.07937 c 0,-0.06033 0,-0.0889 -0.0381,-0.0889 -0.03175,0 -0.295275,0.104775 -0.3302,0.123825 -0.04127,0.01905 -0.09208,0.04445 -0.09208,0.07938 0,0.03492 0.03175,0.05397 0.06668,0.06667 0.0762,0.02858 0.130175,0.10795 0.130175,0.161925 v 0.61595 c 0,0.07937 -0.03492,0.1778 -0.12065,0.2032 -0.08572,0.0254 -0.123825,0.0508 -0.123825,0.08255 0,0.03175 0.0127,0.0635 0.09525,0.0635 0.06985,0 0.22225,-0.01905 0.282575,-0.01905 z"
         style="font-size:3.175px;stroke-width:0.264583"
         id="path1846" />
      <path
         d="m 61.468,94.432132 c 0.0508,0 0.238125,0.01905 0.307975,0.01905 0.08255,0 0.10795,-0.03175 0.10795,-0.0635 0,-0.03175 -0.04445,-0.05715 -0.130175,-0.08255 -0.08572,-0.0254 -0.155575,-0.123825 -0.155575,-0.2032 l 0.0064,-0.619125 c 0,-0.08255 0.09207,-0.149225 0.1651,-0.149225 0.0635,0 0.15875,0.0889 0.206375,0.0889 0.01588,0 0.04127,-0.01905 0.0508,-0.02858 0.0508,-0.0508 0.09525,-0.13335 0.09525,-0.180975 0,-0.07303 -0.0508,-0.13335 -0.180975,-0.13335 -0.09525,0 -0.2286,0.06985 -0.2794,0.123825 -0.01588,0.01905 -0.0635,0.06668 -0.0635,0.01905 v -0.07937 c 0,-0.06033 0,-0.0889 -0.0381,-0.0889 -0.03175,0 -0.295275,0.104775 -0.3302,0.123825 -0.04127,0.01905 -0.09208,0.04445 -0.09208,0.07938 0,0.03492 0.03175,0.05397 0.06668,0.06667 0.0762,0.02858 0.130175,0.10795 0.130175,0.161925 v 0.61595 c 0,0.07937 -0.03493,0.1778 -0.12065,0.2032 -0.08572,0.0254 -0.123825,0.0508 -0.123825,0.08255 0,0.03175 0.0127,0.0635 0.09525,0.0635 0.06985,0 0.22225,-0.01905 0.282575,-0.01905 z"
         style="font-size:3.175px;stroke-width:0.264583"
         id="path1848" />
      <path
         d="m 62.544318,93.444707 c 0,-0.0635 0.130175,-0.219075 0.320675,-0.219075 0.09208,0 0.187325,0.0635 0.187325,0.155575 0,0.04445 -0.01588,0.09842 -0.04762,0.09842 h -0.4191 c -0.0381,0 -0.04128,-0.0127 -0.04128,-0.03493 z m 0.784225,-0.03492 c 0,-0.161925 -0.2032,-0.3302 -0.4191,-0.3302 -0.38735,0 -0.6858,0.29845 -0.6858,0.688975 0,0.358775 0.19685,0.701675 0.549275,0.701675 0.31115,0 0.4953,-0.1524 0.4953,-0.244475 0,-0.03175 -0.01587,-0.04445 -0.04762,-0.04445 -0.03175,0 -0.17145,0.07303 -0.3302,0.07303 -0.250825,0 -0.40005,-0.26035 -0.40005,-0.50165 0,-0.05397 0,-0.06032 0.0127,-0.09525 0.0095,-0.0254 0.01588,-0.03175 0.06032,-0.03175 h 0.669925 c 0.08255,0 0.09525,-0.130175 0.09525,-0.2159 z"
         style="font-size:3.175px;stroke-width:0.264583"
         id="path1850" />
      <path
         d="m 64.817614,94.095582 v -0.574675 c 0,-0.231775 -0.174625,-0.441325 -0.396875,-0.441325 -0.1651,0 -0.288925,0.0381 -0.3937,0.123825 -0.0254,0.02223 -0.0635,0.06668 -0.0635,0.01905 v -0.07937 c 0,-0.06033 0,-0.0889 -0.0381,-0.0889 -0.03175,0 -0.2921,0.104775 -0.3302,0.123825 -0.04127,0.01905 -0.09208,0.04445 -0.09208,0.07938 0,0.03492 0.03175,0.05397 0.06668,0.06667 0.0762,0.02858 0.130175,0.10795 0.130175,0.161925 v 0.61595 c 0,0.07937 -0.03493,0.1778 -0.12065,0.2032 -0.08572,0.0254 -0.123825,0.0508 -0.123825,0.08255 0,0.03175 0.0127,0.0635 0.09525,0.0635 0.06985,0 0.219075,-0.01905 0.282575,-0.01905 0.0508,0 0.161925,0.01905 0.231775,0.01905 0.08255,0 0.09207,-0.03175 0.09207,-0.0635 0,-0.03175 -0.03493,-0.05715 -0.12065,-0.08255 -0.06032,-0.01905 -0.07303,-0.123825 -0.07303,-0.2032 l 0.0032,-0.508 c 0,-0.2413 0.127,-0.34925 0.31115,-0.34925 0.1651,0 0.276225,0.18415 0.276225,0.371475 v 0.485775 c 0,0.07937 -0.01588,0.187325 -0.07303,0.2032 -0.08572,0.0254 -0.123825,0.0508 -0.123825,0.08255 0,0.03175 0.0127,0.0635 0.09525,0.0635 0.06985,0 0.17145,-0.01905 0.23495,-0.01905 0.0508,0 0.20955,0.01905 0.2794,0.01905 0.08255,0 0.08573,-0.03175 0.08573,-0.0635 0,-0.03175 -0.02858,-0.05715 -0.1143,-0.08255 -0.08573,-0.0254 -0.12065,-0.127 -0.12065,-0.20955 z"
         style="font-size:3.175px;stroke-width:0.264583"
         id="path1852" />
      <path
         d="m 65.706612,94.470232 c 0.1905,0 0.36195,-0.155575 0.36195,-0.2286 0,-0.03175 -0.01587,-0.04445 -0.04762,-0.04445 -0.03175,0 -0.111125,0.05715 -0.2286,0.05715 -0.111125,0 -0.1651,-0.06985 -0.1651,-0.2921 v -0.593725 c 0,-0.04445 0.0127,-0.06032 0.0508,-0.06032 h 0.314325 c 0.04445,0 0.0762,-0.08255 0.0762,-0.1143 0,-0.03175 -0.0127,-0.07303 -0.0635,-0.07303 h -0.307975 c -0.04127,0 -0.06985,-0.01587 -0.06985,-0.04762 v -0.0889 c 0,-0.05397 -0.0063,-0.07937 -0.04445,-0.07937 -0.04127,0 -0.161925,0.12065 -0.206375,0.15875 -0.07937,0.06668 -0.212725,0.155575 -0.212725,0.200025 0,0.03175 0.07303,0.04445 0.1016,0.04445 0.117475,0 0.09843,0.01587 0.09843,0.04445 v 0.75565 c 0,0.269875 0.155575,0.36195 0.3429,0.36195 z"
         style="font-size:3.175px;stroke-width:0.264583"
         id="path1854" />
    </g>
    <g
       aria-label="collector voltage Vc"
       id="text5568-3"
       style="font-size:3.88056px;line-height:0.9;font-family:'EB Garamond';-inkscape-font-specification:'EB Garamond, Normal';text-align:end;text-decoration:none;text-decoration-line:none;text-decoration-color:#000000;letter-spacing:0px;word-spacing:0px;text-anchor:end;fill:#333333;stroke-width:0.264583;stop-color:#000000">
      <path
         d="m 63.586296,121.81751 c 0.380295,0 0.605368,-0.18627 0.605368,-0.29881 0,-0.0388 -0.0194,-0.0543 -0.05821,-0.0543 -0.0388,0 -0.228953,0.0893 -0.407459,0.0893 -0.329847,0 -0.481189,-0.36478 -0.481189,-0.70626 0,-0.25612 0.162984,-0.54716 0.395817,-0.54716 0.08149,0 0.131939,0.0698 0.197909,0.13582 0.08537,0.0854 0.182386,0.1397 0.252236,0.1397 0.08925,0 0.162984,-0.0582 0.162984,-0.15135 0,-0.0504 -0.05433,-0.11641 -0.128059,-0.1785 -0.06209,-0.0504 -0.182386,-0.12806 -0.454025,-0.12806 -0.446265,0 -0.783873,0.44238 -0.783873,0.91193 0,0.41134 0.28328,0.78776 0.6985,0.78776 z"
         style="font-size:3.88056px;stroke-width:0.264583"
         id="path1857" />
      <path
         d="m 64.793144,120.86677 c 0,-0.2794 0.147461,-0.58597 0.426861,-0.58597 0.337609,0 0.516115,0.37254 0.516115,0.71791 0,0.28716 -0.120297,0.63641 -0.407459,0.63641 -0.360892,0 -0.535517,-0.40358 -0.535517,-0.76835 z m 0.454025,-0.74895 c -0.4191,0 -0.842081,0.36865 -0.842081,0.83432 0,0.46179 0.34925,0.86537 0.822679,0.86537 0.496711,0 0.892528,-0.42299 0.892528,-0.92358 0,-0.45014 -0.422981,-0.77611 -0.873126,-0.77611 z"
         style="font-size:3.88056px;stroke-width:0.264583"
         id="path1859" />
      <path
         d="m 66.585961,119.58618 v 1.78118 c 0,0.097 -0.04269,0.21731 -0.147462,0.24836 -0.104775,0.031 -0.170744,0.0621 -0.170744,0.10089 0,0.0388 0.03493,0.0776 0.135819,0.0776 0.08537,0 0.267759,-0.0233 0.34537,-0.0233 0.06209,0 0.256117,0.0233 0.341489,0.0233 0.100895,0 0.131939,-0.0388 0.131939,-0.0776 0,-0.0388 -0.06209,-0.0699 -0.166864,-0.10089 -0.104775,-0.031 -0.147461,-0.15135 -0.147461,-0.24836 v -2.11879 c 0,-0.0737 0,-0.10477 -0.04657,-0.10477 -0.0388,0 -0.248356,0.066 -0.403578,0.0931 -0.05433,0.008 -0.112536,0.0388 -0.112536,0.0815 0,0.0427 0.04657,0.0737 0.08925,0.0893 0.09313,0.0349 0.151342,0.11253 0.151342,0.1785 z"
         style="font-size:3.88056px;stroke-width:0.264583"
         id="path1861" />
      <path
         d="m 67.656992,119.58618 v 1.78118 c 0,0.097 -0.04269,0.21731 -0.147462,0.24836 -0.104775,0.031 -0.170744,0.0621 -0.170744,0.10089 0,0.0388 0.03493,0.0776 0.135819,0.0776 0.08537,0 0.267759,-0.0233 0.34537,-0.0233 0.06209,0 0.256117,0.0233 0.341489,0.0233 0.100895,0 0.131939,-0.0388 0.131939,-0.0776 0,-0.0388 -0.06209,-0.0699 -0.166864,-0.10089 -0.104775,-0.031 -0.147461,-0.15135 -0.147461,-0.24836 v -2.11879 c 0,-0.0737 0,-0.10477 -0.04657,-0.10477 -0.03881,0 -0.248355,0.066 -0.403578,0.0931 -0.05433,0.008 -0.112536,0.0388 -0.112536,0.0815 0,0.0427 0.04657,0.0737 0.08925,0.0893 0.09313,0.0349 0.151342,0.11253 0.151342,0.1785 z"
         style="font-size:3.88056px;stroke-width:0.264583"
         id="path1863" />
      <path
         d="m 68.832798,120.56408 c 0,-0.0776 0.159103,-0.26775 0.391936,-0.26775 0.112537,0 0.228953,0.0776 0.228953,0.19014 0,0.0543 -0.0194,0.1203 -0.05821,0.1203 h -0.512234 c -0.04657,0 -0.05045,-0.0155 -0.05045,-0.0427 z m 0.958498,-0.0427 c 0,-0.19791 -0.248356,-0.40358 -0.512234,-0.40358 -0.473428,0 -0.838201,0.36477 -0.838201,0.84208 0,0.4385 0.240595,0.85761 0.671337,0.85761 0.380295,0 0.605368,-0.18627 0.605368,-0.29881 0,-0.0388 -0.0194,-0.0543 -0.05821,-0.0543 -0.0388,0 -0.20955,0.0893 -0.403578,0.0893 -0.306564,0 -0.488951,-0.31821 -0.488951,-0.61313 0,-0.066 0,-0.0737 0.01552,-0.11642 0.01164,-0.031 0.0194,-0.0388 0.07373,-0.0388 h 0.818798 c 0.100895,0 0.116417,-0.15911 0.116417,-0.26388 z"
         style="font-size:3.88056px;stroke-width:0.264583"
         id="path1865" />
      <path
         d="m 70.656657,121.81751 c 0.380294,0 0.605367,-0.18627 0.605367,-0.29881 0,-0.0388 -0.0194,-0.0543 -0.05821,-0.0543 -0.03881,0 -0.228953,0.0893 -0.407458,0.0893 -0.329848,0 -0.48119,-0.36478 -0.48119,-0.70626 0,-0.25612 0.162984,-0.54716 0.395817,-0.54716 0.08149,0 0.131939,0.0698 0.197909,0.13582 0.08537,0.0854 0.182386,0.1397 0.252236,0.1397 0.08925,0 0.162984,-0.0582 0.162984,-0.15135 0,-0.0504 -0.05433,-0.11641 -0.128059,-0.1785 -0.06209,-0.0504 -0.182386,-0.12806 -0.454025,-0.12806 -0.446265,0 -0.783873,0.44238 -0.783873,0.91193 0,0.41134 0.283281,0.78776 0.698501,0.78776 z"
         style="font-size:3.88056px;stroke-width:0.264583"
         id="path1867" />
      <path
         d="m 72.11186,121.81751 c 0.232833,0 0.442383,-0.19015 0.442383,-0.2794 0,-0.0388 -0.0194,-0.0543 -0.05821,-0.0543 -0.03881,0 -0.13582,0.0699 -0.2794,0.0699 -0.13582,0 -0.201789,-0.0854 -0.201789,-0.35701 v -0.72567 c 0,-0.0543 0.01552,-0.0737 0.06209,-0.0737 h 0.384176 c 0.05433,0 0.09313,-0.10089 0.09313,-0.1397 0,-0.0388 -0.01552,-0.0892 -0.07761,-0.0892 h -0.376414 c -0.05045,0 -0.08537,-0.0194 -0.08537,-0.0582 v -0.10866 c 0,-0.066 -0.0078,-0.097 -0.05433,-0.097 -0.05045,0 -0.197909,0.14746 -0.252237,0.19403 -0.09701,0.0815 -0.259997,0.19014 -0.259997,0.24447 0,0.0388 0.08925,0.0543 0.124178,0.0543 0.14358,0 0.120297,0.0194 0.120297,0.0543 v 0.92357 c 0,0.32985 0.190147,0.44239 0.419101,0.44239 z"
         style="font-size:3.88056px;stroke-width:0.264583"
         id="path1869" />
      <path
         d="m 73.124682,120.86677 c 0,-0.2794 0.147461,-0.58597 0.426861,-0.58597 0.337609,0 0.516115,0.37254 0.516115,0.71791 0,0.28716 -0.120298,0.63641 -0.407459,0.63641 -0.360892,0 -0.535517,-0.40358 -0.535517,-0.76835 z m 0.454025,-0.74895 c -0.4191,0 -0.842081,0.36865 -0.842081,0.83432 0,0.46179 0.34925,0.86537 0.822678,0.86537 0.496712,0 0.892529,-0.42299 0.892529,-0.92358 0,-0.45014 -0.422981,-0.77611 -0.873126,-0.77611 z"
         style="font-size:3.88056px;stroke-width:0.264583"
         id="path1871" />
      <path
         d="m 75.080482,121.77094 c 0.06209,0 0.291042,0.0233 0.376414,0.0233 0.100895,0 0.131939,-0.0388 0.131939,-0.0776 0,-0.0388 -0.05433,-0.0699 -0.159103,-0.10089 -0.104775,-0.031 -0.190147,-0.15135 -0.190147,-0.24836 l 0.0078,-0.75671 c 0,-0.10089 0.112536,-0.18239 0.201789,-0.18239 0.07761,0 0.194028,0.10866 0.252236,0.10866 0.0194,0 0.05045,-0.0233 0.06209,-0.0349 0.06209,-0.0621 0.116417,-0.16299 0.116417,-0.2212 0,-0.0892 -0.06209,-0.16298 -0.221192,-0.16298 -0.116417,0 -0.2794,0.0854 -0.341489,0.15134 -0.0194,0.0233 -0.07761,0.0815 -0.07761,0.0233 v -0.097 c 0,-0.0737 0,-0.10865 -0.04657,-0.10865 -0.03881,0 -0.360892,0.12805 -0.403578,0.15134 -0.05045,0.0233 -0.112536,0.0543 -0.112536,0.097 0,0.0427 0.03881,0.066 0.08149,0.0815 0.09313,0.0349 0.159103,0.13194 0.159103,0.19791 v 0.75283 c 0,0.097 -0.04269,0.21731 -0.147461,0.24836 -0.104775,0.031 -0.151342,0.0621 -0.151342,0.10089 0,0.0388 0.01552,0.0776 0.116417,0.0776 0.08537,0 0.271639,-0.0233 0.34537,-0.0233 z"
         style="font-size:3.88056px;stroke-width:0.264583"
         id="path1873" />
      <path
         d="m 62.462816,123.80435 c 0.02328,0.004 0.06597,0.0311 0.06597,0.0699 0,0.0272 -0.0078,0.0815 -0.03881,0.1591 l -0.2794,0.70627 c -0.01164,0.031 -0.02716,0.0388 -0.03881,0 L 61.85356,123.9053 c -0.01552,-0.0388 0,-0.0893 0.0194,-0.0931 0.08537,-0.0272 0.131939,-0.0582 0.131939,-0.097 0,-0.0388 -0.03493,-0.0776 -0.09701,-0.0776 -0.05821,0 -0.221192,0.0233 -0.2794,0.0233 -0.05821,0 -0.190147,-0.0233 -0.248356,-0.0233 -0.06209,0 -0.09313,0.0388 -0.09313,0.0776 0,0.0388 0.06985,0.0698 0.128058,0.0892 0.05821,0.0194 0.112536,0.14358 0.151342,0.24448 l 0.430742,1.12924 c 0.02328,0.066 0.05821,0.15522 0.09701,0.15522 0.06985,0 0.178506,-0.36865 0.244475,-0.53163 l 0.306565,-0.77612 c 0.05433,-0.13582 0.124178,-0.20567 0.166864,-0.22119 0.05821,-0.0194 0.131939,-0.0504 0.131939,-0.0892 0,-0.0388 -0.03104,-0.0776 -0.09313,-0.0776 -0.05821,0 -0.128058,0.0233 -0.186267,0.0233 -0.05821,0 -0.155222,-0.0233 -0.21343,-0.0233 -0.06209,0 -0.09701,0.0388 -0.09701,0.0776 0,0.0388 0.05045,0.0776 0.108655,0.0892 z"
         style="font-size:3.88056px;stroke-width:0.264583"
         id="path1875" />
      <path
         d="m 63.374743,124.35927 c 0,-0.2794 0.147461,-0.58596 0.426862,-0.58596 0.337608,0 0.516114,0.37253 0.516114,0.7179 0,0.28716 -0.120297,0.63641 -0.407459,0.63641 -0.360892,0 -0.535517,-0.40358 -0.535517,-0.76835 z m 0.454025,-0.74895 c -0.4191,0 -0.842081,0.36866 -0.842081,0.83432 0,0.46179 0.34925,0.86537 0.822679,0.86537 0.496711,0 0.892528,-0.42298 0.892528,-0.92357 0,-0.45015 -0.422981,-0.77612 -0.873126,-0.77612 z"
         style="font-size:3.88056px;stroke-width:0.264583"
         id="path1877" />
      <path
         d="m 65.16756,123.07869 v 1.78117 c 0,0.097 -0.04269,0.21732 -0.147462,0.24836 -0.104775,0.031 -0.170744,0.0621 -0.170744,0.10089 0,0.0388 0.03493,0.0776 0.135819,0.0776 0.08537,0 0.267759,-0.0233 0.34537,-0.0233 0.06209,0 0.256117,0.0233 0.34149,0.0233 0.100894,0 0.131939,-0.0388 0.131939,-0.0776 0,-0.0388 -0.06209,-0.0699 -0.166864,-0.10089 -0.104776,-0.031 -0.147462,-0.15134 -0.147462,-0.24836 v -2.11878 c 0,-0.0737 0,-0.10478 -0.04657,-0.10478 -0.03881,0 -0.248356,0.066 -0.403579,0.0931 -0.05433,0.008 -0.112536,0.0388 -0.112536,0.0815 0,0.0427 0.04657,0.0737 0.08925,0.0893 0.09313,0.0349 0.151342,0.11254 0.151342,0.17851 z"
         style="font-size:3.88056px;stroke-width:0.264583"
         id="path1879" />
      <path
         d="m 66.583961,125.31001 c 0.232833,0 0.442384,-0.19015 0.442384,-0.2794 0,-0.0388 -0.0194,-0.0543 -0.05821,-0.0543 -0.0388,0 -0.135819,0.0699 -0.2794,0.0699 -0.13582,0 -0.201789,-0.0854 -0.201789,-0.35701 v -0.72567 c 0,-0.0543 0.01552,-0.0737 0.06209,-0.0737 h 0.384175 c 0.05433,0 0.09313,-0.10089 0.09313,-0.1397 0,-0.0388 -0.01552,-0.0893 -0.07761,-0.0893 h -0.376414 c -0.05045,0 -0.08537,-0.0194 -0.08537,-0.0582 v -0.10865 c 0,-0.066 -0.0078,-0.097 -0.05433,-0.097 -0.05045,0 -0.197909,0.14746 -0.252237,0.19403 -0.09701,0.0815 -0.259997,0.19015 -0.259997,0.24448 0,0.0388 0.08925,0.0543 0.124178,0.0543 0.143581,0 0.120297,0.0194 0.120297,0.0543 v 0.92358 c 0,0.32984 0.190148,0.44238 0.419101,0.44238 z"
         style="font-size:3.88056px;stroke-width:0.264583"
         id="path1881" />
      <path
         d="m 67.554096,124.77061 c 0,-0.066 0.05821,-0.14358 0.194028,-0.18627 l 0.186267,-0.0737 c 0.04269,-0.0155 0.08925,-0.0155 0.08925,0.0272 v 0.36477 c 0,0.0931 -0.131939,0.14746 -0.240595,0.14746 -0.1397,0 -0.228953,-0.0893 -0.228953,-0.2794 z m 0.287162,-1.16029 c -0.143581,0 -0.291042,0.0893 -0.426862,0.18239 -0.08149,0.0582 -0.147461,0.17463 -0.147461,0.26388 0,0.031 0.0078,0.13194 0.03104,0.13194 0.03881,0 0.194028,-0.066 0.217312,-0.0815 0.03493,-0.0233 0.0388,-0.0543 0.0388,-0.15135 0,-0.0815 0.09701,-0.11253 0.178506,-0.11253 0.13582,0 0.283281,0.10089 0.283281,0.23671 v 0.19015 c 0,0.0388 -0.0194,0.0582 -0.08925,0.0892 l -0.508353,0.21343 c -0.116417,0.0504 -0.209551,0.17075 -0.209551,0.36478 0,0.19402 0.194028,0.37253 0.384176,0.37253 0.151342,0 0.306564,-0.0776 0.395817,-0.16686 0.02716,-0.0272 0.03104,-0.0311 0.05821,0.008 0.05045,0.0699 0.1397,0.1591 0.267759,0.1591 0.155222,0 0.34925,-0.1009 0.34925,-0.2406 0,-0.0427 -0.01164,-0.0854 -0.03493,-0.0854 -0.02716,0 -0.08537,0.0505 -0.1397,0.0505 -0.06597,0 -0.1397,-0.0466 -0.1397,-0.10866 v -0.91969 c 0,-0.20567 -0.178506,-0.39582 -0.508353,-0.39582 z"
         style="font-size:3.88056px;stroke-width:0.264583"
         id="path1883" />
      <path
         d="m 69.024822,125.78732 c 0,-0.0854 0.04657,-0.17851 0.143581,-0.26776 0.08537,-0.0776 0.159103,-0.11254 0.259998,-0.11254 0.391936,0 0.593725,0.0699 0.593725,0.32209 0,0.24447 -0.228953,0.38806 -0.512234,0.38806 -0.228953,0 -0.48507,-0.0893 -0.48507,-0.32985 z m 0.147462,-1.62984 c 0,-0.1785 0.08149,-0.38417 0.259997,-0.38417 0.213431,0 0.368653,0.19014 0.368653,0.39581 0,0.22896 -0.09313,0.47731 -0.310444,0.47731 -0.225073,0 -0.318206,-0.26387 -0.318206,-0.48895 z m 0.318206,-0.54716 c -0.349251,0 -0.659696,0.26 -0.659696,0.60925 0,0.22895 0.139701,0.41134 0.314326,0.51224 0.02716,0.0155 0.01164,0.0349 0,0.0504 -0.06209,0.0931 -0.201789,0.20955 -0.259998,0.26 -0.03104,0.0272 -0.05433,0.0543 -0.05433,0.0893 0,0.12806 0.09313,0.17851 0.221192,0.23672 0.03881,0.0194 0.04269,0.0388 0.02328,0.0504 -0.186267,0.11642 -0.372534,0.29493 -0.372534,0.48119 0,0.30269 0.27552,0.43463 0.632531,0.43463 0.504473,0 0.985662,-0.32209 0.985662,-0.82656 0,-0.21343 -0.221192,-0.35701 -0.391936,-0.36477 l -0.465667,-0.0155 c -0.186267,-0.004 -0.291042,-0.0466 -0.291042,-0.10089 0,-0.0621 0.07373,-0.1591 0.131939,-0.20955 0.0194,-0.0155 0.04657,-0.0194 0.05045,-0.0194 0.0194,0 0.05433,0.0116 0.09701,0.0116 0.34925,0 0.651934,-0.34149 0.651934,-0.62477 0,-0.0272 -0.0194,-0.1397 -0.03104,-0.17075 -0.0078,-0.0233 0.0078,-0.0427 0.03493,-0.0427 0.03493,0 0.21343,0.0194 0.263878,0.0194 0.100894,0 0.1397,-0.0505 0.1397,-0.1203 0,-0.0543 -0.03105,-0.13582 -0.108656,-0.13582 l -0.403578,0.008 c -0.03881,0 -0.09701,-0.0349 -0.159103,-0.066 -0.05821,-0.031 -0.143581,-0.066 -0.34925,-0.066 z"
         style="font-size:3.88056px;stroke-width:0.264583"
         id="path1885" />
      <path
         d="m 71.050467,124.05659 c 0,-0.0776 0.159103,-0.26776 0.391937,-0.26776 0.112536,0 0.228953,0.0776 0.228953,0.19015 0,0.0543 -0.0194,0.12029 -0.05821,0.12029 h -0.512234 c -0.04657,0 -0.05045,-0.0155 -0.05045,-0.0427 z m 0.958499,-0.0427 c 0,-0.19791 -0.248356,-0.40358 -0.512234,-0.40358 -0.473429,0 -0.838201,0.36478 -0.838201,0.84209 0,0.4385 0.240594,0.8576 0.671337,0.8576 0.380295,0 0.605367,-0.18627 0.605367,-0.2988 0,-0.0388 -0.0194,-0.0543 -0.05821,-0.0543 -0.03881,0 -0.209551,0.0893 -0.403579,0.0893 -0.306564,0 -0.48895,-0.3182 -0.48895,-0.61313 0,-0.066 0,-0.0737 0.01552,-0.11641 0.01164,-0.0311 0.0194,-0.0388 0.07373,-0.0388 h 0.818798 c 0.100894,0 0.116417,-0.1591 0.116417,-0.26388 z"
         style="font-size:3.88056px;stroke-width:0.264583"
         id="path1887" />
      <path
         d="m 73.83282,124.60375 c -0.08925,0.10477 -0.1397,0.13194 -0.120297,0 l 0.162983,-1.13313 c 0.02716,-0.19014 0.06597,-0.30656 0.194028,-0.36477 0.08925,-0.0388 0.213431,-0.0466 0.213431,-0.10477 0,-0.0388 -0.06597,-0.066 -0.128058,-0.066 -0.05821,0 -0.170745,0.0194 -0.353131,0.0194 -0.186267,0 -0.422981,-0.0194 -0.469548,-0.0194 -0.06209,0 -0.120297,0.0272 -0.120297,0.066 0,0.0582 0.08149,0.0699 0.186266,0.10865 0.08925,0.0311 0.131939,0.18627 0.108656,0.36089 l -0.236714,1.71521 c -0.01164,0.0854 0.0194,0.15522 0.07373,0.15522 0.190147,0 0.403578,-0.36089 0.465667,-0.43462 l 1.241779,-1.42416 c 0.20567,-0.23284 0.395817,-0.34537 0.535517,-0.36478 0.112536,-0.0155 0.213431,-0.0582 0.213431,-0.11641 0,-0.0388 -0.06597,-0.066 -0.128058,-0.066 -0.05821,0 -0.162984,0.0194 -0.34537,0.0194 -0.186267,0 -0.430742,-0.0194 -0.477309,-0.0194 -0.06209,0 -0.120298,0.0272 -0.120298,0.066 0,0.0582 0.06209,0.0854 0.186267,0.12805 0.08537,0.0349 0.06985,0.14359 -0.01552,0.2406 z"
         style="font-style:italic"
         id="path1889" />
      <path
         d="m 75.24805,126.05554 c 0.345723,0 0.550334,-0.16933 0.550334,-0.27164 0,-0.0353 -0.01764,-0.0494 -0.05292,-0.0494 -0.03528,0 -0.208139,0.0811 -0.370417,0.0811 -0.299861,0 -0.437444,-0.33161 -0.437444,-0.64205 0,-0.23284 0.148166,-0.49742 0.359833,-0.49742 0.07408,0 0.119945,0.0635 0.179917,0.12347 0.07761,0.0776 0.165806,0.127 0.229306,0.127 0.08114,0 0.148167,-0.0529 0.148167,-0.13758 0,-0.0459 -0.04939,-0.10583 -0.116417,-0.16228 -0.05644,-0.0459 -0.165806,-0.11642 -0.41275,-0.11642 -0.405695,0 -0.712612,0.40217 -0.712612,0.82903 0,0.37395 0.257528,0.71614 0.635,0.71614 z"
         style="font-size:3.52778px"
         id="path1891" />
    </g>
    <g
       aria-label="0"
       id="text5596-2"
       style="font-size:4.93889px;line-height:1.25;font-family:'EB Garamond';-inkscape-font-specification:'EB Garamond, Normal';text-align:end;text-decoration:none;text-decoration-line:none;text-decoration-color:#000000;letter-spacing:0px;word-spacing:0px;text-anchor:end;fill:#333333;stroke-width:0.264583;stop-color:#000000">
      <path
         d="m 42.914482,120.74215 c 0,-0.57291 0.330906,-1.29893 0.721078,-1.29893 0.227189,0 0.316089,0.25682 0.316089,0.48401 0,0.54328 -0.192617,1.17546 -0.726017,1.17546 -0.187677,0 -0.31115,-0.17286 -0.31115,-0.36054 z m 0.745773,-1.58539 c -0.66675,0 -1.140884,0.82974 -1.140884,1.52118 0,0.3803 0.291395,0.70132 0.671689,0.70132 0.6223,0 1.1557,-0.72601 1.1557,-1.35819 0,-0.43462 -0.256822,-0.86431 -0.686505,-0.86431 z"
         style="font-style:italic;font-size:4.93889px;stroke-width:0.264583"
         id="path1894" />
    </g>
  </g>
  <g
     inkscape:label="photons and electrons"
     inkscape:groupmode="layer"
     id="layer1"
     transform="translate(-51.044443,-57.344183)"
     style="display:inline">
    <path
       style="font-variation-settings:normal;opacity:1;vector-effect:none;fill:none;fill-opacity:1;stroke:#000000;stroke-width:0.15;stroke-linecap:butt;stroke-linejoin:miter;stroke-miterlimit:4;stroke-dasharray:none;stroke-dashoffset:0;stroke-opacity:1;marker-end:url(#marker3959-2-0);stop-color:#000000;stop-opacity:1"
       d="m 75.537338,103.66449 c 1.58408,-4.758654 1.6204,-3.21386 2.51505,-0.73261"
       id="path3801-3"
       sodipodi:nodetypes="cc" />
    <path
       style="font-variation-settings:normal;opacity:1;vector-effect:none;fill:none;fill-opacity:1;stroke:#000000;stroke-width:0.15;stroke-linecap:butt;stroke-linejoin:miter;stroke-miterlimit:4;stroke-dasharray:none;stroke-dashoffset:0;stroke-opacity:1;marker-end:url(#marker4180);stop-color:#000000;stop-opacity:1"
       d="m 71.334117,99.882403 c -1.46842,-5.135384 -1.70442,-3.881427 -2.556827,-2.102757 -0.11869,0.24766 -0.045,0.0744 -0.3615,0.77551"
       id="path4176"
       sodipodi:nodetypes="csc" />
    <use
       x="0"
       y="0"
       xlink:href="#use3373"
       id="use4272"
       transform="translate(1.2927309,0.59191349)"
       width="100%"
       height="100%"
       style="opacity:0.33" />
    <path
       sodipodi:nodetypes="csc"
       id="path3801"
       d="m 77.628281,109.43766 c 1.468417,-5.13539 1.704417,-3.88143 2.556827,-2.10276 0.11869,0.24766 0.045,0.0744 0.3615,0.77551"
       style="font-variation-settings:normal;opacity:1;vector-effect:none;fill:none;fill-opacity:1;stroke:#000000;stroke-width:0.15;stroke-linecap:butt;stroke-linejoin:miter;stroke-miterlimit:4;stroke-dasharray:none;stroke-dashoffset:0;stroke-opacity:1;marker-end:url(#marker3959-2);stop-color:#000000;stop-opacity:1" />
    <use
       x="0"
       y="0"
       xlink:href="#use3377"
       id="use4098"
       transform="translate(-1.258777,0.82470143)"
       width="100%"
       height="100%"
       style="opacity:0.33" />
    <g
       id="g3329">
      <path
         inkscape:transform-center-y="-10.358544"
         inkscape:transform-center-x="9.280841"
         sodipodi:nodetypes="cscccccscccccsscsccccccccscc"
         style="opacity:1;fill:none;stroke:#000080;stroke-width:0.365001;stroke-miterlimit:4;stroke-dasharray:none;marker-end:url(#marker2181);paint-order:fill markers stroke;stop-color:#000000"
         d="m 99.840859,91.611622 c 0.116852,0.319767 0.283271,0.595167 0.677941,0.666273 0.39465,0.07112 0.57083,0.337779 0.51675,0.810536 -0.0541,0.472793 0.30557,0.575204 0.85024,0.512031 0.54471,-0.06315 0.46304,0.434275 0.2869,1.016316 -0.17621,0.582053 0.49379,0.406698 1.12693,0.264396 0.63312,-0.142337 0.20313,0.66685 -0.0237,1.294242 -0.22687,0.627384 0.81321,0.120856 1.45683,-0.03088 0.64361,-0.151734 -0.16079,0.992627 -0.3575,1.593029 -0.19667,0.600414 1.20469,-0.229532 1.77893,-0.319174 0.57428,-0.08961 -0.56149,1.351279 -0.65278,1.857377 -0.0914,0.506109 1.59586,-0.579705 2.0337,-0.547201 0.43784,0.03245 -0.9249,1.676493 -0.85512,2.038433 0.0697,0.36191 1.91451,-0.864843 2.17408,-0.67285 0.25953,0.19205 -1.18382,1.90829 -0.92701,2.10276 0.25687,0.19449 2.10167,-1.03236 2.17409,-0.67284 0.0725,0.35952 -1.29043,2.0037 -0.8551,2.03846 0.43526,0.0347 2.12267,-1.05123 2.03373,-0.54723 -0.089,0.50399 -1.22502,1.9451 -0.65285,1.85738 0.57214,-0.0878 1.97381,-0.91792 1.77894,-0.31919 -0.1949,0.59878 -0.9996,1.7434 -0.35749,1.59304 0.64212,-0.15035 1.68248,-0.65719 1.45682,-0.0309 -0.2256,0.62632 -0.65588,1.43577 -0.0236,1.29428 0.63221,-0.14153 1.30251,-0.31713 1.12695,0.26439 -0.1756,0.58149 -0.25751,1.07913 0.28688,1.01628 0.54431,-0.0629 0.90423,0.0394 0.85023,0.51204 -0.054,0.47266 0.12206,0.73948 0.51677,0.81052 0.23026,0.10898 0.44856,0.41 1.03495,1.06515"
         title="t/2/pi sin(t/2)*sin(15*t)"
         id="path2642" />
      <use
         height="100%"
         width="100%"
         transform="translate(-2.6458334)"
         id="use2864"
         inkscape:transform-center-y="-10.358544"
         inkscape:transform-center-x="9.280841"
         xlink:href="#path2642"
         y="0"
         x="0" />
      <use
         height="100%"
         width="100%"
         transform="translate(-5.2916669)"
         id="use2872"
         inkscape:transform-center-y="-10.358544"
         inkscape:transform-center-x="9.280841"
         xlink:href="#path2642"
         y="0"
         x="0" />
    </g>
    <circle
       r="0.62500006"
       style="fill:url(#radialGradient859);fill-opacity:1;stroke:#ff6600;stroke-width:0.0499999;stroke-miterlimit:4;stroke-dasharray:none;paint-order:fill markers stroke;stop-color:#000000"
       id="use855"
       cx="104.43274"
       cy="56.052086"
       inkscape:tile-cx="64.558333"
       inkscape:tile-cy="149.75416"
       inkscape:tile-w="0.99999987"
       inkscape:tile-h="0.99999987"
       inkscape:tile-x0="64.058333"
       inkscape:tile-y0="149.25416" />
    <use
       x="0"
       y="0"
       inkscape:tiled-clone-of="#use855"
       xlink:href="#use855"
       id="use2919"
       width="100%"
       height="100%"
       transform="translate(9.1502556,39.361994)" />
    <use
       x="0"
       y="0"
       inkscape:tiled-clone-of="#use855"
       xlink:href="#use855"
       transform="translate(8.6351669,45.169095)"
       id="use2921"
       width="100%"
       height="100%" />
    <use
       x="0"
       y="0"
       inkscape:tiled-clone-of="#use855"
       xlink:href="#use855"
       transform="translate(14.791492,55.782177)"
       id="use2923"
       width="100%"
       height="100%" />
    <use
       x="0"
       y="0"
       inkscape:tiled-clone-of="#use855"
       xlink:href="#use855"
       transform="translate(16.956581,49.523776)"
       id="use2925"
       width="100%"
       height="100%" />
    <use
       x="0"
       y="0"
       inkscape:tiled-clone-of="#use855"
       xlink:href="#use855"
       transform="translate(15.395799,35.354425)"
       id="use2927"
       width="100%"
       height="100%" />
    <use
       x="0"
       y="0"
       inkscape:tiled-clone-of="#use855"
       xlink:href="#use855"
       transform="translate(15.640891,42.445754)"
       id="use2929"
       width="100%"
       height="100%" />
    <use
       x="0"
       y="0"
       xlink:href="#use855"
       id="use3226"
       transform="translate(4.4052243,36.113589)"
       width="100%"
       height="100%" />
    <use
       x="0"
       y="0"
       xlink:href="#g3329"
       id="use3343"
       width="100%"
       height="100%"
       transform="translate(-42.333335)" />
    <use
       x="0"
       y="0"
       xlink:href="#use3373"
       id="use4270"
       transform="translate(0.40444827,-0.56670423)"
       width="100%"
       height="100%"
       style="opacity:0.66" />
    <use
       x="0"
       y="0"
       xlink:href="#use855"
       id="use3373"
       transform="translate(-35.160913,40.70546)"
       width="100%"
       height="100%" />
    <path
       sodipodi:nodetypes="cc"
       id="use3735"
       d="m 108.23709,56.859329 0.85081,-2.240047"
       style="fill:none;stroke:#000000;stroke-width:0.15;stroke-linecap:butt;stroke-linejoin:miter;stroke-miterlimit:4;stroke-dasharray:none;stroke-opacity:1;marker-end:url(#marker3677)"
       inkscape:transform-center-x="-0.43212633"
       inkscape:transform-center-y="-1.1142269" />
    <use
       x="0"
       y="0"
       xlink:href="#use3735"
       inkscape:transform-center-x="-0.43212633"
       inkscape:transform-center-y="-1.1142269"
       id="use3767"
       transform="translate(10.987222,54.974894)"
       width="100%"
       height="100%" />
    <use
       x="0"
       y="0"
       xlink:href="#use3735"
       inkscape:transform-center-x="-0.17518563"
       inkscape:transform-center-y="-1.1821784"
       id="use3775"
       transform="rotate(-12.768358,332.51419,22.443401)"
       width="100%"
       height="100%" />
    <use
       x="0"
       y="0"
       xlink:href="#use3735"
       inkscape:transform-center-x="0.30411631"
       inkscape:transform-center-y="-1.1557477"
       id="use3783"
       transform="rotate(-35.939886,179.03879,71.592373)"
       width="100%"
       height="100%" />
    <use
       x="0"
       y="0"
       xlink:href="#use3735"
       inkscape:transform-center-x="-0.59545958"
       inkscape:transform-center-y="-1.036177"
       id="use3791"
       transform="rotate(8.6871115,-159.94486,155.59726)"
       width="100%"
       height="100%" />
    <use
       x="0"
       y="0"
       xlink:href="#use3735"
       inkscape:transform-center-x="0.077037414"
       inkscape:transform-center-y="-1.1926022"
       id="use3799"
       transform="rotate(-24.893536,198.24818,64.026346)"
       width="100%"
       height="100%" />
    <use
       x="0"
       y="0"
       xlink:href="#use3377"
       id="use4118"
       width="100%"
       height="100%"
       transform="translate(-0.48675173,-0.41169311)"
       style="opacity:0.66" />
    <use
       x="0"
       y="0"
       xlink:href="#use855"
       id="use3377"
       transform="translate(-24.78499,50.196954)"
       width="100%"
       height="100%" />
    <use
       x="0"
       y="0"
       xlink:href="#use3377"
       id="use4126"
       transform="translate(-1.9877931,3.1378915)"
       width="100%"
       height="100%"
       style="opacity:0.22" />
    <use
       x="0"
       y="0"
       xlink:href="#use3373"
       id="use4274"
       transform="translate(2.0645928,3.0592128)"
       width="100%"
       height="100%"
       style="opacity:0.22" />
    <use
       x="0"
       y="0"
       xlink:href="#use4288"
       id="use4290"
       transform="translate(-0.52916663,-0.52916667)"
       width="100%"
       height="100%"
       style="opacity:0.66" />
    <use
       x="0"
       y="0"
       xlink:href="#use855"
       id="use4288"
       transform="translate(-26.987521,44.97917)"
       width="100%"
       height="100%" />
    <use
       x="0"
       y="0"
       xlink:href="#use4288"
       id="use4292"
       width="100%"
       height="100%"
       transform="translate(-1.1581938,0.67940139)"
       style="opacity:0.33" />
    <use
       x="0"
       y="0"
       xlink:href="#use4288"
       id="use4294"
       transform="translate(-1.8950815,2.5766404)"
       width="100%"
       height="100%"
       style="opacity:0.22" />
  </g>
  <g
     inkscape:groupmode="layer"
     id="layer2"
     inkscape:label="bulb"
     style="display:inline"
     transform="translate(-51.044443,-57.344183)">
    <g
       style="mix-blend-mode:normal"
       id="g3235">
      <path
         style="fill:none;stroke:#333333;stroke-width:0.365;stroke-linecap:butt;stroke-linejoin:miter;stroke-miterlimit:4;stroke-dasharray:none;stroke-opacity:1"
         d="m 115.89399,59.344181 0.005,29.753635"
         id="path872"
         sodipodi:nodetypes="cc" />
      <path
         id="path870"
         d="m 105.51329,92.263826 c 10.44329,-4.196126 10.74768,-4.250903 20.75616,0"
         style="fill:none;stroke:#1a1a1a;stroke-width:1;stroke-linecap:butt;stroke-linejoin:miter;stroke-miterlimit:4;stroke-dasharray:none;stroke-opacity:1"
         sodipodi:nodetypes="cc" />
      <path
         sodipodi:nodetypes="ccc"
         id="path872-7"
         d="m 115.89399,113.4305 0.004,20.32515 0.001,2.54934"
         style="fill:none;stroke:#333333;stroke-width:0.365;stroke-linecap:butt;stroke-linejoin:miter;stroke-miterlimit:4;stroke-dasharray:none;stroke-opacity:1;marker-mid:url(#marker5346)" />
      <path
         style="font-variation-settings:normal;opacity:1;vector-effect:none;fill:none;fill-opacity:1;stroke:#1a1a1a;stroke-width:1;stroke-linecap:butt;stroke-linejoin:miter;stroke-miterlimit:4;stroke-dasharray:none;stroke-dashoffset:0;stroke-opacity:1;stop-color:#000000;stop-opacity:1"
         d="m 108.96226,114.00176 c 13.86346,0 13.86346,0 13.86346,0"
         id="path848" />
      <path
         id="path845"
         style="opacity:0.55;mix-blend-mode:normal;fill:url(#linearGradient3304);fill-opacity:1;stroke:#6b6b6b;stroke-width:0.4;stroke-linecap:butt;stroke-linejoin:miter;stroke-miterlimit:4;stroke-dasharray:none;stroke-opacity:0.558004"
         d="m 115.89399,69.866202 c 0.38914,-0.07327 0.33549,-0.132414 0.33582,0.170569 0.005,4.900631 2.72091,8.31496 12.24961,11.22075 1.53489,2.347854 1.56863,39.650099 0,41.221369 -4.58551,3.24685 -12.58543,3.45151 -12.58543,3.45151 m 0,-56.064201 c -0.38914,-0.07327 -0.33549,-0.132414 -0.33582,0.17057 -0.005,4.90063 -2.72091,8.31496 -12.24961,11.220749 -1.53489,2.347854 -1.56863,39.650102 0,41.221372 4.58551,3.24685 12.58543,3.45151 12.58543,3.45151" />
      <path
         id="path848-6"
         d="m 108.96226,113.2394 c 13.86346,0 13.86346,0 13.86346,0"
         style="display:inline;fill:#b7c4c8;stroke:#b7c4c8;stroke-width:0.6;stroke-linecap:butt;stroke-linejoin:miter;stroke-miterlimit:4;stroke-dasharray:none;stroke-opacity:1" />
      <ellipse
         style="font-variation-settings:normal;display:inline;vector-effect:none;fill:#ffffff;fill-opacity:1;stroke:#1a1a1a;stroke-width:0.599998;stroke-linecap:butt;stroke-linejoin:miter;stroke-miterlimit:4;stroke-dasharray:none;stroke-dashoffset:0;stroke-opacity:1;paint-order:fill markers stroke;stop-color:#000000"
         id="use5441"
         cx="115.89399"
         cy="59.344181"
         rx="0.69999951"
         ry="0.69999927" />
      <path
         style="fill:none;stroke:#1a1a1a;stroke-width:0.7;stroke-linecap:butt;stroke-linejoin:miter;stroke-miterlimit:4;stroke-dasharray:none;stroke-opacity:1"
         d="m 112.79271,136.30498 h 6.21256"
         id="path1393" />
    </g>
    <use
       x="0"
       y="0"
       xlink:href="#g3235"
       id="use3306"
       width="100%"
       height="100%"
       transform="translate(-42.333335)" />
    <text
       xml:space="preserve"
       style="font-size:8.46667px;line-height:1.25;font-family:'EB Garamond';-inkscape-font-specification:'EB Garamond, Normal';text-align:end;text-decoration:none;text-decoration-line:none;text-decoration-color:#000000;letter-spacing:0px;word-spacing:0px;text-anchor:end;fill:#333333;stroke-width:0.264583;stop-color:#000000"
       x="79.459892"
       y="62.224049"
       id="text5493"><tspan
         sodipodi:role="line"
         id="tspan5491"
         x="79.459892"
         y="62.224049"
         style="stroke-width:0.264583" /></text>
    <g
       aria-label="Vc"
       id="text5497"
       style="font-size:6.35px;line-height:1.25;font-family:'EB Garamond';-inkscape-font-specification:'EB Garamond, Normal';text-align:start;text-decoration:none;text-decoration-line:none;text-decoration-color:#000000;letter-spacing:0px;word-spacing:0px;text-anchor:start;fill:#333333;stroke-width:0.264583;stop-color:#000000">
      <path
         d="m 78.11117,60.826884 h -2.12725 c -0.1905,0 -0.31115,0.2159 -0.31115,0.3175 0,0.1016 0.0381,0.1143 0.18415,0.1143 h 2.2098 c 0.1905,0 0.27305,-0.23495 0.27305,-0.32385 0,-0.09525 -0.0381,-0.10795 -0.2286,-0.10795 z"
         style="font-size:6.35px;text-align:start;text-anchor:start;stroke-width:0.264583"
         id="path1961" />
      <path
         d="m 80.136808,61.214234 c -0.14605,0.17145 -0.2286,0.2159 -0.19685,0 l 0.2667,-1.8542 c 0.04445,-0.31115 0.10795,-0.50165 0.3175,-0.5969 0.14605,-0.0635 0.34925,-0.0762 0.34925,-0.17145 0,-0.0635 -0.10795,-0.10795 -0.20955,-0.10795 -0.09525,0 -0.2794,0.03175 -0.57785,0.03175 -0.3048,0 -0.69215,-0.03175 -0.76835,-0.03175 -0.1016,0 -0.19685,0.04445 -0.19685,0.10795 0,0.09525 0.13335,0.1143 0.3048,0.1778 0.14605,0.0508 0.2159,0.3048 0.1778,0.59055 l -0.38735,2.8067 c -0.01905,0.1397 0.03175,0.254 0.12065,0.254 0.31115,0 0.6604,-0.59055 0.762,-0.7112 l 2.032,-2.33045 c 0.33655,-0.381 0.6477,-0.56515 0.8763,-0.5969 0.18415,-0.0254 0.34925,-0.09525 0.34925,-0.1905 0,-0.0635 -0.10795,-0.10795 -0.20955,-0.10795 -0.09525,0 -0.2667,0.03175 -0.56515,0.03175 -0.3048,0 -0.70485,-0.03175 -0.78105,-0.03175 -0.1016,0 -0.19685,0.04445 -0.19685,0.10795 0,0.09525 0.1016,0.1397 0.3048,0.20955 0.1397,0.05715 0.1143,0.23495 -0.0254,0.3937 z"
         style="font-style:italic"
         id="path1963" />
      <path
         d="m 82.185031,63.152395 c 0.484011,0 0.770466,-0.237067 0.770466,-0.380295 0,-0.04939 -0.02469,-0.06914 -0.07408,-0.06914 -0.04939,0 -0.291394,0.113594 -0.518583,0.113594 -0.419806,0 -0.612423,-0.464255 -0.612423,-0.898878 0,-0.325966 0.207434,-0.696383 0.503767,-0.696383 0.103717,0 0.167922,0.0889 0.251884,0.172861 0.108655,0.108656 0.232127,0.1778 0.321027,0.1778 0.113595,0 0.207434,-0.07408 0.207434,-0.192617 0,-0.06421 -0.06915,-0.148166 -0.162984,-0.227189 -0.07902,-0.06421 -0.232127,-0.162983 -0.57785,-0.162983 -0.567972,0 -0.997656,0.563033 -0.997656,1.160639 0,0.523522 0.360539,1.002595 0.889001,1.002595 z"
         style="font-size:4.93889px"
         id="path1965" />
    </g>
    <g
       aria-label="+Vc"
       id="text5497-61"
       style="font-size:6.35px;line-height:1.25;font-family:'EB Garamond';-inkscape-font-specification:'EB Garamond, Normal';text-align:start;text-decoration:none;text-decoration-line:none;text-decoration-color:#000000;letter-spacing:0px;word-spacing:0px;text-anchor:start;display:inline;fill:#333333;stroke-width:0.264583;stop-color:#000000">
      <path
         d="m 119.02209,61.226934 v 0.7493 c 0,0.1397 0.0508,0.2413 0.20955,0.2413 0.15875,0 0.2032,-0.13335 0.2032,-0.254 v -0.74295 h 0.7239 c 0.1905,0 0.27305,-0.1397 0.27305,-0.23495 0,-0.09525 -0.10795,-0.1778 -0.2667,-0.1778 h -0.73025 v -0.7366 c 0,-0.2032 -0.1143,-0.2667 -0.20955,-0.2667 -0.0953,0 -0.2032,0.10795 -0.2032,0.33655 v 0.66675 h -0.66675 c -0.2032,0 -0.33655,0.1143 -0.33655,0.2286 0,0.15875 0.2032,0.1905 0.33655,0.1905 z"
         style="font-size:6.35px;text-align:start;text-anchor:start;stroke-width:0.264583"
         id="path1968" />
      <path
         d="m 122.20979,61.214234 c -0.14605,0.17145 -0.2286,0.2159 -0.19685,0 l 0.2667,-1.8542 c 0.0444,-0.31115 0.10795,-0.50165 0.3175,-0.5969 0.14605,-0.0635 0.34925,-0.0762 0.34925,-0.17145 0,-0.0635 -0.10795,-0.10795 -0.20955,-0.10795 -0.0953,0 -0.2794,0.03175 -0.57785,0.03175 -0.3048,0 -0.69215,-0.03175 -0.76835,-0.03175 -0.1016,0 -0.19685,0.04445 -0.19685,0.10795 0,0.09525 0.13335,0.1143 0.3048,0.1778 0.14605,0.0508 0.2159,0.3048 0.1778,0.59055 l -0.38735,2.8067 c -0.019,0.1397 0.0318,0.254 0.12065,0.254 0.31115,0 0.6604,-0.59055 0.762,-0.7112 l 2.032,-2.33045 c 0.33655,-0.381 0.6477,-0.56515 0.8763,-0.5969 0.18415,-0.0254 0.34925,-0.09525 0.34925,-0.1905 0,-0.0635 -0.10795,-0.10795 -0.20955,-0.10795 -0.0952,0 -0.2667,0.03175 -0.56515,0.03175 -0.3048,0 -0.70485,-0.03175 -0.78105,-0.03175 -0.1016,0 -0.19685,0.04445 -0.19685,0.10795 0,0.09525 0.1016,0.1397 0.3048,0.20955 0.1397,0.05715 0.1143,0.23495 -0.0254,0.3937 z"
         style="font-style:italic;stroke-width:0.264583"
         id="path1970" />
      <path
         d="m 124.25801,63.152395 c 0.48402,0 0.77047,-0.237067 0.77047,-0.380295 0,-0.04939 -0.0247,-0.06914 -0.0741,-0.06914 -0.0494,0 -0.2914,0.113595 -0.51859,0.113595 -0.4198,0 -0.61242,-0.464257 -0.61242,-0.89888 0,-0.325968 0.20743,-0.696385 0.50377,-0.696385 0.10371,0 0.16792,0.0889 0.25188,0.172861 0.10866,0.108656 0.23213,0.177801 0.32103,0.177801 0.11359,0 0.20743,-0.07408 0.20743,-0.192617 0,-0.06421 -0.0691,-0.148167 -0.16298,-0.22719 -0.079,-0.06421 -0.23213,-0.162983 -0.57785,-0.162983 -0.56797,0 -0.99766,0.563034 -0.99766,1.160641 0,0.523524 0.36054,1.002597 0.889,1.002597 z"
         style="font-size:4.9389px;stroke-width:0.264583"
         id="path1972" />
    </g>
    <g
       aria-label="I"
       id="text5497-61-3"
       style="font-size:6.35px;line-height:1.25;font-family:'EB Garamond';-inkscape-font-specification:'EB Garamond, Normal';text-align:start;text-decoration:none;text-decoration-line:none;text-decoration-color:#000000;letter-spacing:0px;word-spacing:0px;text-anchor:start;display:inline;fill:#333333;stroke-width:0.264583;stop-color:#000000"
       transform="translate(-0.25006218)">
      <path
         d="m 120.07619,129.58309 c -0.2159,0 -0.29845,0.0317 -0.5207,0.0317 -0.2286,0 -0.4572,-0.0317 -0.70485,-0.0317 -0.0952,0 -0.22225,0.0381 -0.22225,0.1143 0,0.0571 0.0444,0.0952 0.1016,0.10795 0.32385,0.0952 0.38735,0.19685 0.32385,0.4699 l -0.57785,2.3241 c -0.0699,0.26035 -0.14605,0.45085 -0.34925,0.53975 -0.14605,0.0699 -0.34925,0.0889 -0.34925,0.18415 0,0.0635 0.10795,0.10795 0.20955,0.10795 0.0953,0 0.2667,-0.0381 0.56515,-0.0381 0.3048,0 0.70485,0.0381 0.78105,0.0381 0.1016,0 0.19685,-0.0444 0.19685,-0.10795 0,-0.0952 -0.13335,-0.127 -0.3048,-0.1905 -0.14605,-0.0508 -0.2159,-0.254 -0.14605,-0.5334 l 0.57785,-2.3241 c 0.0762,-0.3048 0.18415,-0.3683 0.5461,-0.4699 0.0508,-0.0127 0.0952,-0.0508 0.0952,-0.10795 0,-0.0762 -0.127,-0.1143 -0.22225,-0.1143 z"
         style="font-style:italic;stroke-width:0.264583"
         id="path1955" />
    </g>
    <g
       aria-label="I"
       id="use1947"
       style="font-size:6.35px;line-height:1.25;font-family:'EB Garamond';-inkscape-font-specification:'EB Garamond, Normal';text-align:start;text-decoration:none;text-decoration-line:none;text-decoration-color:#000000;letter-spacing:0px;word-spacing:0px;text-anchor:start;display:inline;fill:#333333;stroke-width:0.264583;stop-color:#000000"
       transform="translate(-0.25006218)">
      <path
         d="m 77.742855,129.58309 c -0.2159,0 -0.29845,0.0317 -0.5207,0.0317 -0.2286,0 -0.4572,-0.0317 -0.70485,-0.0317 -0.09525,0 -0.22225,0.0381 -0.22225,0.1143 0,0.0571 0.04445,0.0952 0.1016,0.10795 0.32385,0.0952 0.38735,0.19685 0.32385,0.4699 l -0.57785,2.3241 c -0.06985,0.26035 -0.14605,0.45085 -0.34925,0.53975 -0.14605,0.0699 -0.34925,0.0889 -0.34925,0.18415 0,0.0635 0.10795,0.10795 0.20955,0.10795 0.09525,0 0.2667,-0.0381 0.56515,-0.0381 0.3048,0 0.70485,0.0381 0.78105,0.0381 0.1016,0 0.19685,-0.0444 0.19685,-0.10795 0,-0.0952 -0.13335,-0.127 -0.3048,-0.1905 -0.14605,-0.0508 -0.2159,-0.254 -0.14605,-0.5334 l 0.57785,-2.3241 c 0.0762,-0.3048 0.18415,-0.3683 0.5461,-0.4699 0.0508,-0.0127 0.09525,-0.0508 0.09525,-0.10795 0,-0.0762 -0.127,-0.1143 -0.22225,-0.1143 z"
         style="font-style:italic;stroke-width:0.264583"
         id="path1958" />
    </g>
    <g
       style="font-size:6.35px;line-height:1.25;font-family:'EB Garamond';-inkscape-font-specification:'EB Garamond, Normal';text-align:end;text-decoration:none;text-decoration-line:none;text-decoration-color:#000000;letter-spacing:0px;word-spacing:0px;text-anchor:end;display:inline;fill:#333333;stroke-width:0.264583;stop-color:#000000"
       id="text175"
       aria-label="C">
      <path
         id="path205"
         style="font-size:6.35px;stroke-width:0.264583"
         d="m 90.474136,90.720125 c -1.25095,0 -2.2987,0.8636 -2.2987,2.11455 0,1.1303 1.1049,1.84785 2.17805,1.84785 0.3556,0 0.8001,-0.06985 1.0541,-0.15875 0.15875,-0.05715 0.1905,-0.1016 0.2921,-0.31115 0.05715,-0.12065 0.254,-0.55245 0.254,-0.60325 0,-0.1143 -0.0508,-0.1778 -0.1016,-0.1778 -0.0508,0 -0.0889,0.0127 -0.1143,0.0508 -0.33655,0.47625 -0.4826,0.92075 -1.12395,0.92075 -1.00965,0 -1.7272,-0.8636 -1.7272,-1.83515 0,-0.8763 0.64135,-1.5621 1.4605,-1.5621 0.45085,0 1.06045,0.1651 1.14935,0.4445 0.08255,0.2667 0.15875,0.40005 0.254,0.40005 0.06985,0 0.1143,-0.06985 0.1143,-0.1778 0,-0.34925 -0.04445,-0.6858 -0.1905,-0.6985 -0.14605,-0.0127 -0.71755,-0.254 -1.20015,-0.254 z" />
    </g>
    <g
       style="font-size:6.35px;line-height:1.25;font-family:'EB Garamond';-inkscape-font-specification:'EB Garamond, Normal';text-align:end;text-decoration:none;text-decoration-line:none;text-decoration-color:#000000;letter-spacing:0px;word-spacing:0px;text-anchor:end;display:inline;fill:#333333;stroke-width:0.264583;stop-color:#000000"
       id="text179"
       aria-label="E">
      <path
         id="path208"
         style="font-size:6.35px;stroke-width:0.264583"
         d="m 89.400431,113.09224 v -1.0668 c 0,-0.0825 0.0254,-0.13335 0.19685,-0.13335 h 0.75565 c 0.3048,0 0.46355,0.1016 0.51435,0.20955 0.05715,0.127 0.1524,0.2413 0.2286,0.2413 0.0762,0 0.1016,-0.0889 0.1016,-0.1651 0,-0.0699 -0.03175,-0.4191 -0.05715,-0.5207 -0.0127,-0.0571 -0.0635,-0.0889 -0.1651,-0.0889 -0.1143,0 -0.48895,0.0318 -0.75565,0.0318 h -1.82245 c -0.13335,0 -0.22225,0.0381 -0.22225,0.1143 0,0.0571 0.04445,0.0889 0.1016,0.10795 0.36195,0.1016 0.5207,0.10795 0.5207,0.4699 v 2.31775 c 0,0.23495 -0.08255,0.36195 -0.29845,0.4572 -0.1397,0.0635 -0.34925,0.0953 -0.34925,0.1905 0,0.0635 0.1397,0.1016 0.20955,0.10795 0.04445,0 0.4191,-0.0318 0.71755,-0.0318 0.6731,0 1.82245,0.0318 2.0574,0.0318 0.10795,0 0.12065,-0.0254 0.17145,-0.12065 0.0508,-0.0825 0.2413,-0.55245 0.2413,-0.73025 0,-0.0952 -0.0254,-0.15875 -0.0889,-0.15875 -0.05715,0 -0.1397,0.0508 -0.17145,0.12065 -0.18415,0.38735 -0.2667,0.59055 -0.75565,0.59055 h -0.889 c -0.18415,0 -0.2413,-0.0825 -0.2413,-0.24765 v -1.0668 c 0,-0.12065 0.03175,-0.1524 0.1524,-0.1524 h 0.66675 c 0.13335,0 0.1778,0.0635 0.22225,0.13335 0.0381,0.0635 0.12065,0.2413 0.2032,0.2413 0.0635,0 0.08255,-0.1016 0.08255,-0.1651 0,-0.0699 -0.0063,-0.2667 -0.0063,-0.36195 0,-0.0952 0.0254,-0.3175 0.0254,-0.3683 0,-0.0762 -0.0127,-0.127 -0.06985,-0.127 -0.06985,0 -0.127,0.0953 -0.19685,0.15875 -0.1143,0.10795 -0.18415,0.1778 -0.38735,0.1778 h -0.5461 c -0.0889,0 -0.14605,-0.0444 -0.14605,-0.19685 z" />
    </g>
  </g>
</svg>
