<?xml version="1.0" encoding="UTF-8" standalone="no"?>
<!-- Created with Inkscape (http://www.inkscape.org/) -->
<svg
   xmlns:svg="http://www.w3.org/2000/svg"
   xmlns="http://www.w3.org/2000/svg"
   version="1.0"
   width="800"
   height="350"
   id="svg2">
  <defs
     id="defs4">
    <marker
       refX="0"
       refY="0"
       orient="auto"
       id="Arrow2Mend"
       style="overflow:visible">
      <path
         d="M 8.7185878,4.0337352 L -2.2072895,0.016013256 L 8.7185884,-4.0017078 C 6.97309,-1.6296469 6.9831476,1.6157441 8.7185878,4.0337352 z"
         transform="scale(-0.6,-0.6)"
         id="path3204"
         style="font-size:12px;fill-rule:evenodd;stroke-width:0.625;stroke-linejoin:round" />
    </marker>
    <marker
       refX="0"
       refY="0"
       orient="auto"
       id="Arrow2Mstart"
       style="overflow:visible">
      <path
         d="M 8.7185878,4.0337352 L -2.2072895,0.016013256 L 8.7185884,-4.0017078 C 6.97309,-1.6296469 6.9831476,1.6157441 8.7185878,4.0337352 z"
         transform="scale(0.6,0.6)"
         id="path3201"
         style="font-size:12px;fill-rule:evenodd;stroke-width:0.625;stroke-linejoin:round" />
    </marker>
  </defs>
  <g
     transform="translate(-2.8571429,-520.2193)"
     id="layer1">
    <path
       d="M 170.71428,210 C 240.70688,333.55392 420.48357,335.96682 492.14286,210.71429"
       transform="translate(2.8571429,520.2193)"
       id="path3170"
       style="fill:none;fill-rule:evenodd;stroke:#ff0000;stroke-width:9;stroke-linecap:butt;stroke-linejoin:miter;stroke-miterlimit:4;stroke-dasharray:none;stroke-opacity:1" />
    <path
       d="M 135,752.36215 L 280.71428,668.07644"
       id="path2396"
       style="fill:none;fill-rule:evenodd;stroke:#000000;stroke-width:8.89999962;stroke-linecap:butt;stroke-linejoin:miter;stroke-miterlimit:4;stroke-dasharray:none;stroke-opacity:1" />
    <g
       id="g7601">
      <path
         d="M 389.40625,51.34375 L 397.4375,61 L 397.4375,61.03125 L 397.5,61.0625 L 429.15625,99.125 C 428.53097,92.772262 429.5303,86.552479 431.90625,80.96875 L 586.125,170.15625 C 582.48675,174.99154 577.63489,178.93797 571.84375,181.46875 L 620.15625,189.84375 L 620.625,190.125 L 620.71875,189.9375 L 633.0625,192.09375 L 625.0625,182.46875 L 625.0625,182.4375 L 625,182.40625 L 593.3125,144.3125 C 593.93678,150.65513 592.93035,156.89187 590.5625,162.46875 L 436.375,73.28125 C 440.01036,68.461804 444.84773,64.524725 450.625,62 L 402.375,53.59375 L 401.875,53.3125 L 401.78125,53.5 L 389.40625,51.34375 z"
         transform="translate(2.8571429,520.2193)"
         id="path3172"
         style="fill:#ff0000;fill-opacity:1;fill-rule:evenodd;stroke:none;stroke-width:8.89999962;stroke-linecap:butt;stroke-linejoin:miter;stroke-miterlimit:4;stroke-dasharray:none;stroke-opacity:1" />
    </g>
    <path
       d="M 532.14285,752.36216 L 386.42857,668.07645"
       id="path3168"
       style="fill:none;fill-rule:evenodd;stroke:#000000;stroke-width:8.89999962;stroke-linecap:butt;stroke-linejoin:miter;stroke-miterlimit:4;stroke-dasharray:none;stroke-opacity:1" />
    <path
       d="M 40.354355,737.78207 L 53.383966,737.78207 L 53.383966,777.25792 L 100.72918,777.25792 L 100.72918,737.78207 L 113.75879,737.78207 L 113.75879,834.08508 L 100.72918,834.08508 L 100.72918,788.22343 L 53.383966,788.22343 L 53.383966,834.08508 L 40.354355,834.08508 L 40.354355,737.78207 z"
       id="text7610"
       style="font-size:132.10218811px;font-style:normal;font-weight:normal;fill:#000000;fill-opacity:1;stroke:none;stroke-width:1px;stroke-linecap:butt;stroke-linejoin:miter;stroke-opacity:1;font-family:Bitstream Vera Sans" />
    <path
       d="M 553.21151,737.78207 L 566.24112,737.78207 L 566.24112,777.25792 L 613.58633,777.25792 L 613.58633,737.78207 L 626.61594,737.78207 L 626.61594,834.08508 L 613.58633,834.08508 L 613.58633,788.22343 L 566.24112,788.22343 L 566.24112,834.08508 L 553.21151,834.08508 L 553.21151,737.78207 z"
       id="text7614"
       style="font-size:132.10218811px;font-style:normal;font-weight:normal;fill:#000000;fill-opacity:1;stroke:none;stroke-width:1px;stroke-linecap:butt;stroke-linejoin:miter;stroke-opacity:1;font-family:Bitstream Vera Sans" />
    <path
       d="M 333.54967,598.76187 C 324.08918,598.76196 316.57459,602.28812 311.00586,609.34036 C 305.43708,616.39276 302.6527,626.00371 302.65272,638.17322 C 302.6527,650.29982 305.43708,659.88926 311.00586,666.94156 C 316.57459,673.99391 324.08918,677.52007 333.54967,677.52006 C 343.01005,677.52007 350.50314,673.99391 356.02897,666.94156 C 361.55465,659.88926 364.31752,650.29982 364.31761,638.17322 C 364.31752,626.00371 361.55465,616.39276 356.02897,609.34036 C 350.50314,602.28812 343.01005,598.76196 333.54967,598.76187 L 333.54967,598.76187 z M 333.54967,588.18337 C 347.05223,588.18347 357.84573,592.70943 365.93018,601.76126 C 374.01447,610.81326 378.05665,622.95057 378.05675,638.17322 C 378.05665,653.35296 374.01447,665.46876 365.93018,674.52067 C 357.84573,683.57259 347.05223,688.09855 333.54967,688.09855 C 320.00399,688.09855 309.17825,683.58335 301.07239,674.55292 C 292.9665,665.52252 288.91357,653.39596 288.91358,638.17322 C 288.91357,622.95057 292.9665,610.81326 301.07239,601.76126 C 309.17825,592.70943 320.00399,588.18347 333.54967,588.18337 L 333.54967,588.18337 z"
       id="text7626"
       style="font-size:132.10218811px;font-style:normal;font-weight:normal;fill:#000000;fill-opacity:1;stroke:none;stroke-width:1px;stroke-linecap:butt;stroke-linejoin:miter;stroke-opacity:1;font-family:Bitstream Vera Sans" />
    <path
       d="M 248.98121,770.76544 L 240.40226,770.76544 L 240.40226,738.4341 C 237.26783,741.36502 233.57369,743.53265 229.31985,744.93701 L 229.31985,737.15184 C 231.55871,736.41915 233.99094,735.03004 236.61653,732.98449 C 239.2421,730.93901 241.04338,728.55258 242.02035,725.82519 L 248.98121,725.82519 L 248.98121,770.76544 z M 276.33615,725.82519 C 280.67139,725.82523 284.06023,727.37209 286.50266,730.46576 C 289.41316,734.1294 290.86842,740.20488 290.86846,748.69221 C 290.86842,757.15922 289.40298,763.24488 286.47213,766.94918 C 284.05005,770.00219 280.67139,771.52869 276.33615,771.52869 C 271.98051,771.52869 268.46956,769.85463 265.80327,766.5065 C 263.13698,763.15838 261.80383,757.18975 261.80383,748.60062 C 261.80383,740.17435 263.26927,734.10905 266.20016,730.4047 C 268.62221,727.35174 272.00086,725.82523 276.33615,725.82519 L 276.33615,725.82519 z M 276.33615,732.93869 C 275.29811,732.93873 274.37203,733.26947 273.55791,733.93092 C 272.74376,734.59244 272.11281,735.77802 271.66505,737.48767 C 271.07479,739.70622 270.77966,743.44106 270.77967,748.69221 C 270.77966,753.94339 271.04426,757.55103 271.57346,759.51511 C 272.10263,761.47922 272.7692,762.78693 273.57317,763.43823 C 274.37712,764.08954 275.29811,764.4152 276.33615,764.41519 C 277.37415,764.4152 278.30023,764.08445 279.11438,763.42296 C 279.9285,762.76148 280.55945,761.5759 281.00724,759.86621 C 281.59747,757.66806 281.89259,753.94339 281.89262,748.69221 C 281.89259,743.44106 281.628,739.83343 281.09883,737.8693 C 280.56963,735.90523 279.90305,734.59244 279.09912,733.93092 C 278.29514,733.26947 277.37415,732.93873 276.33615,732.93869 L 276.33615,732.93869 z M 313.4607,770.76544 L 313.4607,761.75907 L 295.14266,761.75907 L 295.14266,754.24868 L 314.55978,725.82519 L 321.76488,725.82519 L 321.76488,754.21815 L 327.32135,754.21815 L 327.32135,761.75907 L 321.76488,761.75907 L 321.76488,770.76544 L 313.4607,770.76544 z M 313.4607,754.21815 L 313.4607,738.92259 L 303.17207,754.21815 L 313.4607,754.21815 z M 333.27471,770.76544 L 333.27471,762.18649 L 341.85366,762.18649 L 341.85366,770.76544 L 333.27471,770.76544 z M 365.60605,770.76544 L 365.60605,761.75907 L 347.28801,761.75907 L 347.28801,754.24868 L 366.70513,725.82519 L 373.91023,725.82519 L 373.91023,754.21815 L 379.4667,754.21815 L 379.4667,761.75907 L 373.91023,761.75907 L 373.91023,770.76544 L 365.60605,770.76544 z M 365.60605,754.21815 L 365.60605,738.92259 L 355.31742,754.21815 L 365.60605,754.21815 z M 383.71038,759.25561 L 392.2588,758.37024 C 392.50303,760.30382 393.22557,761.83541 394.42643,762.96501 C 395.62727,764.09463 397.01129,764.65944 398.57852,764.65943 C 400.3696,764.65944 401.88592,763.9318 403.1275,762.47653 C 404.36903,761.02127 404.98981,758.8282 404.98983,755.8973 C 404.98981,753.14961 404.37412,751.08884 403.14277,749.71496 C 401.91137,748.34113 400.30854,747.65421 398.33428,747.65418 C 395.87151,747.65421 393.66317,748.74311 391.70926,750.9209 L 384.7484,749.91341 L 389.14473,726.61897 L 411.82857,726.61897 L 411.82857,734.64838 L 395.64763,734.64838 L 394.30431,742.25036 C 396.21751,741.29378 398.17144,740.81548 400.16608,740.81545 C 403.97214,740.81548 407.19815,742.19951 409.84411,744.96754 C 412.49002,747.73562 413.81299,751.32799 413.81302,755.74465 C 413.81299,759.42862 412.74444,762.71569 410.60737,765.60586 C 407.69681,769.55442 403.65667,771.52869 398.48693,771.52869 C 394.35518,771.52869 390.9867,770.41943 388.38148,768.20092 C 385.77624,765.9824 384.21921,763.00064 383.71038,759.25561 L 383.71038,759.25561 z M 416.53019,736.72442 C 416.53019,733.10156 417.49188,730.28262 419.41528,728.26759 C 421.33867,726.25265 423.90828,725.24516 427.12412,725.24512 C 430.31958,725.24516 432.88411,726.25774 434.81769,728.28286 C 436.75124,730.30806 437.71803,733.12191 437.71805,736.72442 C 437.71803,740.327 436.75633,743.13576 434.83296,745.15072 C 432.90955,747.16573 430.33994,748.17322 427.12412,748.17319 C 423.90828,748.17322 421.33867,747.17081 419.41528,745.16598 C 417.49188,743.1612 416.53019,740.34735 416.53019,736.72442 L 416.53019,736.72442 z M 422.97203,736.78548 C 422.97202,739.02438 423.34856,740.61703 424.10164,741.56344 C 424.85471,742.5099 425.83167,742.98311 427.03253,742.98308 C 428.23336,742.98311 429.21541,742.5099 429.97868,741.56344 C 430.74192,740.61703 431.12354,739.02438 431.12356,736.78548 C 431.12354,734.54665 430.74192,732.954 429.97868,732.00753 C 429.21541,731.06113 428.23336,730.58792 427.03253,730.58788 C 425.83167,730.58792 424.85471,731.05605 424.10164,731.99226 C 423.34856,732.92855 422.97202,734.52629 422.97203,736.78548 L 422.97203,736.78548 z"
       transform="scale(1.0037631,0.996251)"
       id="text7630"
       style="font-size:62.52556992px;font-style:normal;font-variant:normal;font-weight:bold;font-stretch:normal;fill:#ff0000;fill-opacity:1;stroke:none;stroke-width:1px;stroke-linecap:butt;stroke-linejoin:miter;stroke-opacity:1;font-family:Arial;-inkscape-font-specification:Arial Bold" />
    <path
       d="M 504.74036,599.09666 L 513.04454,598.18076 C 513.24806,599.8701 513.77724,601.12183 514.6321,601.93595 C 515.48693,602.7501 516.61654,603.15716 518.02094,603.15716 C 519.79166,603.15716 521.29781,602.34303 522.53938,600.71475 C 523.78092,599.08649 524.5747,595.70784 524.92073,590.57877 C 522.76325,593.08225 520.06643,594.33398 516.83026,594.33397 C 513.30912,594.33398 510.27138,592.9754 507.71704,590.25821 C 505.16269,587.54105 503.88551,584.00466 503.88552,579.64901 C 503.88551,575.11024 505.23392,571.45172 507.93075,568.67345 C 510.62756,565.89526 514.06219,564.50614 518.23465,564.5061 C 522.77343,564.50614 526.49809,566.26162 529.40865,569.77253 C 532.31915,573.28353 533.77442,579.05879 533.77445,587.09834 C 533.77442,595.28041 532.25809,601.18289 529.22547,604.80578 C 526.19279,608.42868 522.24424,610.24013 517.3798,610.24013 C 513.87901,610.24013 511.0499,609.30896 508.89245,607.44663 C 506.73498,605.5843 505.35096,602.80098 504.74036,599.09666 L 504.74036,599.09666 z M 524.15748,580.3512 C 524.15746,577.58317 523.52141,575.43589 522.24935,573.90936 C 520.97724,572.38289 519.50671,571.61964 517.83776,571.6196 C 516.25018,571.61964 514.9323,572.24551 513.88411,573.4972 C 512.8359,574.74897 512.3118,576.79957 512.31181,579.64901 C 512.3118,582.53921 512.8817,584.66105 514.0215,586.01453 C 515.16127,587.36805 516.58601,588.0448 518.29571,588.04478 C 519.94431,588.0448 521.33343,587.39349 522.46306,586.09085 C 523.59265,584.78826 524.15746,582.87504 524.15748,580.3512 L 524.15748,580.3512 z M 539.48357,597.93652 L 548.03199,597.05114 C 548.27622,598.98473 548.99876,600.51632 550.19962,601.64592 C 551.40046,602.77554 552.78448,603.34034 554.35171,603.34034 C 556.14279,603.34034 557.65911,602.61271 558.90069,601.15744 C 560.14222,599.70218 560.763,597.50911 560.76302,594.57821 C 560.763,591.83052 560.14731,589.76974 558.91595,588.39587 C 557.68455,587.02204 556.08173,586.33512 554.10747,586.33509 C 551.6447,586.33512 549.43636,587.42402 547.48245,589.60181 L 540.52159,588.59432 L 544.91792,565.29988 L 567.60176,565.29988 L 567.60176,573.32929 L 551.42082,573.32929 L 550.0775,580.93127 C 551.9907,579.97469 553.94463,579.49639 555.93927,579.49636 C 559.74533,579.49639 562.97134,580.88042 565.6173,583.64845 C 568.26321,586.41653 569.58618,590.0089 569.58621,594.42556 C 569.58618,598.10953 568.51763,601.3966 566.38056,604.28677 C 563.47,608.23533 559.42985,610.2096 554.26012,610.2096 C 550.12837,610.2096 546.75989,609.10034 544.15467,606.88182 C 541.54943,604.66331 539.9924,601.68155 539.48357,597.93652 L 539.48357,597.93652 z M 575.99752,609.44635 L 575.99752,600.8674 L 584.57647,600.8674 L 584.57647,609.44635 L 575.99752,609.44635 z M 598.86454,585.29707 C 596.64601,584.36084 595.03301,583.07349 594.02552,581.43502 C 593.01803,579.7966 592.51428,578.00042 592.51429,576.04646 C 592.51428,572.70854 593.67951,569.95066 596.00998,567.77281 C 598.34043,565.59505 601.65294,564.50614 605.94751,564.5061 C 610.20135,564.50614 613.50368,565.59505 615.85452,567.77281 C 618.2053,569.95066 619.38071,572.70854 619.38074,576.04646 C 619.38071,578.12254 618.84135,579.9696 617.76265,581.58767 C 616.68389,583.20579 615.16757,584.44225 613.21367,585.29707 C 615.69675,586.29441 617.58453,587.74967 618.87699,589.66287 C 620.1694,591.5761 620.81562,593.78444 620.81565,596.28789 C 620.81562,600.41964 619.49774,603.77794 616.86201,606.36281 C 614.22622,608.94769 610.72036,610.24013 606.3444,610.24013 C 602.27372,610.24013 598.88488,609.17158 596.17789,607.03448 C 592.98241,604.51066 591.38467,601.05059 591.38467,596.65425 C 591.38467,594.23222 591.98509,592.00861 593.18595,589.98343 C 594.38679,587.9583 596.27965,586.39618 598.86454,585.29707 L 598.86454,585.29707 z M 600.63528,576.65706 C 600.63527,578.36678 601.11866,579.69992 602.08546,580.6565 C 603.05223,581.61314 604.33958,582.09144 605.94751,582.09141 C 607.57576,582.09144 608.87838,581.60805 609.85536,580.64124 C 610.8323,579.67448 611.32078,578.33625 611.3208,576.62653 C 611.32078,575.01865 610.83739,573.7313 609.87063,572.76448 C 608.90382,571.79773 607.62665,571.31434 606.0391,571.3143 C 604.39046,571.31434 603.07767,571.80282 602.10073,572.77974 C 601.12375,573.75674 600.63527,575.04918 600.63528,576.65706 L 600.63528,576.65706 z M 599.8415,595.82994 C 599.84149,598.19094 600.447,600.03292 601.65804,601.35588 C 602.86905,602.67886 604.38029,603.34034 606.19175,603.34034 C 607.96248,603.34034 609.42792,602.7043 610.58808,601.43221 C 611.7482,600.16013 612.32827,598.32324 612.3283,595.92153 C 612.32827,593.82515 611.73803,592.14091 610.55755,590.86881 C 609.37704,589.59674 607.88106,588.9607 606.06963,588.96068 C 603.97322,588.9607 602.4111,589.68324 601.38327,591.12831 C 600.35541,592.57342 599.84149,594.14063 599.8415,595.82994 L 599.8415,595.82994 z M 643.13313,609.44635 L 643.13313,600.43998 L 624.8151,600.43998 L 624.8151,592.92959 L 644.23222,564.5061 L 651.43731,564.5061 L 651.43731,592.89906 L 656.99378,592.89906 L 656.99378,600.43998 L 651.43731,600.43998 L 651.43731,609.44635 L 643.13313,609.44635 z M 643.13313,592.89906 L 643.13313,577.60349 L 632.8445,592.89906 L 643.13313,592.89906 z M 680.04397,577.02342 L 688.04285,577.02342 L 688.04285,581.78611 C 689.08086,580.15787 690.48524,578.8349 692.256,577.8172 C 694.02672,576.79957 695.99082,576.29073 698.1483,576.2907 C 701.91365,576.29073 705.10912,577.76635 707.73474,580.71756 C 710.36029,583.66883 711.67308,587.7802 711.67312,593.05171 C 711.67308,598.46571 710.35011,602.67377 707.70421,605.67589 C 705.05824,608.67801 701.85259,610.17907 698.08724,610.17907 C 696.29612,610.17907 694.67294,609.82289 693.21769,609.11052 C 691.76241,608.39815 690.23082,607.17695 688.62292,605.44691 L 688.62292,621.7805 L 680.04397,621.7805 L 680.04397,577.02342 z M 688.53133,592.68535 C 688.53132,596.32861 689.25386,599.02034 690.69896,600.76055 C 692.14404,602.50077 693.9046,603.37087 695.98066,603.37087 C 697.97527,603.37087 699.63407,602.572 700.95707,600.97426 C 702.28001,599.37653 702.94149,596.75603 702.94152,593.11277 C 702.94149,589.71377 702.25965,587.18996 700.89601,585.54131 C 699.53231,583.89271 697.84298,583.0684 695.82801,583.06838 C 693.7316,583.0684 691.99139,583.87745 690.60737,585.49552 C 689.22333,587.11363 688.53132,589.51024 688.53133,592.68535 L 688.53133,592.68535 z M 717.87073,577.02342 L 725.77802,577.02342 L 725.77802,581.45028 C 728.60712,578.01059 731.9756,576.29073 735.88347,576.2907 C 737.95949,576.29073 739.76076,576.71815 741.28729,577.57296 C 742.81376,578.42784 744.06549,579.72027 745.04249,581.45028 C 746.46719,579.72027 748.00387,578.42784 749.65253,577.57296 C 751.30111,576.71815 753.06168,576.29073 754.93423,576.2907 C 757.31553,576.29073 759.33051,576.77413 760.97918,577.74088 C 762.62775,578.7077 763.85913,580.12734 764.67332,581.99982 C 765.26351,583.38388 765.55864,585.62275 765.55869,588.71644 L 765.55869,609.44635 L 756.97974,609.44635 L 756.97974,590.9146 C 756.9797,587.69879 756.68457,585.62275 756.09437,584.68647 C 755.30055,583.46529 754.07934,582.85469 752.43076,582.85466 C 751.22987,582.85469 750.10026,583.22105 749.04192,583.95375 C 747.98351,584.68649 747.22026,585.76013 746.75217,587.17467 C 746.28401,588.58925 746.04995,590.82303 746.04998,593.87602 L 746.04998,609.44635 L 737.47103,609.44635 L 737.47103,591.67785 C 737.47101,588.5231 737.31836,586.48777 737.01308,585.57184 C 736.70776,584.65596 736.23454,583.97413 735.59343,583.52633 C 734.95228,583.07858 734.08217,582.85469 732.98311,582.85466 C 731.66012,582.85469 730.46945,583.21088 729.41109,583.92322 C 728.3527,584.63561 727.59454,585.66345 727.1366,587.00675 C 726.67864,588.3501 726.44966,590.57879 726.44968,593.69284 L 726.44968,609.44635 L 717.87073,609.44635 L 717.87073,577.02342 z"
       transform="scale(1.0037631,0.996251)"
       id="text7634"
       style="font-size:62.52556992px;font-style:normal;font-variant:normal;font-weight:bold;font-stretch:normal;fill:#ff0000;fill-opacity:1;stroke:none;stroke-width:1px;stroke-linecap:butt;stroke-linejoin:miter;stroke-opacity:1;font-family:Arial;-inkscape-font-specification:Arial Bold" />
  </g>
</svg>
