<?xml version="1.0" encoding="UTF-8" standalone="no"?>
<!-- Generator: Adobe Illustrator 12.0.1, SVG Export Plug-In . SVG Version: 6.00 Build 51448)  -->
<svg
   xmlns:dc="http://purl.org/dc/elements/1.1/"
   xmlns:cc="http://web.resource.org/cc/"
   xmlns:rdf="http://www.w3.org/1999/02/22-rdf-syntax-ns#"
   xmlns:svg="http://www.w3.org/2000/svg"
   xmlns="http://www.w3.org/2000/svg"
   xmlns:sodipodi="http://sodipodi.sourceforge.net/DTD/sodipodi-0.dtd"
   xmlns:inkscape="http://www.inkscape.org/namespaces/inkscape"
   version="1.1"
   id="Layer_1"
   width="114.105"
   height="51.835"
   viewBox="0 0 114.105 51.835"
   style="overflow:visible;enable-background:new 0 0 114.105 51.835;"
   xml:space="preserve"
   sodipodi:version="0.32"
   inkscape:version="0.45.1"
   sodipodi:docname="Isocyansäure.svg"
   inkscape:output_extension="org.inkscape.output.svg.inkscape"
   sodipodi:docbase="C:\"><metadata
   id="metadata30"><rdf:RDF><cc:Work
       rdf:about=""><dc:format>image/svg+xml</dc:format><dc:type
         rdf:resource="http://purl.org/dc/dcmitype/StillImage" /></cc:Work></rdf:RDF></metadata><defs
   id="defs28">
	
	
</defs><sodipodi:namedview
   inkscape:window-height="579"
   inkscape:window-width="801"
   inkscape:pageshadow="2"
   inkscape:pageopacity="0.0"
   guidetolerance="10.0"
   gridtolerance="10.0"
   objecttolerance="10.0"
   borderopacity="1.0"
   bordercolor="#666666"
   pagecolor="#ffffff"
   id="base"
   inkscape:zoom="6.2836859"
   inkscape:cx="57.052502"
   inkscape:cy="25.9175"
   inkscape:window-x="110"
   inkscape:window-y="110"
   inkscape:current-layer="Layer_1" />
<path
   style="fill:#231f20"
   d="M 21.558125,17.905675 L 21.558125,1.578025 L 23.781125,1.578025 L 32.334925,14.392575 L 32.334925,1.578025 L 34.413525,1.578025 L 34.413525,17.906625 L 32.190525,17.906625 L 23.636725,5.091125 L 23.636725,17.905675 L 21.558125,17.905675 z "
   id="path5" /><path
   style="fill:#231f20"
   d="M 71.054073,12.180025 L 73.221023,12.725325 C 72.768823,14.501825 71.955623,15.856525 70.780473,16.788475 C 69.605323,17.720425 68.168923,18.187825 66.471273,18.187825 C 64.713773,18.187825 63.284973,17.829675 62.183923,17.112425 C 61.082873,16.396125 60.244973,15.356825 59.670223,13.998325 C 59.095473,12.639825 58.808573,11.178725 58.808573,9.619775 C 58.808573,7.919275 59.132523,6.434425 59.781373,5.168075 C 60.430223,3.901725 61.352673,2.938425 62.549673,2.281975 C 63.747623,1.625525 65.065273,1.295875 66.502623,1.295875 C 68.132823,1.295875 69.503673,1.711975 70.616123,2.544175 C 71.727623,3.377325 72.501873,4.546775 72.938873,6.056325 L 70.816573,6.556975 C 70.439423,5.369475 69.890323,4.504975 69.172123,3.963475 C 68.453923,3.421975 67.549523,3.151225 66.460823,3.151225 C 65.208723,3.151225 64.160873,3.451425 63.320123,4.052775 C 62.478423,4.654125 61.887523,5.460675 61.546473,6.474325 C 61.205423,7.487975 61.035373,8.532025 61.035373,9.608375 C 61.035373,10.996325 61.236773,12.207575 61.640523,13.243075 C 62.044273,14.278575 62.671273,15.051875 63.522473,15.563925 C 64.373673,16.075975 65.296123,16.332475 66.288873,16.332475 C 67.496323,16.332475 68.517573,15.983825 69.354523,15.285575 C 70.191473,14.587325 70.758623,13.552775 71.054073,12.180025 z "
   id="path7" />
<path
   style="fill:#231f20"
   d="M 36.542476,5.2716249 L 56.492476,5.2716249 L 56.492476,6.886625 L 36.542476,6.886625 L 36.542476,5.2716249 z "
   id="rect9" />
<path
   style="fill:#231f20"
   d="M 36.542476,10.971625 L 56.492476,10.971625 L 56.492476,12.586625 L 36.542476,12.586625 L 36.542476,10.971625 z "
   id="rect11" />
<g
   id="g13"
   transform="matrix(0.95,0,0,0.95,2.852625,1.295875)">
	<path
   style="fill:#231f20"
   d="M 97.668,9.119 C 97.668,6.266 98.434,4.034 99.967,2.421 C 101.498,0.807 103.477,0 105.898,0 C 107.486,0 108.916,0.379 110.189,1.137 C 111.463,1.896 112.435,2.952 113.103,4.308 C 113.771,5.664 114.105,7.202 114.105,8.92 C 114.105,10.663 113.753,12.222 113.05,13.597 C 112.347,14.972 111.35,16.014 110.06,16.721 C 108.771,17.428 107.379,17.782 105.886,17.782 C 104.269,17.782 102.822,17.391 101.548,16.61 C 100.274,15.829 99.31,14.761 98.652,13.41 C 97.994,12.059 97.668,10.628 97.668,9.119 z M 100.012,9.148 C 100.012,11.218 100.569,12.849 101.684,14.041 C 102.797,15.232 104.196,15.828 105.875,15.828 C 107.588,15.828 108.996,15.226 110.104,14.023 C 111.209,12.82 111.762,11.113 111.762,8.902 C 111.762,7.504 111.526,6.283 111.053,5.24 C 110.58,4.197 109.888,3.388 108.977,2.814 C 108.067,2.24 107.045,1.953 105.911,1.953 C 104.302,1.953 102.915,2.506 101.755,3.611 C 100.592,4.717 100.012,6.563 100.012,9.148 z "
   id="path15" />
</g>
<path
   style="fill:#231f20"
   d="M 75.254972,5.2716249 L 93.447472,5.2716249 L 93.447472,6.886625 L 75.254972,6.886625 L 75.254972,5.2716249 z "
   id="rect17" />
<path
   style="fill:#231f20"
   d="M 75.254972,10.971625 L 93.447472,10.971625 L 93.447472,12.586625 L 75.254972,12.586625 L 75.254972,10.971625 z "
   id="rect19" />
<g
   id="g21"
   transform="matrix(0.95,0,0,0.95,2.852625,1.295875)">
	<path
   style="fill:#231f20"
   d="M 0,51.835 L 0,34.647 L 2.281,34.647 L 2.281,41.71 L 11.172,41.71 L 11.172,34.647 L 13.453,34.647 L 13.453,51.835 L 11.172,51.835 L 11.172,43.741 L 2.281,43.741 L 2.281,51.835 L 0,51.835 L 0,51.835 z "
   id="path23" />
</g>
<path
   style="fill:#231f20"
   d="M 15.784975,31.776625 L 14.359975,30.968175 L 20.772475,19.853175 L 22.149975,20.661625 L 15.784975,31.776625 z "
   id="polygon25" />
</svg>