<?xml version="1.0" encoding="UTF-8" standalone="no"?>
<svg
   version="1.0"
   width="23.99mm"
   height="16.6mm"
   id="svg1060"
   xmlns="http://www.w3.org/2000/svg"
   xmlns:svg="http://www.w3.org/2000/svg">
  <defs
     id="defs1006">
    <pattern
       id="EMFhbasepattern"
       patternUnits="userSpaceOnUse"
       width="6"
       height="6"
       x="0"
       y="0" />
  </defs>
  <g
     aria-label="K+"
     transform="matrix(0.90007978,0,0,0.90007978,67.754586,36.642294)"
     id="text1014"
     style="font-size:12.3125px;line-height:125%;font-family:Arial;letter-spacing:0px;word-spacing:0px">
    <path
       d="M 0.90179443,11.146179 V 2.3326416 H 2.0681152 v 4.370697 l 4.376709,-4.370697 H 8.0259705 L 4.3286133,5.9037476 8.1882935,11.146179 H 6.649231 L 3.5109863,6.6853027 2.0681152,8.0921021 v 3.0540769 z"
       id="path1082" />
    <path
       d="M 10.623291,1.448987 V -0.44029522 H 8.7481079 V -1.229846 h 1.8751831 v -1.8751831 h 0.79895 v 1.8751831 h 1.875183 v 0.78955078 H 11.422241 V 1.448987 Z"
       style="font-size:9.625px"
       id="path1084" />
  </g>
  <g
     aria-label="MnO"
     transform="matrix(0.90007978,0,0,0.90007978,67.754586,36.642294)"
     id="text1022"
     style="font-size:12.3125px;line-height:125%;font-family:Arial;letter-spacing:0px;word-spacing:0px">
    <path
       d="m -50.269215,-5.254992 v -8.813538 h 1.755494 l 2.086151,6.2404179 q 0.288574,0.8717346 0.420837,1.3045959 0.150299,-0.480957 0.468933,-1.4128113 l 2.110199,-6.1322025 h 1.569122 v 8.813538 h -1.124237 v -7.376678 l -2.561096,7.376678 h -1.052093 l -2.549073,-7.50293 v 7.50293 z"
       id="path1075" />
    <path
       d="m -40.115009,-5.254992 v -6.384705 h 0.973938 v 0.907807 q 0.703399,-1.052094 2.032043,-1.052094 0.577149,0 1.058106,0.210419 0.486969,0.204407 0.727447,0.541077 0.240479,0.33667 0.33667,0.799591 0.06012,0.3005979 0.06012,1.0520932 v 3.9258118 h -1.082154 V -9.13872 q 0,-0.661316 -0.126251,-0.985962 -0.126251,-0.330658 -0.450897,-0.523041 -0.318634,-0.198394 -0.751495,-0.198394 -0.691376,0 -1.196381,0.438873 -0.498993,0.4388731 -0.498993,1.6653135 v 3.4869385 z"
       id="path1077" />
    <path
       d="m -26.019993,-9.5475335 q 0,-2.1943665 1.178345,-3.4328305 1.178345,-1.244477 3.042053,-1.244477 1.220429,0 2.200379,0.583161 0.979949,0.58316 1.490966,1.629242 0.517029,1.040069 0.517029,2.3627011 0,1.3406677 -0.541077,2.3987732 -0.541076,1.0581055 -1.53305,1.6051941 -0.991974,0.5410767 -2.140259,0.5410767 -1.244476,0 -2.224426,-0.6011963 -0.97995,-0.6011963 -1.484955,-1.6412659 -0.505005,-1.0400696 -0.505005,-2.2003784 z m 1.202393,0.018036 q 0,1.5931701 0.853698,2.5130005 0.859711,0.9138183 2.152283,0.9138183 1.31662,0 2.164307,-0.9258423 0.853699,-0.9258422 0.853699,-2.6272277 0,-1.0761413 -0.36673,-1.8757323 -0.360718,-0.805603 -1.064118,-1.244477 -0.697387,-0.444885 -1.569122,-0.444885 -1.238464,0 -2.134247,0.853699 -0.88977,0.847687 -0.88977,2.8376465 z"
       id="path1079" />
  </g>
  <g
     aria-label="–"
     transform="matrix(0.90007978,0,0,0.90007978,67.754586,36.642294)"
     id="text1028"
     style="font-size:9.625px;line-height:125%;font-family:Arial;letter-spacing:0px;word-spacing:0px">
    <path
       d="m -16.982317,-15.99082 v -0.681457 h 5.352966 v 0.681457 z"
       id="path1072" />
  </g>
  <g
     aria-label="O
O"
     transform="matrix(0.90007978,0,0,0.90007978,67.754586,36.642294)"
     id="text1038"
     style="font-size:12.3125px;line-height:394.865%;font-family:Arial;letter-spacing:0px;word-spacing:0px">
    <path
       d="m -50.295372,-33.856413 q 0,-2.194366 1.178345,-3.432831 1.178344,-1.244476 3.042053,-1.244476 1.220428,0 2.200378,0.58316 0.97995,0.583161 1.490967,1.629242 0.517029,1.04007 0.517029,2.362702 0,1.340667 -0.541077,2.398773 -0.541076,1.058105 -1.53305,1.605194 -0.991974,0.541077 -2.140259,0.541077 -1.244476,0 -2.224426,-0.601197 -0.97995,-0.601196 -1.484955,-1.641265 -0.505005,-1.04007 -0.505005,-2.200379 z m 1.202393,0.01804 q 0,1.59317 0.853698,2.513 0.859711,0.913819 2.152283,0.913819 1.31662,0 2.164307,-0.925842 0.853698,-0.925843 0.853698,-2.627228 0,-1.076142 -0.366729,-1.875733 -0.360718,-0.805603 -1.064118,-1.244476 -0.697387,-0.444885 -1.569122,-0.444885 -1.238464,0 -2.134247,0.853699 -0.88977,0.847686 -0.88977,2.837646 z"
       id="path1067" />
    <path
       d="m -50.295372,14.761348 q 0,-2.194367 1.178345,-3.432831 1.178344,-1.244477 3.042053,-1.244477 1.220428,0 2.200378,0.583161 0.97995,0.58316 1.490967,1.629242 0.517029,1.040069 0.517029,2.362701 0,1.340668 -0.541077,2.398773 -0.541076,1.058106 -1.53305,1.605195 -0.991974,0.541076 -2.140259,0.541076 -1.244476,0 -2.224426,-0.601196 -0.97995,-0.601196 -1.484955,-1.641266 -0.505005,-1.04007 -0.505005,-2.200378 z m 1.202393,0.01803 q 0,1.593171 0.853698,2.513001 0.859711,0.913818 2.152283,0.913818 1.31662,0 2.164307,-0.925842 0.853698,-0.925842 0.853698,-2.627228 0,-1.076141 -0.366729,-1.875732 -0.360718,-0.805603 -1.064118,-1.244476 -0.697387,-0.444886 -1.569122,-0.444886 -1.238464,0 -2.134247,0.853699 -0.88977,0.847687 -0.88977,2.837646 z"
       id="path1069" />
  </g>
  <g
     aria-label="O"
     transform="matrix(0.90007978,0,0,0.90007978,67.754586,36.642294)"
     id="text1044"
     style="font-size:12.3125px;line-height:125%;font-family:Arial;letter-spacing:0px;word-spacing:0px">
    <path
       d="m -74.570755,-9.5475335 q 0,-2.1943665 1.178345,-3.4328305 1.178344,-1.244477 3.042053,-1.244477 1.220428,0 2.200378,0.583161 0.97995,0.58316 1.490967,1.629242 0.517029,1.040069 0.517029,2.3627011 0,1.3406677 -0.541077,2.3987732 -0.541076,1.0581055 -1.53305,1.6051941 -0.991974,0.5410767 -2.140259,0.5410767 -1.244476,0 -2.224426,-0.6011963 -0.97995,-0.6011963 -1.484955,-1.6412659 -0.505005,-1.0400696 -0.505005,-2.2003784 z m 1.202393,0.018036 q 0,1.5931701 0.853698,2.5130005 0.859711,0.9138183 2.152283,0.9138183 1.31662,0 2.164307,-0.9258423 0.853698,-0.9258422 0.853698,-2.6272277 0,-1.0761413 -0.366729,-1.8757323 -0.360718,-0.805603 -1.064118,-1.244477 -0.697387,-0.444885 -1.569122,-0.444885 -1.238464,0 -2.134247,0.853699 -0.88977,0.847687 -0.88977,2.8376465 z"
       id="path1064" />
  </g>
  <path
     style="fill:none;stroke:#000000;stroke-width:0.789751px;stroke-linecap:round;stroke-linejoin:round;stroke-miterlimit:4;stroke-dasharray:none;stroke-opacity:1"
     d="M -1.2170079,0 M 38.007296,27.943044 h 4.738506"
     id="path1046" />
  <path
     style="fill:none;stroke:#000000;stroke-width:0.789751px;stroke-linecap:round;stroke-linejoin:round;stroke-miterlimit:4;stroke-dasharray:none;stroke-opacity:1"
     d="M 28.267032,22.407158 V 11.862613"
     id="path1048" />
  <path
     style="fill:none;stroke:#000000;stroke-width:0.789751px;stroke-linecap:round;stroke-linejoin:round;stroke-miterlimit:4;stroke-dasharray:none;stroke-opacity:1"
     d="M 24.581527,22.407158 V 11.862613"
     id="path1050" />
  <path
     style="fill:none;stroke:#000000;stroke-width:0.789751px;stroke-linecap:round;stroke-linejoin:round;stroke-miterlimit:4;stroke-dasharray:none;stroke-opacity:1"
     d="M 24.581527,33.742543 V 44.287089"
     id="path1052" />
  <path
     style="fill:none;stroke:#000000;stroke-width:0.789751px;stroke-linecap:round;stroke-linejoin:round;stroke-miterlimit:4;stroke-dasharray:none;stroke-opacity:1"
     d="M 28.267032,33.742543 V 44.287089"
     id="path1054" />
  <path
     style="fill:none;stroke:#000000;stroke-width:0.789751px;stroke-linecap:round;stroke-linejoin:round;stroke-miterlimit:4;stroke-dasharray:none;stroke-opacity:1"
     d="M 20.632772,26.097748 H 9.8395072"
     id="path1056" />
  <path
     style="fill:none;stroke:#000000;stroke-width:0.789751px;stroke-linecap:round;stroke-linejoin:round;stroke-miterlimit:4;stroke-dasharray:none;stroke-opacity:1"
     d="M 20.632772,29.788339 H 9.8395072"
     id="path1058" />
</svg>
