<?xml version="1.0" encoding="utf-8"?>
<!-- Generator: Adobe Illustrator 12.0.0, SVG Export Plug-In . SVG Version: 6.00 Build 51448)  -->
<!DOCTYPE svg PUBLIC "-//W3C//DTD SVG 1.1//EN" "http://www.w3.org/Graphics/SVG/1.1/DTD/svg11.dtd" [
	<!ENTITY ns_svg "http://www.w3.org/2000/svg">
	<!ENTITY ns_xlink "http://www.w3.org/1999/xlink">
]>
<svg  version="1.1" id="Layer_1" xmlns="&ns_svg;" xmlns:xlink="&ns_xlink;" width="1000" height="750" viewBox="0 0 1000 750"
	 overflow="visible" enable-background="new 0 0 1000 750" xml:space="preserve">
<g>
	<g>
		<path d="M43.586,605.75v-111h14.625v45.5h57.625v-45.5h14.625v111h-14.625v-52.375H58.211v52.375H43.586z"/>
	</g>
	<g>
		<path d="M311.586,141.75v-111h14.625v45.5h57.625v-45.5h14.625v111h-14.625V89.375h-57.625v52.375H311.586z"/>
	</g>
	<g>
		<path d="M609.586,531.25v-111h14.625v45.5h57.625v-45.5h14.625v111h-14.625v-52.375h-57.625v52.375H609.586z"/>
	</g>
	<g>
		<path d="M466.586,719.25v-111h14.625v45.5h57.625v-45.5h14.625v111h-14.625v-52.375h-57.625v52.375H466.586z"/>
	</g>
	<rect x="348.586" y="160.75" width="13" height="158.5"/>
	<polygon points="295.67,435.878 289.071,424.677 156.502,502.121 163.101,513.322 	"/>
	<g>
		<path d="M388.211,412.765l14.625,3.709c-3.076,12.082-8.609,21.293-16.6,27.637s-17.758,9.514-29.301,9.514
			c-11.947,0-21.664-2.438-29.15-7.312s-13.184-11.934-17.09-21.178s-5.859-19.172-5.859-29.781c0-11.566,2.205-21.658,6.617-30.271
			c4.41-8.613,10.688-15.154,18.832-19.625c8.143-4.471,17.105-6.707,26.887-6.707c11.092,0,20.42,2.832,27.982,8.494
			c7.562,5.664,12.83,13.627,15.807,23.889l-14.5,3.406c-2.57-8.074-6.297-13.953-11.184-17.637s-11.033-5.527-18.439-5.527
			c-8.516,0-15.631,2.045-21.348,6.133c-5.719,4.088-9.736,9.576-12.053,16.463c-2.318,6.889-3.477,13.992-3.477,21.309
			c0,9.438,1.373,17.676,4.123,24.715c2.75,7.041,7.025,12.303,12.826,15.783c5.801,3.482,12.08,5.223,18.84,5.223
			c8.223,0,15.184-2.371,20.883-7.115C382.332,429.142,386.191,422.101,388.211,412.765z"/>
	</g>
	<polyline points="388.586,464.917 399.253,457.917 489.586,572.583 442.586,600.583 	"/>
	<polyline points="491.459,447.908 503.314,452.76 512.872,418.542 500.495,416.893 	"/>
	<polygon points="561.859,476.722 572.92,481.25 588.253,428.583 575.871,426.933 	"/>
	<polygon points="550.874,423.603 537.843,421.867 526.57,462.279 538.598,467.201 	"/>
	<polygon points="462.512,411.833 475.587,413.576 468.597,438.55 456.448,433.578 	"/>
	<polygon points="425.587,406.917 437.922,408.559 432.811,423.904 422.253,419.583 	"/>
	<polygon fill="#FF0000" points="432.114,305.249 458.447,375.582 484.781,305.249 464.947,305.333 464.947,104.166 484.781,104.25 
		458.447,33.916 432.39,103.515 432.114,104.25 451.947,104.166 451.947,305.333 	"/>
	<g>
		<path fill="#FF0000" d="M527.503,204.583h-8.812v-56.006c-2.114,2.019-4.887,4.037-8.318,6.055
			c-3.432,2.019-6.513,3.532-9.244,4.541v-8.496c4.914-2.311,9.209-5.11,12.887-8.398c3.677-3.287,6.28-6.478,7.81-9.57h5.679
			V204.583z"/>
		<path fill="#FF0000" d="M549.993,169.263c0-8.459,0.87-15.272,2.612-20.44s4.33-9.146,7.766-11.934
			c3.435-2.787,7.757-4.182,12.966-4.182c3.842,0,7.216,0.773,10.124,2.318c2.908,1.546,5.301,3.774,7.179,6.687
			s3.354,6.459,4.429,10.64c1.074,4.182,1.612,9.818,1.612,16.911c0,8.395-0.863,15.176-2.589,20.344s-4.306,9.153-7.74,11.957
			c-3.436,2.805-7.773,4.206-13.015,4.206c-6.902,0-12.323-2.462-16.263-7.388C552.354,192.408,549.993,182.702,549.993,169.263z
			 M559.056,169.239c0,11.766,1.372,19.588,4.118,23.465c2.746,3.878,6.134,5.816,10.163,5.816s7.416-1.946,10.162-5.841
			c2.746-3.894,4.119-11.707,4.119-23.44c0-11.777-1.371-19.602-4.111-23.474c-2.74-3.871-6.163-5.808-10.268-5.808
			c-4.029,0-7.252,1.708-9.666,5.124C560.562,149.442,559.056,157.495,559.056,169.239z"/>
		<path fill="#FF0000" d="M619.234,165.769c-3.67-1.334-6.39-3.238-8.159-5.713s-2.654-5.438-2.654-8.889
			c0-5.209,1.872-9.588,5.617-13.137s8.728-5.323,14.948-5.323c6.252,0,11.283,1.815,15.094,5.445
			c3.811,3.631,5.716,8.05,5.716,13.259c0,3.321-0.873,6.211-2.618,8.669c-1.746,2.458-4.396,4.354-7.952,5.688
			c4.404,1.432,7.757,3.74,10.058,6.928c2.3,3.188,3.45,6.992,3.45,11.414c0,6.114-2.166,11.253-6.497,15.415
			c-4.332,4.163-10.03,6.244-17.097,6.244s-12.766-2.089-17.097-6.269c-4.332-4.179-6.497-9.391-6.497-15.635
			c0-4.65,1.186-8.544,3.557-11.683S614.852,166.908,619.234,165.769z M614.608,183.905c0,2.502,0.587,4.922,1.761,7.26
			s2.935,4.148,5.282,5.432c2.347,1.283,4.867,1.924,7.562,1.924c4.207,0,7.668-1.348,10.384-4.043s4.074-6.122,4.074-10.279
			c0-4.222-1.398-7.713-4.195-10.474s-6.315-4.142-10.555-4.142c-4.143,0-7.564,1.364-10.264,4.093S614.608,179.813,614.608,183.905
			z M617.483,150.883c0,3.383,1.081,6.146,3.243,8.293s4.988,3.219,8.479,3.219c3.393,0,6.162-1.064,8.309-3.194
			c2.146-2.13,3.219-4.739,3.219-7.829c0-3.219-1.105-5.926-3.316-8.121s-4.98-3.293-8.309-3.293c-3.361,0-6.139,1.073-8.333,3.22
			C618.58,145.324,617.483,147.892,617.483,150.883z"/>
		<path fill="#FF0000" d="M666.161,204.583v-10h10v10H666.161z"/>
		<path fill="#FF0000" d="M689.569,142.333v-8.438h46.375v6.828c-4.561,4.852-9.081,11.301-13.56,19.347
			s-7.939,16.319-10.382,24.821c-1.76,5.994-2.883,12.558-3.371,19.691h-9.062c0.098-5.635,1.207-12.443,3.33-20.424
			c2.122-7.98,5.167-15.677,9.134-23.088c3.967-7.41,8.188-13.656,12.661-18.738H689.569z"/>
		<path fill="#FF0000" d="M744.622,169.263c0-8.459,0.87-15.272,2.612-20.44s4.33-9.146,7.766-11.934
			c3.435-2.787,7.757-4.182,12.966-4.182c3.842,0,7.216,0.773,10.124,2.318c2.908,1.546,5.301,3.774,7.179,6.687
			s3.354,6.459,4.429,10.64c1.074,4.182,1.612,9.818,1.612,16.911c0,8.395-0.863,15.176-2.589,20.344s-4.306,9.153-7.74,11.957
			c-3.436,2.805-7.773,4.206-13.015,4.206c-6.902,0-12.323-2.462-16.263-7.388C746.982,192.408,744.622,182.702,744.622,169.263z
			 M753.685,169.239c0,11.766,1.372,19.588,4.118,23.465c2.746,3.878,6.134,5.816,10.163,5.816s7.416-1.946,10.162-5.841
			c2.746-3.894,4.119-11.707,4.119-23.44c0-11.777-1.371-19.602-4.111-23.474c-2.74-3.871-6.163-5.808-10.268-5.808
			c-4.029,0-7.252,1.708-9.666,5.124C755.19,149.442,753.685,157.495,753.685,169.239z"/>
		<path fill="#FF0000" d="M830.458,224.458v-71.75h8v6.714c1.887-2.634,4.019-4.609,6.395-5.926c2.375-1.316,5.255-1.976,8.64-1.976
			c4.426,0,8.33,1.141,11.715,3.422s5.939,5.498,7.664,9.652s2.587,8.708,2.587,13.66c0,5.311-0.951,10.092-2.854,14.344
			s-4.666,7.511-8.291,9.775c-3.625,2.264-7.438,3.396-11.437,3.396c-2.926,0-5.552-0.621-7.876-1.861
			c-2.325-1.24-4.235-2.809-5.73-4.703v25.252H830.458z M838.396,178.921c0,6.68,1.347,11.616,4.041,14.81s5.957,4.789,9.788,4.789
			c3.896,0,7.231-1.653,10.007-4.96s4.164-8.431,4.164-15.371c0-6.614-1.355-11.566-4.066-14.857s-5.949-4.937-9.715-4.937
			c-3.733,0-7.036,1.752-9.909,5.254C839.832,167.152,838.396,172.243,838.396,178.921z"/>
		<path fill="#FF0000" d="M886.103,204.583v-51.875h7.875v7.269c1.628-2.541,3.793-4.586,6.496-6.134
			c2.702-1.548,5.779-2.322,9.23-2.322c3.842,0,6.992,0.799,9.451,2.396c2.458,1.597,4.191,3.828,5.201,6.695
			c4.104-6.061,9.447-9.091,16.029-9.091c5.147,0,9.105,1.426,11.875,4.275c2.77,2.851,4.154,7.24,4.154,13.168v35.619h-8.812
			v-32.686c0-3.518-0.284-6.05-0.853-7.597s-1.6-2.793-3.094-3.738c-1.494-0.944-3.248-1.417-5.262-1.417
			c-3.638,0-6.658,1.214-9.062,3.64c-2.404,2.427-3.605,6.311-3.605,11.652v30.146h-8.812v-33.712c0-3.908-0.716-6.839-2.146-8.794
			c-1.432-1.954-3.772-2.932-7.024-2.932c-2.472,0-4.756,0.651-6.854,1.954s-3.618,3.209-4.562,5.717s-1.414,6.123-1.414,10.846
			v26.921H886.103z"/>
	</g>
	<path fill="#FF0000" d="M422.701,550.479c-20.754,9.175-43.714,14.271-67.865,14.271c-60.482,0-113.501-31.962-143.085-79.917
		l11.182-6.64c27.316,44.146,76.176,73.557,131.903,73.557c22.445,0,43.775-4.771,63.033-13.353L422.701,550.479z"/>
	<g>
		<path fill="#FF0000" d="M183.619,659.095h-8.812v-56.006c-2.114,2.019-4.887,4.037-8.318,6.055
			c-3.432,2.019-6.513,3.532-9.244,4.541v-8.496c4.914-2.311,9.209-5.11,12.887-8.398c3.677-3.287,6.28-6.478,7.81-9.57h5.679
			V659.095z"/>
		<path fill="#FF0000" d="M206.109,623.776c0-8.459,0.87-15.272,2.612-20.44s4.33-9.146,7.766-11.934
			c3.435-2.787,7.757-4.182,12.966-4.182c3.842,0,7.216,0.773,10.124,2.318c2.908,1.546,5.301,3.774,7.179,6.687
			s3.354,6.459,4.429,10.64c1.074,4.182,1.612,9.818,1.612,16.911c0,8.395-0.863,15.176-2.589,20.344s-4.306,9.153-7.74,11.957
			c-3.436,2.805-7.773,4.206-13.015,4.206c-6.902,0-12.323-2.462-16.263-7.388C208.47,646.92,206.109,637.214,206.109,623.776z
			 M215.172,623.751c0,11.766,1.372,19.588,4.118,23.465c2.746,3.878,6.134,5.816,10.163,5.816s7.416-1.946,10.162-5.841
			c2.746-3.894,4.119-11.707,4.119-23.44c0-11.777-1.371-19.602-4.111-23.474c-2.74-3.871-6.163-5.808-10.268-5.808
			c-4.029,0-7.252,1.708-9.666,5.124C216.678,603.955,215.172,612.007,215.172,623.751z"/>
		<path fill="#FF0000" d="M263.037,642.533l8.438-0.812c0.717,3.967,2.087,6.844,4.108,8.631c2.021,1.788,4.613,2.682,7.776,2.682
			c2.706,0,5.083-0.618,7.132-1.854c2.048-1.236,3.719-2.887,5.013-4.952s2.381-4.855,3.262-8.369c0.88-3.514,1.32-7.094,1.32-10.74
			c0-0.391-0.017-0.977-0.049-1.758c-1.76,2.8-4.162,5.07-7.208,6.812c-3.047,1.742-6.345,2.612-9.896,2.612
			c-5.93,0-10.947-2.146-15.052-6.439c-4.105-4.293-6.157-9.951-6.157-16.976c0-7.252,2.143-13.09,6.428-17.513
			s9.655-6.635,16.108-6.635c4.66,0,8.921,1.253,12.783,3.758c3.861,2.506,6.795,6.076,8.799,10.713s3.007,11.348,3.007,20.133
			c0,9.144-0.994,16.424-2.982,21.841c-1.988,5.418-4.946,9.542-8.874,12.372c-3.928,2.831-8.532,4.246-13.812,4.246
			c-5.606,0-10.187-1.552-13.739-4.656S263.754,648.158,263.037,642.533z M299.1,610.922c0-5.045-1.34-9.048-4.019-12.01
			c-2.68-2.961-5.92-4.442-9.722-4.442c-3.934,0-7.346,1.595-10.236,4.784s-4.336,7.323-4.336,12.4
			c0,4.557,1.372,8.259,4.116,11.106s6.147,4.271,10.211,4.271c4.074,0,7.424-1.424,10.049-4.271
			C297.787,619.914,299.1,615.967,299.1,610.922z"/>
		<path fill="#FF0000" d="M322.277,659.095v-10h10v10H322.277z"/>
		<path fill="#FF0000" d="M345.123,640.283l9.25-0.812c0.684,4.505,2.268,7.892,4.75,10.16s5.493,3.402,9.034,3.402
			c4.268,0,7.859-1.595,10.777-4.784c2.917-3.189,4.376-7.421,4.376-12.694c0-5.012-1.403-8.967-4.209-11.863
			s-6.507-4.346-11.104-4.346c-2.859,0-5.425,0.644-7.697,1.93c-2.272,1.287-4.061,2.956-5.365,5.008l-8.25-1.062l6.938-36.812
			h35.625v8.375h-28.629l-3.841,19.297c4.303-2.989,8.818-4.484,13.546-4.484c6.259,0,11.54,2.165,15.844,6.495
			c4.303,4.33,6.455,9.897,6.455,16.701c0,6.479-1.89,12.078-5.669,16.799c-4.594,5.795-10.865,8.692-18.814,8.692
			c-6.516,0-11.834-1.825-15.955-5.477C348.063,651.156,345.709,646.314,345.123,640.283z"/>
		<path fill="#FF0000" d="M402.801,599.821c0-3.746,1.327-6.939,3.983-9.579c2.655-2.639,5.84-3.959,9.555-3.959
			c3.779,0,6.988,1.32,9.628,3.959c2.639,2.64,3.959,5.833,3.959,9.579c0,3.747-1.328,6.948-3.983,9.604
			c-2.656,2.656-5.857,3.983-9.604,3.983c-3.715,0-6.899-1.319-9.555-3.959C404.128,606.81,402.801,603.6,402.801,599.821z
			 M408.113,599.845c0,2.278,0.808,4.223,2.424,5.834c1.615,1.611,3.565,2.416,5.851,2.416c2.252,0,4.186-0.805,5.802-2.416
			c1.615-1.611,2.424-3.556,2.424-5.834c0-2.277-0.809-4.222-2.424-5.833c-1.616-1.611-3.55-2.417-5.802-2.417
			c-2.285,0-4.235,0.806-5.851,2.417C408.921,595.624,408.113,597.568,408.113,599.845z"/>
	</g>
</g>
<rect fill="none" width="1000" height="750"/>
</svg>
