<?xml version="1.0" encoding="utf-8"?>
<!-- Generator: Adobe Illustrator 13.0.2, SVG Export Plug-In . SVG Version: 6.00 Build 14948)  -->
<!DOCTYPE svg PUBLIC "-//W3C//DTD SVG 1.1//EN" "http://www.w3.org/Graphics/SVG/1.1/DTD/svg11.dtd">
<svg version="1.1" id="Ebene_1" xmlns="http://www.w3.org/2000/svg" xmlns:xlink="http://www.w3.org/1999/xlink" x="0px" y="0px"
	 width="125.21px" height="58.2px" viewBox="0 0 125.21 58.2" enable-background="new 0 0 125.21 58.2" xml:space="preserve">
<path d="M13.156,40.476c0-2.852,0.766-5.084,2.297-6.697s3.508-2.42,5.93-2.42c1.586,0,3.016,0.379,4.289,1.137
	s2.244,1.814,2.912,3.17s1.002,2.893,1.002,4.611c0,1.742-0.352,3.301-1.055,4.676s-1.699,2.416-2.988,3.123
	s-2.68,1.061-4.172,1.061c-1.617,0-3.063-0.391-4.336-1.172s-2.238-1.848-2.895-3.199S13.156,41.984,13.156,40.476z M15.5,40.511
	c0,2.07,0.557,3.701,1.67,4.893s2.51,1.787,4.189,1.787c1.711,0,3.119-0.602,4.225-1.805s1.658-2.91,1.658-5.121
	c0-1.398-0.236-2.619-0.709-3.662s-1.164-1.852-2.074-2.426s-1.932-0.861-3.064-0.861c-1.609,0-2.994,0.553-4.154,1.658
	S15.5,37.925,15.5,40.511z"/>
<path d="M48.936,29.002v-17.18h2.332l9.023,13.488V11.823h2.18v17.18h-2.332l-9.023-13.5v13.5H48.936z"/>
<polygon points="43.5,22.201 44.35,23.651 29.35,32.3 28.5,30.85 "/>
<polygon points="46.45,27.35 47.299,28.8 43.65,30.951 42.75,29.5 "/>
<polygon points="40.799,30.6 41.65,32.1 38,34.201 37.15,32.75 "/>
<polygon points="35.15,33.85 36,35.35 32.35,37.451 31.5,36 "/>
<path d="M81.859,40.476c0-2.852,0.766-5.084,2.297-6.697s3.508-2.42,5.93-2.42c1.586,0,3.016,0.379,4.289,1.137
	s2.244,1.814,2.912,3.17s1.002,2.893,1.002,4.611c0,1.742-0.352,3.301-1.055,4.676s-1.699,2.416-2.988,3.123
	s-2.68,1.061-4.172,1.061c-1.617,0-3.063-0.391-4.336-1.172s-2.238-1.848-2.895-3.199S81.859,41.984,81.859,40.476z M84.203,40.511
	c0,2.07,0.557,3.701,1.67,4.893s2.51,1.787,4.189,1.787c1.711,0,3.119-0.602,4.225-1.805s1.658-2.91,1.658-5.121
	c0-1.398-0.236-2.619-0.709-3.662s-1.164-1.852-2.074-2.426s-1.932-0.861-3.064-0.861c-1.609,0-2.994,0.553-4.154,1.658
	S84.203,37.925,84.203,40.511z"/>
<polygon points="82.95,30.85 82.1,32.3 67.1,23.651 67.95,22.151 "/>
<polygon points="79.95,36 79.1,37.451 75.45,35.35 76.299,33.85 "/>
<polygon points="74.299,32.75 73.45,34.201 69.75,32.05 70.6,30.6 "/>
<polygon points="68.65,29.451 67.799,30.951 64.1,28.8 64.95,27.35 "/>
<g>
	<path fill="none" stroke="#000000" stroke-width="1.7" d="M8.799,52.35H5.85V5.85h2.949 M102.549,5.85h2.9v46.5h-2.9"/>
</g>
<path d="M120.209,7.134h-8.508V5.658h8.508V7.134z"/>
</svg>
