<?xml version="1.0"?>
<svg xmlns="http://www.w3.org/2000/svg" xmlns:xlink="http://www.w3.org/1999/xlink" width="474.617" height="223.066">
					<path d="M189.064,10.731c0,4.619-3.745,8.364-8.364,8.364c-4.619,0-8.364-3.745-8.364-8.364
						s3.745-8.363,8.364-8.363C185.319,2.368,189.064,6.112,189.064,10.731"/>
					<path d="M220.265,29.932c0,4.619-3.75,8.369-8.364,8.369c-4.619,0-8.369-3.75-8.369-8.369
						c0-4.614,3.75-8.364,8.369-8.364C216.515,21.566,220.265,25.316,220.265,29.932"/>
					<path d="M126.666,10.731c0,4.619-3.75,8.364-8.369,8.364c-4.614,0-8.364-3.745-8.364-8.364
						s3.75-8.363,8.364-8.363C122.916,2.368,126.666,6.112,126.666,10.731"/>
					<path d="M93.068,29.932c0,4.619-3.75,8.369-8.369,8.369c-4.619,0-8.364-3.75-8.364-8.369
						c0-4.614,3.745-8.364,8.364-8.364C89.318,21.567,93.068,25.316,93.068,29.932"/>
					<path d="M306.626,214.727c0,4.609-3.729,8.34-8.32,8.34c-4.607,0-8.34-3.729-8.34-8.34
						c0-4.59,3.73-8.319,8.34-8.319C302.898,206.406,306.626,210.137,306.626,214.727"/>
					<path d="M268.228,214.727c0,4.609-3.729,8.34-8.318,8.34c-4.609,0-8.34-3.729-8.34-8.34
						c0-4.59,3.729-8.319,8.34-8.319C264.5,206.406,268.228,210.137,268.228,214.727"/>
					<path d="M391.841,8.335c0,4.6-3.75,8.33-8.34,8.33c-4.609,0-8.34-3.73-8.34-8.33
						c0-4.601,3.73-8.335,8.34-8.335C388.091,0,391.841,3.734,391.841,8.335"/>
					<path d="M429.031,8.335c0,4.6-3.73,8.33-8.34,8.33c-4.592,0-8.32-3.73-8.32-8.33
						c0-4.601,3.729-8.335,8.32-8.335C425.298,0,429.031,3.734,429.031,8.335"/>
					<path d="M474.617,104.331c0,4.59-3.73,8.311-8.32,8.311s-8.301-3.721-8.301-8.311
						c0-4.585,3.711-8.312,8.301-8.312S474.617,99.746,474.617,104.331"/>
					<path d="M455.416,135.526c0,4.591-3.73,8.32-8.32,8.32s-8.301-3.729-8.301-8.32
						c0-4.59,3.711-8.301,8.301-8.301S455.416,130.938,455.416,135.526"/>
					<path d="M107.999,96.234l4,6.499l-36.998,21.504l-4.003-7.007L107.999,96.234z"/>
					<path d="M235.001,117.733l-4.003,6.504l-38.497-22.007l3.999-6.997L235.001,117.733z"/>
					<path d="M363.992,107.23l4.004,7.002l-36.504,21.001l-3.986-6.991L363.992,107.23z"/>
					<path d="M318.476,112.685l-4.004-7.002l36.559-20.905l4.004,7.002L318.476,112.685z"/>
						<path d="M0,185.74v-71.625h9.5v29.375h37.25v-29.375h9.5v71.625h-9.5v-33.75H9.5v33.75H0z"/>
						<path d="M118.376,78.883c0-11.891,3.186-21.199,9.559-27.926c6.371-6.727,14.598-10.09,24.678-10.09
							c6.6,0,12.549,1.58,17.85,4.74c5.299,3.16,9.338,7.564,12.119,13.217c2.779,5.652,4.17,12.063,4.17,19.229
							c0,7.266-1.465,13.764-4.391,19.496c-2.926,5.734-7.072,10.074-12.436,13.021c-5.365,2.949-11.152,4.422-17.361,4.422
							c-6.73,0-12.746-1.629-18.045-4.887c-5.301-3.258-9.316-7.703-12.047-13.34C119.741,91.131,118.376,85.17,118.376,78.883z
							 M128.126,79.006c0,8.637,2.316,15.439,6.951,20.408c4.633,4.969,10.445,7.453,17.438,7.453
							c7.121,0,12.982-2.508,17.584-7.527c4.602-5.018,6.902-12.139,6.902-21.361c0-5.832-0.984-10.924-2.951-15.275
							c-1.969-4.35-4.846-7.723-8.635-10.117s-8.039-3.594-12.754-3.594c-6.699,0-12.465,2.307-17.293,6.918
							S128.126,68.221,128.126,79.006z"/>
						<path d="M250.122,185.74v-71.625h9.762l37.738,56.279v-56.279h9.125v71.625h-9.762l-37.738-56.275v56.275
							H250.122z"/>
						<path d="M367.873,78.883c0-11.891,3.186-21.199,9.559-27.926c6.371-6.727,14.598-10.09,24.678-10.09
							c6.6,0,12.549,1.58,17.85,4.74c5.299,3.16,9.338,7.564,12.119,13.217c2.779,5.652,4.17,12.063,4.17,19.229
							c0,7.266-1.465,13.764-4.391,19.496c-2.926,5.734-7.072,10.074-12.436,13.021c-5.365,2.949-11.152,4.422-17.361,4.422
							c-6.73,0-12.746-1.629-18.045-4.887c-5.301-3.258-9.316-7.703-12.047-13.34C369.238,91.131,367.873,85.17,367.873,78.883z
							 M377.623,79.006c0,8.637,2.316,15.439,6.951,20.408c4.633,4.969,10.445,7.453,17.438,7.453
							c7.121,0,12.982-2.508,17.584-7.527c4.602-5.018,6.902-12.139,6.902-21.361c0-5.832-0.984-10.924-2.951-15.275
							c-1.969-4.35-4.846-7.723-8.635-10.117s-8.039-3.594-12.754-3.594c-6.699,0-12.465,2.307-17.293,6.918
							S377.623,68.221,377.623,79.006z"/>
</svg>