<?xml version="1.0" encoding="UTF-8" standalone="no"?>
<!-- Created with Inkscape (http://www.inkscape.org/) -->

<svg
   xmlns:dc="http://purl.org/dc/elements/1.1/"
   xmlns:cc="http://creativecommons.org/ns#"
   xmlns:rdf="http://www.w3.org/1999/02/22-rdf-syntax-ns#"
   xmlns:svg="http://www.w3.org/2000/svg"
   xmlns="http://www.w3.org/2000/svg"
   xmlns:sodipodi="http://sodipodi.sourceforge.net/DTD/sodipodi-0.dtd"
   xmlns:inkscape="http://www.inkscape.org/namespaces/inkscape"
   version="1.0"
   width="129.77628"
   height="76.392525"
   id="svg2"
   inkscape:version="0.91 r13725"
   sodipodi:docname="SodiumBicarbonate.svg">
  <metadata
     id="metadata16">
    <rdf:RDF>
      <cc:Work
         rdf:about="">
        <dc:format>image/svg+xml</dc:format>
        <dc:type
           rdf:resource="http://purl.org/dc/dcmitype/StillImage" />
      </cc:Work>
    </rdf:RDF>
  </metadata>
  <sodipodi:namedview
     pagecolor="#ffffff"
     bordercolor="#666666"
     borderopacity="1"
     objecttolerance="10"
     gridtolerance="10"
     guidetolerance="10"
     inkscape:pageopacity="0"
     inkscape:pageshadow="2"
     inkscape:window-width="1855"
     inkscape:window-height="1176"
     id="namedview14"
     showgrid="true"
     inkscape:zoom="7.2358203"
     inkscape:cx="61.389686"
     inkscape:cy="32.063088"
     inkscape:window-x="65"
     inkscape:window-y="24"
     inkscape:window-maximized="1"
     inkscape:current-layer="layer1">
    <inkscape:grid
       type="xygrid"
       id="grid3344" />
  </sodipodi:namedview>
  <defs
     id="defs4" />
  <g
     transform="translate(-157.00415,-198.19777)"
     id="layer1">
    <path
       d="M 162.19223,215.31355 L 162.19223,203.26834 L 163.82729,203.26834 L 170.15391,212.72539 L 170.15391,203.26834 L 171.68215,203.26834 L 171.68215,215.31355 L 170.04709,215.31355 L 163.72048,205.84828 L 163.72048,215.31355 L 162.19223,215.31355 z M 179.87389,214.23721 C 179.32612,214.7028 178.7989,215.03146 178.29223,215.22317 C 177.78555,215.41489 177.2419,215.51075 176.66128,215.51075 C 175.7027,215.51075 174.96597,215.27658 174.45107,214.80825 C 173.93618,214.33991 173.67873,213.74149 173.67873,213.01297 C 173.67873,212.58572 173.77596,212.19544 173.97042,211.84213 C 174.16487,211.48883 174.41958,211.20537 174.73454,210.99174 C 175.0495,210.77811 175.40417,210.61653 175.79856,210.50697 C 176.08887,210.43029 176.52708,210.35634 177.11318,210.28513 C 178.30729,210.14271 179.18644,209.97291 179.75064,209.77571 C 179.75611,209.57305 179.75885,209.44432 179.75886,209.38954 C 179.75885,208.78701 179.61917,208.3625 179.33982,208.116 C 178.96186,207.78188 178.40041,207.61481 177.65546,207.6148 C 176.95981,207.61481 176.44628,207.73669 176.11489,207.98043 C 175.78349,208.22419 175.53837,208.65555 175.37952,209.27451 L 173.93344,209.07732 C 174.0649,208.45836 174.28127,207.95853 174.58254,207.57783 C 174.8838,207.19714 175.31927,206.90409 175.88894,206.69868 C 176.45861,206.49328 177.11866,206.39057 177.86909,206.39056 C 178.61404,206.39057 179.21931,206.47821 179.68491,206.65349 C 180.1505,206.82878 180.49285,207.04925 180.71196,207.3149 C 180.93105,207.58058 181.08442,207.91608 181.17207,208.32141 C 181.22136,208.57339 181.24601,209.02803 181.24602,209.68533 L 181.24602,211.65726 C 181.24601,213.03214 181.27751,213.90171 181.34051,214.26596 C 181.40349,214.63022 181.52811,214.97942 181.71436,215.31355 L 180.16968,215.31355 C 180.0163,215.00681 179.9177,214.64803 179.87389,214.23721 L 179.87389,214.23721 z M 179.75064,210.93422 C 179.21383,211.15333 178.40863,211.33957 177.33502,211.49294 C 176.72701,211.58058 176.29702,211.67918 176.04505,211.78872 C 175.79308,211.89828 175.59863,212.0585 175.46169,212.26938 C 175.32475,212.48027 175.25628,212.71444 175.25628,212.97188 C 175.25628,213.36627 175.40554,213.69493 175.70407,213.95785 C 176.0026,214.22078 176.43943,214.35224 177.01458,214.35224 C 177.58425,214.35224 178.09093,214.22762 178.53462,213.97839 C 178.97829,213.72916 179.30421,213.38818 179.51237,212.95545 C 179.67121,212.62132 179.75063,212.12834 179.75064,211.4765 L 179.75064,210.93422 z M 186.6524,209.21339 L 186.6524,205.91041 L 183.37406,205.91041 L 183.37406,204.53005 L 186.6524,204.53005 L 186.6524,201.25172 L 188.04919,201.25172 L 188.04919,204.53005 L 191.32752,204.53005 L 191.32752,205.91041 L 188.04919,205.91041 L 188.04919,209.21339 L 186.6524,209.21339 z"
       id="text2387"
       style="font-size:16.82715034px;font-style:normal;font-weight:normal;fill:#000000;fill-opacity:1;stroke:none;stroke-width:1px;stroke-linecap:butt;stroke-linejoin:miter;stroke-opacity:1;font-family:Bitstream Vera Sans" />
    <path
       d="m 214.10271,209.43885 c 0,-1.99931 0.53681,-3.56453 1.61041,-4.69567 1.07361,-1.13111 2.45944,-1.69667 4.15749,-1.69668 1.11195,1e-5 2.11434,0.26568 3.0072,0.79699 0.89284,0.53134 1.57343,1.27218 2.04177,2.22253 0.46832,0.95037 0.70249,2.02809 0.7025,3.23315 -1e-5,1.22151 -0.2465,2.31428 -0.73947,3.27833 -0.493,0.96406 -1.19139,1.69395 -2.09518,2.18967 -0.90381,0.49572 -1.87882,0.74358 -2.92503,0.74358 -1.13387,0 -2.14722,-0.27388 -3.04006,-0.82164 -0.89285,-0.54775 -1.56934,-1.29544 -2.02945,-2.24307 -0.46012,-0.94762 -0.69018,-1.95001 -0.69018,-3.00719 z m 1.64328,0.0247 c 0,1.45156 0.39027,2.59501 1.17083,3.43034 0.78056,0.83533 1.75967,1.25299 2.93736,1.25299 1.19958,0 2.18692,-0.42177 2.96201,-1.26532 0.77506,-0.84354 1.1626,-2.0404 1.16261,-3.59056 -1e-5,-0.98048 -0.1657,-1.83635 -0.49709,-2.56762 -0.3314,-0.73125 -0.81617,-1.29818 -1.4543,-1.70079 -0.63814,-0.40259 -1.35434,-0.60389 -2.14858,-0.6039 -1.12839,1e-5 -2.09929,0.38755 -2.91271,1.16262 -0.81342,0.77508 -1.22013,2.06916 -1.22013,3.88224 z m 11.15785,-1.92624 0,-1.48717 7.50715,0 0,1.48717 z"
       id="text2391"
       style="font-style:normal;font-weight:normal;font-size:16.82715034px;font-family:'Bitstream Vera Sans';fill:#000000;fill-opacity:1;stroke:none;stroke-width:1px;stroke-linecap:butt;stroke-linejoin:miter;stroke-opacity:1"
       inkscape:connector-curvature="0"
       sodipodi:nodetypes="cccccccsscccscsssccccsccccc" />
    <path
       d="M 248.94375,240.18956 L 250.53773,240.59216 C 250.20358,241.90131 249.60242,242.8996 248.73423,243.58703 C 247.86602,244.27447 246.80474,244.61819 245.55038,244.61819 C 244.25219,244.61819 243.19638,244.3539 242.38297,243.82531 C 241.56954,243.29672 240.95058,242.53123 240.52606,241.52883 C 240.10155,240.52644 239.88929,239.45009 239.88929,238.29979 C 239.88929,237.04543 240.12894,235.95129 240.60823,235.01735 C 241.08752,234.08343 241.76947,233.37408 242.65411,232.88931 C 243.53873,232.40455 244.51237,232.16217 245.57503,232.16216 C 246.78009,232.16217 247.79345,232.46891 248.61509,233.08239 C 249.43672,233.69589 250.00913,234.55861 250.33232,235.67055 L 248.76299,236.04029 C 248.48362,235.16388 248.07828,234.52574 247.54696,234.12587 C 247.01563,233.72602 246.34736,233.52609 245.54217,233.52607 C 244.61645,233.52609 243.84274,233.74793 243.22104,234.1916 C 242.59933,234.6353 242.16249,235.23098 241.91052,235.97866 C 241.65855,236.72636 241.53257,237.49733 241.53257,238.29158 C 241.53257,239.31589 241.68183,240.21011 241.98036,240.97422 C 242.27889,241.73835 242.74311,242.30939 243.37304,242.68734 C 244.00296,243.0653 244.68492,243.25427 245.41892,243.25427 C 246.31176,243.25427 247.06767,242.99683 247.68664,242.48193 C 248.3056,241.96704 248.72463,241.20292 248.94375,240.18956 L 248.94375,240.18956 z"
       id="text2395"
       style="font-size:16.82715034px;font-style:normal;font-weight:normal;fill:#000000;fill-opacity:1;stroke:none;stroke-width:1px;stroke-linecap:butt;stroke-linejoin:miter;stroke-opacity:1;font-family:Bitstream Vera Sans" />
    <path
       d="M 258.52897,209.43885 C 258.52897,207.43954 259.06577,205.87432 260.13938,204.74318 C 261.21298,203.61207 262.59881,203.04651 264.29687,203.0465 C 265.40881,203.04651 266.41121,203.31218 267.30406,203.84349 C 268.1969,204.37483 268.87749,205.11567 269.34583,206.06602 C 269.81416,207.01639 270.04832,208.09411 270.04834,209.29917 C 270.04832,210.52068 269.80183,211.61345 269.30886,212.5775 C 268.81587,213.54156 268.11747,214.27145 267.21368,214.76717 C 266.30987,215.26289 265.33486,215.51075 264.28865,215.51075 C 263.15479,215.51075 262.14143,215.23687 261.24859,214.68911 C 260.35574,214.14136 259.67926,213.39367 259.21914,212.44604 C 258.75903,211.49842 258.52897,210.49603 258.52897,209.43885 L 258.52897,209.43885 z M 260.17224,209.4635 C 260.17224,210.91506 260.56252,212.05851 261.34308,212.89384 C 262.12363,213.72917 263.10275,214.14683 264.28043,214.14683 C 265.48002,214.14683 266.46735,213.72506 267.24244,212.88151 C 268.01751,212.03797 268.40505,210.84111 268.40506,209.29095 C 268.40505,208.31047 268.23935,207.4546 267.90797,206.72333 C 267.57656,205.99208 267.0918,205.42515 266.45367,205.02254 C 265.81552,204.61995 265.09933,204.41865 264.30508,204.41864 C 263.1767,204.41865 262.20579,204.80619 261.39238,205.58126 C 260.57895,206.35634 260.17224,207.65042 260.17224,209.4635 L 260.17224,209.4635 z M 272.14351,215.30534 L 272.14351,203.26013 L 273.73749,203.26013 L 273.73749,208.20639 L 279.99837,208.20639 L 279.99837,203.26013 L 281.59235,203.26013 L 281.59235,215.30534 L 279.99837,215.30534 L 279.99837,209.62782 L 273.73749,209.62782 L 273.73749,215.30534 L 272.14351,215.30534 z"
       id="text2399"
       style="font-size:16.82715034px;font-style:normal;font-weight:normal;fill:#000000;fill-opacity:1;stroke:none;stroke-width:1px;stroke-linecap:butt;stroke-linejoin:miter;stroke-opacity:1;font-family:Bitstream Vera Sans" />
    <path
       d="M 239.45383,265.46444 C 239.45383,263.46512 239.99064,261.8999 241.06424,260.76877 C 242.13785,259.63766 243.52368,259.0721 245.22173,259.07209 C 246.33368,259.0721 247.33607,259.33777 248.22893,259.86908 C 249.12177,260.40042 249.80236,261.14126 250.2707,262.09161 C 250.73902,263.04198 250.97319,264.1197 250.9732,265.32476 C 250.97319,266.54626 250.7267,267.63904 250.23373,268.60309 C 249.74073,269.56715 249.04234,270.29704 248.13855,270.79276 C 247.23474,271.28848 246.25973,271.53634 245.21352,271.53634 C 244.07965,271.53634 243.0663,271.26246 242.17346,270.7147 C 241.28061,270.16695 240.60412,269.41926 240.14401,268.47163 C 239.68389,267.52401 239.45383,266.52162 239.45383,265.46444 L 239.45383,265.46444 z M 241.09711,265.48909 C 241.09711,266.94065 241.48738,268.0841 242.26794,268.91942 C 243.0485,269.75476 244.02761,270.17242 245.2053,270.17242 C 246.40488,270.17242 247.39222,269.75065 248.16731,268.9071 C 248.94237,268.06355 249.32991,266.8667 249.32992,265.31654 C 249.32991,264.33606 249.16422,263.48019 248.83283,262.74892 C 248.50143,262.01767 248.01666,261.45074 247.37853,261.04813 C 246.74039,260.64554 246.02419,260.44424 245.22995,260.44423 C 244.10156,260.44424 243.13066,260.83178 242.31724,261.60684 C 241.50382,262.38193 241.09711,263.67601 241.09711,265.48909 L 241.09711,265.48909 z"
       id="text2403"
       style="font-size:16.82715034px;font-style:normal;font-weight:normal;fill:#000000;fill-opacity:1;stroke:none;stroke-width:1px;stroke-linecap:butt;stroke-linejoin:miter;stroke-opacity:1;font-family:Bitstream Vera Sans" />
    <path
       d="M 228.35025,216.76047 L 240.34108,230.21956"
       id="path2409"
       style="fill:none;fill-rule:evenodd;stroke:#000000;stroke-width:1.20193934px;stroke-linecap:butt;stroke-linejoin:miter;stroke-opacity:1" />
    <path
       d="M 261.38621,217.24989 L 249.39537,230.70897"
       id="path2411"
       style="fill:none;fill-rule:evenodd;stroke:#000000;stroke-width:1.20193934px;stroke-linecap:butt;stroke-linejoin:miter;stroke-opacity:1" />
    <path
       d="M 243.76704,246.48799 L 243.76704,257.02023"
       id="path2419"
       style="fill:none;fill-rule:evenodd;stroke:#000000;stroke-width:1.43697023px;stroke-linecap:butt;stroke-linejoin:miter;stroke-opacity:1" />
    <path
       d="M 246.45886,246.48799 L 246.45886,257.02023"
       id="path2421"
       style="fill:none;fill-rule:evenodd;stroke:#000000;stroke-width:1.43697023px;stroke-linecap:butt;stroke-linejoin:miter;stroke-opacity:1" />
  </g>
</svg>
